<svg xmlns="http://www.w3.org/2000/svg" viewBox="0 0 141.73 187.29"><defs><style>.cls-1{fill:#f7e83d;}.cls-2{fill:#2954cc;}.cls-3{fill:#eb1e41;}</style></defs><title>bird1</title><g id="Layer_2" data-name="Layer 2"><rect class="cls-1" width="141.73" height="187.29"/><path class="cls-2" d="M28.33,140.41c.77.62,1.56,1.23,2.35,1.83a18,18,0,0,0,2.4,1.75c-.34-.74-2.64-2.28-.65-.64,3.58,3,5.93,4.84,10.57,6.13a18.11,18.11,0,0,0,16.13-3.31c4.88-3.77,6.72-8.5,7.29-14.52.37-4-.67-7.94-1.27-11.85l.67,5a15.76,15.76,0,0,1-.09-2.83l-.68,5a6.49,6.49,0,0,1,.48-1.84L42.26,138.34a2.94,2.94,0,0,1,.93.27l-4.52-1.91Q34,132.76,36,134.62q-3.41-4.91-2.11-2.49l-1.91-4.52a15.16,15.16,0,0,1,1,3.7l-.68-5a32.48,32.48,0,0,1-.07,7.44l.67-5c-.07.52-.15,1-.25,1.54l18-13.69a8.24,8.24,0,0,1-1.57,0l5,.66c-1-.17-3.35-.43-4.09-1.17.56.56,4.29,2,1.42.48-.7-.36-1.4-.74-2.09-1.12-5.71-3.18-11.93-5.61-18.45-3.21-3.8,1.4-7.55,3.59-9.53,7.33-2.13,4-2.31,7.81-1.61,12.28-1.19-7.62-.3-.64.42,1.77A17.33,17.33,0,0,0,25.24,142c2.43,2.13,5.08,4.08,7.67,6a30.4,30.4,0,0,0,17.64,6c7.9.12,16.17-5.85,18-13.7a49.39,49.39,0,0,0,.63-19.63A23.78,23.78,0,0,0,66,112.05c-2.78-4.56-8.13-9.41-13.71-10.19-5-.69-10-1-14.58,1.91a19.48,19.48,0,0,0-8.69,11.3c-1.76,6.88-.05,12.77,1,19.51l-.67-4.93a9.54,9.54,0,0,1,.05,2L43,113.81a33.85,33.85,0,0,0-6.17,2.49l-3.59,2.78Q42,115.21,37.67,116H46q-2.37-.66.8.56c-7-3.19-14.69-2.47-19.62,3.91-4.2,5.45-4.73,15.22,1.19,20Z"/><path class="cls-3" d="M101.76,49.51c3-4.58,2.33-9.64,3-14.71l-.64,4.72c.33-2.08.63-4.16.86-6.25L104.34,38a12.24,12.24,0,0,1,.66-2.65l-1.79,4.24a7.18,7.18,0,0,1,.81-1.36l-2.77,3.58a4.42,4.42,0,0,1,.53-.53L98.2,44a5.57,5.57,0,0,1,1-.58L95,45.24a5.38,5.38,0,0,1,1.18-.3l-4.68.63a8.3,8.3,0,0,1,1.41,0L88.19,45a14.89,14.89,0,0,1,2.94.81L87,44a18.73,18.73,0,0,1,3.4,1.8l-3.51-2.71a12.45,12.45,0,0,1,2,2l-2.7-3.5a13.11,13.11,0,0,1,1.37,2.35l-1.74-4.12a9.83,9.83,0,0,1,.6,2l-.61-4.56a9.09,9.09,0,0,1,0,2l.61-4.56a6.63,6.63,0,0,1-.34,1.38L87.85,32a7,7,0,0,1-.49.89L90,29.39a6,6,0,0,1-.69.74l3.46-2.68a5.36,5.36,0,0,1-.89.53L96,26.26a6.73,6.73,0,0,1-1.11.31L99.44,26c-2.77.32-5.54.53-8.31,1-5.38.94-9.87,6.24-11.25,11.26A16.3,16.3,0,0,0,84,53.92a21.1,21.1,0,0,0,35.28-9.07,26.81,26.81,0,0,0-7.89-26.33C101.54,9.57,86,6.87,76,17.08c-4.37,4.45-6.63,11-6.73,17.2-.11,6.66,1.19,13.77,6.08,18.64,8,7.91,20.57,5.64,26.43-3.41Z"/></g><g id="Layer_1" data-name="Layer 1"><path d="M101.32,47.11c-6.25.08-13.22,1.15-18.81-2.32s-10.18-15.51.27-16.06c4.3-.23,6.74,1.21,10.31-1.73,1.34-1.09,2.37-2.5,3.68-3.62S100.14,21,101.93,21c2.33,0,2.6,3.48,3.62.87l-.93.92v3.06c-.22.47-.24,1.62.4.75,2.61-3.52,2.7-2,2.56.79a33.65,33.65,0,0,1-1.11,6.53c-1.18,4.52-3.29,11.29-8.35,12.72-.56.16-1.06,1.94-.65,1.83,8.55-2.43,12.36-18.63,11-26.17,0-.32-.29-.2-.46,0,0,0-2.17,2-2.28,2s.6.83.37.07c-.46-1.56.31-1.63-.47-3.22-.23-.48-.89.8-.93.92-.34.83-.66,1.68-1,2.54-.47,1.3.56.57.86-.18.5-1.25,1.59-3.52.36-4.75-1.7-1.68-5.54.32-7,1.37-3.67,2.59-5.4,6.53-10.48,6.1-3.2-.27-6.79-.71-9.46,1.49-3.88,3.2-3.44,9-1.16,12.92,5,8.72,15.22,7.5,23.83,7.39.52,0,1.2-1.83.65-1.83Z"/><path d="M83.88,26.36a24.67,24.67,0,0,1-1.07-5.3,11,11,0,0,1,.09-3,5.16,5.16,0,0,1,.46-1.49,2.25,2.25,0,0,1,.84,2.58c-.09.74,1,2,1.54,1,.39-.78,1-2.07,2-2.14,1.43-.09,1.06,1.73.85,2.62a1.19,1.19,0,0,0,.87,1.32c1.84.13-.46,4.07-.72,5.14s1.3,2,1.6.75c.55-2.22,3.4-7.46-1-7.78l.87,1.32c.41-1.74.37-4.17-1.5-5.09-2.07-1-3.62,1.07-4.43,2.69l1.54,1c.29-2.43-.17-4.53-2.46-5.74a.63.63,0,0,0-.77.12c-2.48,3.51-1.37,8.52-.23,12.34.33,1.09,1.91,1,1.54-.22Z"/><path d="M97.74,33.77a10.59,10.59,0,0,1,2.58.11c.24,0,.75.32.94.29.28.19.3.12.07-.2s-.19-.4-.21,0c-.39.31-.65.91-1.09,1.25a12,12,0,0,1-2.5,1.4c-.39.17.54,1.81,1,1.72a3.75,3.75,0,0,1,2,0c.22.08.18-.31,0,.15a3.64,3.64,0,0,1-.32.66,4,4,0,0,1-2.78,1.56.21.21,0,0,0-.07.2c.38,2.94-3.59,2.29-4.06.17-.61-2.8,3.43-5,5.44-6,.37-.17-.57-1.94-1-1.72-2.68,1.26-6.46,3.7-5.4,7.21.57,1.86,2.81,4.58,5.06,4,1.37-.34.81-1.71,1.64-2.31.59-.43,1.32-.48,1.89-1a2.74,2.74,0,0,0,.77-1.31,3.1,3.1,0,0,0-.82-2.6c-.89-1-2.09-1-3.34-.74l1,1.72c1.54-.69,4.44-2,3.61-4.11S99,31.94,96.91,32c-.44,0,.33,1.76.83,1.75Z"/><path d="M75.7,39.42a12.37,12.37,0,0,0-4.38,8.41c0,.53.32,1.32,1,1.15a11.17,11.17,0,0,0,6.4-4.21l-1.54-1.05a9.28,9.28,0,0,0-1.43,7,.92.92,0,0,0,1.2.57c2.52-1.05,5.32-3.82,4.29-6.78-.43-1.23-2.17-.44-1.76.72.65,1.87-1.71,3.59-3.16,4.19l1.19.58c-.45-1.91.4-3.79,1.35-5.4.55-.94-.87-2-1.55-1A9.2,9.2,0,0,1,72.16,47l1,1.15A10.36,10.36,0,0,1,76.76,41c.95-.74-.05-2.41-1.06-1.62Z"/><path d="M37.3,128.7c-1.47-5.33,1.63-14.62,8.22-14.75,4.38-.09,6.8,4,9.24,7,2.1,2.61,6.78,5,8,8,2.74,7-4.5,15.61-11.23,16.64l.58,1c-.05-1.64-.06-3.27,0-4.91,0-1-.9-1.39-1.16-.28l-1.72,4,1,.45a19.26,19.26,0,0,1-.36-3.94c0-.34-.4-1.47-.88-.87a60.68,60.68,0,0,0-4.21,5.73l1,.44.1-4.4c0-.26-.11-1.63-.72-1.23-1.33.88-5.4,4.17-2.68-2.13.25-.6-.45-2.21-.92-1.22a11.93,11.93,0,0,1-3.2,4.35l.86.6c-.83-3.94.7-7.36.34-11.19-.27-3-1.82-5.56-2.13-8.54-.14-1.33-1.24-.47-1.14.53.36,3.49,2.16,6.46,2,10-.2,3.41-.87,6.33-.16,9.7.08.4.39,1,.86.6a12.12,12.12,0,0,0,3.44-4.66l-.91-1.22a8.72,8.72,0,0,0-.47,6.89c.09.24.35.63.67.46,1.31-.7,2.55-1.45,3.79-2.27l-.72-1.24a25.66,25.66,0,0,0-.1,5.47c0,.54.6,1,1,.45a59.72,59.72,0,0,1,4-5.42l-.88-.87a21.16,21.16,0,0,0,.4,4.48c.08.52.57,1,1,.44a13.62,13.62,0,0,0,2-4.86l-1.15-.27c0,1.64,0,3.27,0,4.91,0,.28.13,1.08.58,1,6.65-1,12.5-7.86,13.06-14.52.57-6.84-5.42-9.22-9.2-13.88-3.58-4.43-8.3-10.19-14.37-5.58-4.55,3.46-6.18,10.78-4.71,16.09.34,1.25,1.24-.21,1-1Z"/><path d="M38.18,126.48c-3.12-1.77-7.66-3.3-11.22-2-3.16,1.16-4.26,4.52-4.1,7.62,0,.15,0,.2.18.22a12.48,12.48,0,0,0,7.31-1.7l.39-1.58a11.75,11.75,0,0,0-3.52,4.73c0,.09-.3.76-.06.8,2.07.44,2.68.59,2.36,2.74,0,0-.05.35.07.37a5,5,0,0,0,3.46-.71c1.36-.8,1.85-2.05,1.87.35,0,.19.14.27.3.16a6.74,6.74,0,0,0,2.44-3.34c.52-1.26-.51-.59-.82.16-1,2.36-.89,0-.94-.54,0-.31-.27-.21-.43-.06-.91.86-2.61,2.73-4,2.15-1-.41-.9-.46-.55-2,0,0,0-.36-.07-.38-.94-.13-1.78-.5-2.69-.7l-.07.8a7.34,7.34,0,0,1,2.44-3.1c.25-.21,1-1.9.39-1.58-1.59.87-7,3.46-6.87,0,.12-2.42,2.77-3,4.64-3.07a16.8,16.8,0,0,1,8.59,2.39c.41.23,1.38-1.51,1-1.76Z"/><path d="M51.59,124.23c1.21,0,2.38-.44,3.59-.51,1,0,2.26-.17,1.23,1.36a4.67,4.67,0,0,1-1.73,1.24c-.47.24-.15,1.85.35,1.93a4.22,4.22,0,0,1,3,2.19l.06-1.73a3,3,0,0,0-2.35,1.64c-.47.9-.43,2.29-1.25,3-1.33,1.09-3.06-.07-3.76-1.28a7,7,0,0,1-.75-5.39c.16-.48-.38-2.32-.72-1.34-1,2.8-.13,7.68,2.22,9.65a2.66,2.66,0,0,0,3.74-.09c1.29-1.58.55-3.74,3.12-4.19.53-.09.24-1.45.06-1.72a5.12,5.12,0,0,0-3.63-2.7l.35,1.94c1.93-1,3.48-3.08,2.38-5.28s-4.24-.7-6.17-.69c-.5,0-.35,2,.25,2Z"/><path d="M42.49,112.92c-1.71-2.57-4.38-4.89-3.75-8.28l-1.13.66c1.77.72,2.86,2.37,4,3.86.67.9,1.63-.14,1.54-.93a21.12,21.12,0,0,0-1.34-5.06l-1.28,1.33c2.27,1.34,1.36,5.81,2.29,8.07.41,1,1.61.4,1.7-.45.05-.41.08-.82.1-1.24a.9.9,0,1,0-1.8-.06c0,.42-.06.83-.11,1.24l1.7-.45c-1.17-2.82.17-7-2.91-8.81-.92-.54-1.58.51-1.28,1.33a19.15,19.15,0,0,1,1.17,4.58l1.54-.93c-1.31-1.78-2.62-3.54-4.73-4.39a.9.9,0,0,0-1.13.66c-.8,4.32,1.93,6.91,4.15,10.24.71,1.06,2-.42,1.32-1.37Z"/><path d="M60.35,141.72c2.72,2.87,3.54,7.21,7.06,9.36,1.1.66,2.19-.92,1.13-1.57-3.33-2-4.12-6.26-6.7-9-.88-.93-2.36.28-1.49,1.2Z"/><path d="M53.24,147.55a50.59,50.59,0,0,1-.42,9.84c-.24,1.26,1.64,1.71,1.88.48a53.31,53.31,0,0,0,.5-10.34,1,1,0,0,0-2,0Z"/><path d="M105.94,40.29c3.87.09,10.26-.3,11.12-5.09.23-1.27-1.66-1.21-1.87,0-.59,3.3-6.57,3.23-9,3.17-1.17,0-1.45,1.91-.2,1.95Z"/><path d="M101.74,47.63c3.12.87,6,2,9.33,1.83.73,0,.94-2,0-2-3.17.16-6-1-9-1.85-.75-.2-1.14,1.75-.34,2Z"/><path d="M121.38,126.62c-2.55-2.24-5.57-3.79-8-6.15a67.39,67.39,0,0,1-7.8-9.46c-5-6.94-7.42-14.76-11.15-22.36-.26-.53-1.68.82-1.45,1.3,3.5,7.12,5.69,14.73,10.33,21.26a81.66,81.66,0,0,0,7.59,9.6c2.78,2.89,6.22,4.68,9.19,7.3.41.35,1.75-1.13,1.34-1.49Z"/><path d="M105.84,111.47c-1.33-5.51,6.43-13,1.32-17.84-.94-.89-1,.82-.41,1.42,2,1.88-.71,7.33-1.39,9.42s-1.5,4.44-1,6.68c.2.85,1.75,1.59,1.44.32Z"/><path d="M95.8,101.17c-4.56,1.2-12.69,0-11.45-6.61.07-.33,0-1.34-.58-1.28-4.39.44-6.8-3.37-4.83-7.32,1.16-2.34,2-2.66,4-4.08a31,31,0,0,0,4.37-4.28c3.22-3.4,6.34-3.09,10.61-1.1A15.19,15.19,0,0,1,104,81.32c.27.36.26,1,.64,1.25,1.75,1.23,3,.38,5.24.65,4.46.54,4.9,5.11,6.93,8.2,2.37,3.61,5.73,7,3.73,11.92-1.94,4.72-9.38,6.34-11.22.6-.4-1.25-1.37.14-1.1,1,2.76,8.63,13.41,3.91,14.06-3.52.55-6.12-4-9.61-6.12-14.73-.87-2.06-1.41-3.59-3.55-4.75s-4.47-.65-6.47-1.71c-1.79-.94-3-2.64-4.73-3.82A18.43,18.43,0,0,0,93,73c-5.29-.46-6.78,4.43-10.62,7.08-3.51,2.42-6.28,4.5-5.7,9.26.46,3.85,3.13,6.33,7.06,5.94L83.15,94c-1.46,7.76,6.41,10.82,12.95,9.11.77-.2.62-2.18-.3-1.94Z"/><path d="M20.58,57.73C27.4,59.58,35.79,60.36,41.35,65c5.2,4.4,7.44,11.52,8.74,18,.25,1.26,2.08,1,1.83-.25-1.32-6.58-3.5-13.54-8.42-18.37-5.79-5.69-15.12-6.59-22.61-8.63-1.14-.31-1.45,1.67-.31,2Z"/><path d="M49.25,72.5c3.58-2.44,11.44-4.06,11.85-9.35.1-1.26-1.76-1.06-1.84,0-.2,2.51-3.36,4-5.29,5a57.58,57.58,0,0,0-5.8,3.1c-1,.72.06,2,1.08,1.26Z"/><path d="M42.75,77c-3.77-.73-6.41,2.65-7.12,6-.29,1.37-.42,3.32.56,4.48a2.13,2.13,0,0,0,1.44.8,14.38,14.38,0,0,0,2.49-.83c.06,0-.07,2.07.36,2.6a2.32,2.32,0,0,0,2.21.63c1.14-.08,2.24-.51,3.39-.58,1.46-.09,2.88.32,4.33.35,3.33.07,8.6-5,7.43-8.65C56.3,77.08,46.78,80,44,81.6c-.42.25-1.16,2-.65,1.64a15.94,15.94,0,0,1,8.12-2.12c2.29,0,6.35.77,4.9,4-2.2,4.91-5.66,2.93-9.59,3.26-2.84.23-5.94,1.84-5.3-2.67.05-.33-.3-.21-.44-.11-2.33,1.61-4.27.79-4.34-2.06-.08-3.09,2-5.48,5.15-4.87.49.1,1.45-1.61.91-1.71Z"/><path d="M62.06,69.05a7.35,7.35,0,0,1-7.87-4.23c-1.06-2-2.08-6,.07-7.74a3.81,3.81,0,0,1,4.8.42c.95,1.22.7,1.89,2.51,2.27,2.74.58,6.53.14,6.75,4.12.16,3-3.86,3.74-6.26,3.79-1,0-1.2,2-.09,2,2.68-.06,6-.82,7.44-3.29,1.36-2.25.38-5.18-1.43-6.89a6.25,6.25,0,0,0-3.85-1.39,8.31,8.31,0,0,1-2.64-.38c-1-.52-.78-1.2-1.34-1.91-1.14-1.45-3.94-1.63-5.53-1C51.1,56.25,51.05,61,52,64c1.38,4.43,5.16,7.73,10,7,1-.15,1.16-2.13.09-2Z"/><path d="M82.17,173.8c-1.21-6,7-12,9-17.21,2-5,1.51-12.08-1.74-16.48-.69-.93-2.28.24-1.64,1.11,4.83,6.54,2.5,14.4-1.7,20.4-2.48,3.55-6.68,8.14-5.72,12.86.25,1.19,2,.37,1.8-.68Z"/><path d="M91.18,153.09c3.73,0,6.47-3.46,7.75-6.64.46-1.16-.91-1.72-1.38-.56-1,2.47-3.09,5.24-6,5.27-.94,0-1.41,2-.36,1.93Z"/><path d="M85.18,144.3c-4.42.23-6.41-7.21-3.28-9.85,2.31-1.95,6.94-1.95,8.28,1,.43,1,1.54-.45,1.37-1.1,1.54-1.57,2.73-1.26,3.59.94.27.68.57,1.35.89,2a6.87,6.87,0,0,0,1.84,1.92c1.9,1.48,8,3.23,4.44,6.69-.32.32-.64,1.11-.25,1.5,2.25,2.22.25,5.54-2.1,6.88a34.31,34.31,0,0,0-3.59,2c-1.24.91-2.4,2.37-4.07,2.47-3.2.2-7.93-3.67-7.13-7.13.3-1.29-1.13-1.09-1.37,0-.8,3.44,1.08,6.09,4.12,7.78,3.55,2,5.27,1.26,8.12-.9,4.28-3.23,13.47-6.46,7.14-12.72l-.25,1.5c5.75-5.65-2-7-5.16-10.67-1.69-1.94-2-6.26-5.76-5.46-2.11.44-2.37,2.28-1.89,4.09l1.37-1.11c-2.2-4.85-9.8-3.07-12.18.87-2.18,3.62.7,11.41,5.39,11.17.84,0,1.42-1.95.48-1.9Z"/></g></svg>