<svg xmlns="http://www.w3.org/2000/svg" viewBox="0 0 173.35 123.94"><defs><style>.a{fill:#efdf15;}</style></defs><title>fruit4</title><path class="a" d="M-6.39,82.2-6.16,79c-.25,3.47-.76,11.42,4.05,12.75l.62.17c5.18,1.43,8.84-1.79,12.3-5.26,2.57-2.58,4.84-5.46,7.35-8.11.4-.42,3-2.68.95-1s.61-.38,1-.76c2.22-2.16-2.33.9.16-.16,1.83-.78-1.14,0-2.1-.19L25.7,42.3c-2.12,2,.61-.75.88-.25,0,0-1.86.91-2,1-.73.31-1.47.55-2.22.8,2.63-.9,0,0-.71,0-.88,0-5.15,0-2.56.15-1.69-.12-1.26-1.65-.43.17l-.48-.61q4.15,6.72-1.49,15.11l-5.5,8.58a13.82,13.82,0,0,1-4,3.15c1.23-.69.43,0-.47.09,1.56-.14,3.07-.31,4.64-.32,2.63,0,5.25.24,7.88.38L20.8,38.93a10.19,10.19,0,0,1,3-2.38c1.08-.58,1.28-.72.59-.4-1.06.41,2.43.13.42-.14a15.27,15.27,0,0,0-2,0c-1.07,0,1.93.92,0,0-1-.47-2.13-1-3.14-1.33-1.68-.62-.11-.42.46.47-.77-1.21,1.14,4.35,1.14,4.59L20,48.86l.11-.38-4.43,9.67L8,65.72c-1.69.34-2,.42-1,.23a23.09,23.09,0,0,0,2.33-.27,82.15,82.15,0,0,1,9.15,0c6,.22,12,.68,18.09.63l-4-23c3.07-6,.41-.22-.69.66,1.6-2.11,1.74-2.34.4-.69-.61.73-1.25,1.44-1.89,2.13-.24.26-3.62,3.71-1,1.18-1.45,1.41-3,2.71-4.56,4q-4,3.32-8.35,6.26c-.45.31-5.22,3.22-2.6,1.72-1.42.82-2.85,1.6-4.31,2.34C1.38,65-4.36,75.2-5.24,84.19c-.58,5.86,1.41,16.69,10,12.45,11-5.43,19.72-13.6,28.17-22.31C34.61,72.55,36.31,70.76,38,69c.86-.88,1.76-1.73,2.6-2.62,1.35-1.43-1.82,1.56.56-.54,2-1.77,4-3.49,6.2-5.06.32-.23,2.91-2.06,1-.81a36.87,36.87,0,0,0,6.88-5.49,33.76,33.76,0,0,0,8.51-20.54c.17-3.65-1.11-12.37-7-11.07a14.8,14.8,0,0,0-4.23,1.38c-8.12,4.38-13.89,14.19-14.79,23.32-.55,5.58,1.48,17,10,12.46q1.81-.89-2,.21l1.54-31.6-.5.52,6.39-5c-9.82,5.92-17.8,13.39-25.74,21.62C26,47.42,24.44,49,22.87,50.61c-.86.87-1.75,1.74-2.62,2.61-1.39,1.37,1.83-1.5-.61.51-1.9,1.56-3.72,3.16-5.72,4.59-.79.57-1.6,1.14-2.43,1.64,2.08-1.26-1.94.9-1.94.9L4.72,96.64c19.4-9.89,36.86-25.16,46.79-44.71,2.61-5.14,7-23.11-4-23-9.68.07-20-2-29.56-.33C4.36,30.92-4.53,46.57-3.92,59.7-3.62,66.18.75,71,6.92,72.56c8.54,2.12,16.21-1,21.82-7.78,4.78-5.77,8.15-13,8.51-20.54.23-5-1.06-10.75-7-11.07s-11.73-.9-17.43,1.15C.08,38.91-7.54,56.44-5.51,69.17c2.62,16.43,23.26,14,32.83,5a35.92,35.92,0,0,0,11-19c.75-3.45,2-14-3.53-15.14-14.08-2.85-23.32,12.08-32,20.76l12.3-5.26-.62-.17L18.6,68.12a32.66,32.66,0,0,0,.17-5.5c-.28-3-1.12-7-4.25-8.4s-6.85.41-9.13,2.26C-1.53,62.09-7.27,73.05-6.39,82.2Z"/><path class="a" d="M58,106.23c17.46,3.47,35.67,3.53,51.67-5.36,8-4.45,15.49-11,19.41-19.51a59.93,59.93,0,0,0,3.19-9.29c.31-1.16.66-2.36.89-3.53.45-1.61.43-1.72,0-.31a23.74,23.74,0,0,1-6.34,6.92l-9.06,4.7-2.87.27a6,6,0,0,1-4.4-.16c.86-.24.49,1.14.44.27,0-.51.14.22.36.78s.59.85.78,1.27a10.47,10.47,0,0,1,.71,3.59c-.07-2.2-.08-.67-.23-.05a9.86,9.86,0,0,1,1.72-3.59c2.81-3.74,2.07-2.14,1.06-1.23-.17.15,3.71-2.9,1.87-1.61s2.19-1.2,2.07-1.18a12.65,12.65,0,0,0-2.12,1.15c-.53.28-1.12.49-1.63.79-2.16,1.23,3.55-1.24,1.22-.52-1.26.38-2.48.91-3.73,1.32a11.67,11.67,0,0,0-2,.62c.12-.17,3.43-.44,1.93-.46-2.55,0-2,.12.3.19-2.47-.07.43.24.54.29-2-1,1.71,2,.3.38s.87-.53.12.74c.12-.19-.26-1.34-.28-1.62-.12-1.92-.63,3,0,.53.21-.88.38-1.8.55-2.69.54-2.9-1.3,2.57-.17.44.36-.68.62-1.45,1-2.15s2.13-3.63.4-1,.42-.56.88-1.19c2.1-2.86.52-.14-1,.88A9.54,9.54,0,0,0,117.36,74c-1.55,2.37-3.74,2.81-5.46,3.58-4.74,2.11,1.85-.27-2.67.93-2.6.69-1.77.42-1,.32,0,0-4.08-.22-2.16.14-.45-.08-2.64-1.38-1.59-.43a5.8,5.8,0,0,0,1.38.64c1.9.61-.11.27-.37-.45.13.36.69,1.4.12-.28-.29-.92-.37-1.09-.24-.52q.24,1.47.12-1.77c.63-3.41,2.46-4.92,4.32-6.45,3.22-2.64-.65.06-1.07.63,0,.06,4.15-2.25,2.39-1.49A23.31,23.31,0,0,0,108.9,70c-.54.31-2.36,1.14.49-.17,3-1.41.45-.13-.34,0-.58.09-2.25.69.53-.09,1.48-.31,1.81-.4,1-.28q-1.78.22,2.11.06c-.13-.17-1.21,0-1.35-.17-.89-.17-1-.18-.3,0s.61.11-.36-.34c.71,1.65,2,2.14,2.1,4a8.32,8.32,0,0,1-1.36,4.25c-.33.6-3.82,4.23-2.12,2.79.57-.48,1.09-1.08,1.64-1.59s1.18-1,1.75-1.56c1.9-1.8-3.42,2.77-1.47,1.25,2.22-1.75,4.42-3.57,6.52-5.46.51-.46,1-.93,1.51-1.41,3.37-3.3-3.6,2.31.18-.05l-9.06,4.7-6.66-.19.9.48c0-.46-.77-.88.17.34a18.74,18.74,0,0,1,2.54,4.29c-.34-.85.52,2.21.65,2.88a10.68,10.68,0,0,1,.19,1.87c0-1.89-.12-.29-.36.69-.51,2,1-2.08.07,0-.35.78-.86,1.59-1.14,2.38-.66,1.93,1.55-1.82.14-.28-.33.37-2.33,2.77-.53.84,2.35-2.52-2.54,1.73.76-.68s-2.69,1.16,1.16-.77c.43-.22,4.33-1.85,2.9-1.4-2.08.64,4-.5.31-.27l10.37,5.59c.18-1.09-.07-1.59-.73-1.51,1.38-19.4-33.47-2.41-34.45,11.29-.2,2.85-.38,5.36.51,8.09,1.66,5,5.43,5.9,10.37,5.59,11.87-.75,23.47-8.48,31.35-16.93,7.36-7.88,14-18.17,13.92-29.34C142.72,61.66,139,52.71,132.5,49c-5.06-2.92-11.57-2-16.77-.1a42.69,42.69,0,0,0-11.26,6.25c-1.76,1.36-3.48,2.86-5.13,4.37-.68.63-3.88,2.95-.85,1,2.65-1.73.66-.55,0,0-1.8,1.49-3.59,3-5.37,4.48-1.18,1-2.38,2-3.51,3.08a44.18,44.18,0,0,0-9.66,12.54c-1.87,3.91-3,9.15-.22,13,2.57,3.56,7.63,4.81,11.73,5.12,8.14.62,16.85-2.82,23.8-6.78,8.93-5.08,18.23-12,22.78-21.47,3.5-7.3,2.68-15.12-5.14-18.91-7.5-3.63-16.54-1.3-23.53,2.39A60.14,60.14,0,0,0,81.08,86.65c-3.66,10.6-2.2,22.67,11.2,23.8,9,.76,18.33-3.14,26.31-6.79C128.89,99,139.17,91.28,144.47,81c4.63-8.94,3.95-21.92-5.33-27.85-4.78-3-11-2.13-16.06-.41a38.84,38.84,0,0,0-21.92,19.5c-1.87,3.92-3,8.87-3.93,13.15.66-3,.65-1.8.26-.86-.59,1.47-2.16,3.11.6-.66,0,0,3.59-3.74,1.52-1.75l2.66-2.29c3-1.76,3.83-2.27,2.36-1.51-2.1,1.07,3.75-1.2,1.24-.53-1.13.3-2.21.78-3.35,1,2-.46-1.77.21-2.2.26-.18,0-3.76.36-2.55.31-6,.25-12.31-1.17-18.19-2.33-8.72-1.74-19.82,6-24.48,12.83-4,5.88-6.22,14.48,2.9,16.29Z"/><path class="a" d="M156.12,128.26a51,51,0,0,0,5.54-7.12c.49-.78,1-1.53,1.52-2.29q1.55-2-1.57,1.85-17.64,8.94-10.55,6.76l-18.21-4.3a29.76,29.76,0,0,1-.43,6l.62-3.09a21.45,21.45,0,0,1-.94,3.36c-.2.52-1,2.18.09.07s0-.18-.32.22l33.44-9.94a8.75,8.75,0,0,1-1.07-2.22l.65,2.71a14.49,14.49,0,0,1-.12-5.17c.41-3.15-3-5.27-5.48-5.9-3.88-1-9.16.18-12.73,1.6-7.71,3-17.12,8.9-18.28,17.91a15.27,15.27,0,0,0,1.84,10.09c3.16,4.87,10.62,3.63,15.21,2.29a35.39,35.39,0,0,0,18.23-12.23,30.9,30.9,0,0,0,5.78-19.34c-.08-3.13-2.53-5.32-5.48-5.9-4.38-.86-8.55.36-12.72,1.59-7.64,2.26-14.43,7.73-19.25,14A33.07,33.07,0,0,0,130,122c-1,1.51-4.06,5,.07.49-2.23,2.44-5.33,6-5.21,9.69.1,3.13,2.51,5.32,5.48,5.9A23.39,23.39,0,0,0,143,136.49c4.71-1.87,9.63-4.45,13.08-8.23Z"/><path class="a" d="M142.42,42.4A82.53,82.53,0,0,0,155.2,60.52C160.51,66.44,168,73,176.13,74.43c10.22,1.81,21.8-2.49,24.46-13.68,2.26-9.5-2.53-22.82-13.51-24.76-4.33-.77,3.41,2.46.76.62a21.42,21.42,0,0,0-2.5-1.68q3.79,3.1,1.43,1c-.42-.4-.84-.8-1.25-1.22-1-1-1.94-2-2.85-3.07-.57-.66-1.5-2.43-2.3-2.81,1.83,2.51,2.14,2.92.93,1.25-.43-.61-.85-1.23-1.26-1.85a50.91,50.91,0,0,1-3.27-5.63c-4.58-9.33-18.22-13-26.94-7.5-9.53,6.06-12.32,17.28-7.41,27.28Z"/><path class="a" d="M18.75,135.17c5.27,5.25,11.13,11,17.83,14.36,3,1.51,6.39.07,8.55-2.17,2.83-2.94,4.47-8.13,4.91-12,.57-5.06.47-10.58-1.39-15.39-1.37-3.55-3.22-7.28-6.81-9.07a27.21,27.21,0,0,1-3.64-2.25l2.69,2A102.37,102.37,0,0,1,29.4,100.44c-6.41-6.39-13.25.86-15.11,7.44-2.38,8.37-2.19,20.65,4.46,27.29Z"/><path d="M-1.51,36c6,0,11.85-1.58,17.87-1.69,5.26-.09,10.49,0,15.74-.42,7-.59,16.29-1.48,20.81-7.7.51-.7-.69-2.29-1.26-1.5-4.77,6.55-15,7-22.39,7.51-4.81.33-9.61.13-14.43.27-5.72.17-11.26,1.65-17,1.68-.94,0-.22,1.85.65,1.85Z"/><path d="M.32,53.38c10.82,0,21.75-.77,32.16-3.92,10.15-3.07,17.93-9.78,26.71-15.39.73-.47-.26-2.2-1-1.74C50,37.58,42.59,44.05,33.2,47.18,22.46,50.77,10.92,51.49-.32,51.53c-.9,0-.18,1.86.64,1.85Z"/><path d="M61.24,36.66c-10.49,9.68-16.92,23-27.26,33C26.12,77.19,10.23,90.36-1.36,83.68c-1-.6-2,1.15-.95,1.76,10.42,6,24.35-3.13,32.23-9.66A109.64,109.64,0,0,0,46.74,58c5.19-6.75,9.53-14.21,15.84-20,.92-.85-.39-2.2-1.34-1.33Z"/><path d="M51.31,28.21c7.63-1.7,14.25-6.72,21.56-9.44,4-1.48,7.1-2.86,9.55,1.51.63,1.12,1.33,2.36,1.9,3.51,1.5,3,1.16,4.84-2.08,6.18-3.08,1.26-6.28,2.41-9.4,3.57C71,34.2,61.49,38.23,60,37.09a26.72,26.72,0,0,1-.67-3.2c-.46-1.4-1.2-2.7-1.66-4.1a18.58,18.58,0,0,0-.53-2.11c.54,1.06.52,2.64.78,3.78a18.16,18.16,0,0,0,1.77,4.88c.37.66.86-.42.93-.7a41.91,41.91,0,0,0,.77-4.17c.08-.49.68-5,.77-3.07.09,2.33-.42,4.28,0,6.61.08.44.45.41.71.14,2.72-2.81,2.88-6.45,3.7-10.1l-1,.06c0,2.95-.06,5.89,0,8.84,0,.47.39.77.74.35a11.26,11.26,0,0,0,2.34-4.62c.1-.39.71-3.63.63-3.61-.27.06-.86,3.81-1.08,4.86-.07.33,0,1.41.58,1,3.9-2.69,4.52-8.07,6.74-11.94l-.76-.94c-1.31,4.06-3.68,7.68-3.6,12.06,0,.26.29.82.62.49,2.44-2.45,3.64-5.51,5.26-8.52l-.76-.93c-1,2.5-2.31,4.87-3.39,7.34-.11.25-.32,2.12.41,1.48,2.39-2.07,3.77-4.65,5.55-7.24l-.65-1.12a34.13,34.13,0,0,0-2.29,8.55c0,.19.08,1,.48.8,3.74-2,4.75-6.1,6.48-9.71l-.76-.94c-1.32,3.85-3.7,7.2-2.86,11.39.09.44.46.4.71.14a18.92,18.92,0,0,0,3.43-5.3l-.76-.94a45.08,45.08,0,0,0-1.51,5.58c-.2,1.18.8,1.4,1,.2a39.91,39.91,0,0,1,1.37-5.07c.18-.59-.21-2.07-.76-.94a24.78,24.78,0,0,1-2.18,3.9A6.86,6.86,0,0,1,81.37,26c.45-1.35,1.15-2.62,1.61-4,.2-.6-.23-2.06-.77-.94-.64,1.36-1.2,3.69-2.09,4.73-2.49,2.93-1.77-.53-1.05-2.48.15-.39,0-2-.65-1.13-1.66,2.42-3,5-5.27,7l.41,1.48c1.15-2.63,2.52-5.14,3.59-7.8.25-.62-.19-2-.77-.94s-1.14,2.64-1.87,3.72c-.63.93-1.22,2.53-1.63,1.06-.3-1.1,2.37-5.75,2.75-6.94.19-.6-.14-2-.77-.93-2.07,3.61-2.66,8.84-6.24,11.3l.59,1a82.77,82.77,0,0,0,1.43-8.85c.07-.62-.52-1.19-.86-.41a24,24,0,0,0-1.54,4.94c-.17.81-.29,3.27-1.69,3.14-.1,0,0-4.95,0-5.17,0-1.14-.83-.85-1,.07s-1.21,8-2.59,5.4c-.58-1.1.36-4.55.31-6,0-.67-.57-.69-.86-.17-2,3.51-1.86,7.5-2.84,11.34l.92-.69c-1.67-3-1.92-6.45-2.78-9.72-.11-.4-.45-.44-.71-.14-3.47,4,2.26,9.17,1.79,13.48,0,.3.06.89.48.81a94.88,94.88,0,0,0,24.37-7.93c4.46-2.27,3.85-5.22,1.52-9-1.18-1.94-1.83-5.31-3.83-6.52-2.15-1.29-5.17,0-7.25.74-7.74,2.71-14.69,8.07-22.67,9.84-.66.15-.87,2.12-.11,1.95Z"/><path d="M55.82,86.39C61,87.77,68,84.71,72.73,82.76c6.38-2.61,12.19-6.36,18-10.1,9.78-6.37,18.29-13.88,21.82-25.38l-1.16-1.18,0,1.27c0,.54,1.14,2.06,1.16,1l0-1.27c0-.37-.91-2-1.15-1.18-3.66,11.91-12.91,19.36-23,25.87A106.59,106.59,0,0,1,72.6,80.66c-4.77,2-12.27,5.28-17.44,3.91-.48-.13.06,1.66.66,1.82Z"/><path d="M54.8,90.31c6.65,6.06,12.81,7.81,21.83,7.51a49,49,0,0,0,26.44-8.23c13.85-9.6,24.06-28.66,16.09-45-.45-.92-2.14.15-1.68,1.09,7.78,16-2.85,34.73-16.64,43.52-7.53,4.8-16.4,6.88-25.27,7-8.06.08-13.45-1.84-19.38-7.25-.74-.67-2.21.66-1.39,1.41Z"/><path d="M76.39,100.64c13.83,9.08,30.8,13.78,42-1.69,5-6.94,7.33-15.13,7.88-23.6a35.2,35.2,0,0,0-.83-11.8c-1.36-5-4.07-9.46-6-14.22-.19-.49-.66,1.24-.49,1.68,1.37,3.47,3.11,6.76,4.55,10.21,2.25,5.43,2.58,11,1.92,16.83-1.06,9.4-5.14,19.25-12.86,25.15-11.33,8.65-25.39,2.4-35.82-4.45-.34-.23-.78,1.63-.39,1.89Z"/><path d="M111.16,107.1c14-3.36,24.72-14.14,23.12-29.22-.69-6.45-3.69-27.72-13.85-25.95-.72.13-.36,2.1.36,2,9.23-1.61,12,18.55,12.49,24.67,1.2,14.06-9.88,23.53-22.48,26.56-.72.18-.34,2.14.36,2Z"/><path d="M130.53,94c8.2-7.14,14.09-16,11.24-27.26s-11.62-18.9-23.2-19.31c-.82,0-1.45,1.85-.5,1.89a23.06,23.06,0,0,1,21.11,14.83C143.85,75.7,138.7,85,130,92.58c-.69.6-.41,2.25.58,1.38Z"/><path d="M113.41,49.43c.19-5.23-2.26-10.17-1.71-15.39l-.74.47c3.68,2.73,4.06,8.43,4.05,12.64l1-.39c-.63-1.42-3.39-11.85-.84-11.68,1.45.09,1.57,4.81,1.59,5.75.06,1.84.12,4.55-1.28,6l.84.24a25.63,25.63,0,0,1-1.7-5.19c-.21-1-.7-2.53-.4-3.56l.13-1.12c1-.21,1.49.33,1.34,1.63.22,1.24.05,5.73-1.4,5.17-1.79-.69-1.27-6.62-.87-7.72l-.93-.07a10.82,10.82,0,0,1,1.15,6.44c-.06.42-.58,3.29-1.19,3s-.77-2.56-.83-3c-.21-1.52-.21-5,1.55-2.12a13.58,13.58,0,0,1,1.27,4.61l1-.66a25.92,25.92,0,0,1-1.31-2.64c-.53-1.19-1.19.39-.85,1.14a26,26,0,0,0,1.3,2.65c.51.88,1.14.07,1-.66-.56-3-1.05-6.34-3.94-8a.44.44,0,0,0-.68.26c-1.41,3.41-.59,7.83,1.42,10.83.15.23.55.34.72.06a13.53,13.53,0,0,0,.22-13.1c-.21-.42-.73-.63-.94-.07a12.42,12.42,0,0,0,1.92,11.41.45.45,0,0,0,.73.05c2.75-3.22,2.72-9.22-.39-12.2a.39.39,0,0,0-.58.09c-2.57,3.86-.32,10.08,1.38,13.87.17.37.54.55.85.24,2-2,1.77-5.94,1.59-8.44-.13-1.69-.43-6.35-2.7-6.85-4.62-1-.83,13,0,14.77.35.78,1,.27,1-.39,0-5-.55-11.56-4.9-14.79-.36-.27-.71.1-.74.47-.58,5.44,1.85,10.47,1.66,15.88,0,1,1.14,1.69,1.19.36Z"/><path d="M58.87,90.2c-1.44-.88-3.69-2.75-2.53-4.63l-1,.74c2,.78,2.43,3.26,2.59,5.15l1.36-1.3a6.63,6.63,0,0,1-3-5.17l-1.08,1.35c2.36-.12,3.74,2.2,4.11,4.26l1.36-1.3c-.49-.33-.9-.63-.91-1.26,0-.4.14-.83.16-1.24s-.54-.3-.77-.16a1.6,1.6,0,0,0-.71,1.19c-.05,1.4-.37,2.13,1,3,.55.38,1.45-.8,1.36-1.29-.46-2.56-2-5-4.91-4.9A1.5,1.5,0,0,0,54.78,86,7.34,7.34,0,0,0,58,91.73c.58.39,1.41-.81,1.37-1.3-.19-2.26-.74-4.89-3.08-5.8-.39-.15-.9.5-1,.74-1.6,2.61.06,5,2.38,6.39.62.39,1.82-1.21,1.25-1.56Z"/><path d="M81.81,98.47a12.34,12.34,0,0,0-3.74-3.19c-1-.55-1.85,1.22-.9,1.79a9.39,9.39,0,0,1,3.68,4.54l1-1.54a2.9,2.9,0,0,1-2.42-1.9l-.55,1.48c.69-.29,1.34-.65,2.05-.89,1-.36.77-2.21-.43-1.8-.71.24-1.37.6-2.06.89a1.12,1.12,0,0,0-.55,1.48,4.43,4.43,0,0,0,3.5,2.67c.83.14,1.28-.89,1-1.55a10.83,10.83,0,0,0-4.32-5.17l-.9,1.79A10.89,10.89,0,0,1,80.54,100c.69.9,1.92-.68,1.27-1.53Z"/><path d="M121.08,83.64c2.49-1.26,4.75-3.25,7.61-3.57l-.17-1.61c-2,3.08-5.12,5.2-7.76,7.7-.52.49-.59,2.39.35,1.61,1.88-1.54,3.74-3.1,5.64-4.61l-.74-1c-1.13,2.69-4.23,4.14-6,6.33-.4.47-.36,2.23.5,1.45,1.66-1.51,3.35-3,5.07-4.43l-.81-.74c-.33,2-2,3.4-3.67,4.38-.63.38-.82,2.33,0,1.83,2.39-1.44,4.45-3.5,4.91-6.34.09-.51-.23-1.23-.8-.74-1.72,1.45-3.41,2.92-5.07,4.43l.5,1.45c2.15-2.59,5.18-4,6.53-7.23.21-.53-.06-1.55-.75-1-1.9,1.51-3.76,3.07-5.64,4.61l.35,1.61c2.75-2.6,6-4.81,8.07-8,.21-.32.65-1.7-.17-1.61-3,.33-5.33,2.34-7.95,3.67-.66.34-.88,2.29,0,1.83Z"/><path d="M100.2,85.9A58.54,58.54,0,0,1,106.77,80L106,78.79c-.65,3.57-5,5.93-7.4,8.31-.49.49-.24,2.44.45,1.77,2.63-2.58,5.6-4.78,7.89-7.69.33-.43.23-2.22-.58-1.62-2.58,2-4.95,3.93-5.5,7.29,0,.29,0,1.57.61,1.27a18.31,18.31,0,0,0,2.38-1.3c.59-.39.4-2.32-.45-1.77a15.63,15.63,0,0,1-2.09,1.13l.61,1.28c.47-2.87,2.71-4.49,4.89-6.13l-.57-1.62c-2.2,2.8-5.11,4.92-7.64,7.39l.45,1.77c2.81-2.8,7.23-5.26,8-9.47.07-.4-.07-1.72-.75-1.19a58.73,58.73,0,0,0-6.58,5.93c-.48.5-.2,2.45.45,1.76Z"/><path d="M104.75,98.64c1.69-1.7,3.36-4.22,6-4.43l-.09-1.75c-1.29,1.67-2.59,3.34-4,4.9-.46.5-.39,2.4.38,1.56A26.87,26.87,0,0,1,110.11,96a1.49,1.49,0,0,0,.53-1.27c0-.29-.24-.84-.62-.54a28.37,28.37,0,0,0-3.41,3.16l.38,1.56c1.42-1.56,2.71-3.23,4-4.9.25-.32.77-1.82-.09-1.75-2.83.23-4.7,3-6.54,4.81-.49.49-.43,2.37.38,1.56Z"/><path d="M128,65.22a15,15,0,0,1,4.46-4.48l-.9-1.75a67.59,67.59,0,0,1-5.41,9.46c-.25.36.59,2,.89,1.75a36.07,36.07,0,0,0,2.49-2.61c.53-.57,1.12-1.08,1.65-1.64s.84-.69.51-1.67c.26.77,1.27,1.51.83.21-.23-.71-.58-1.77-1.37-1.3a13.69,13.69,0,0,0-2.19,2.29c-.92,1-1.74,2-2.74,2.9l.89,1.75a67.65,67.65,0,0,0,5.42-9.46c.15-.32-.46-2-.9-1.75A15.44,15.44,0,0,0,127,63.54c-.3.46.71,2.08,1,1.68Z"/><path d="M88.65,82.38A5.7,5.7,0,0,1,92.34,79l-.31-1c-1.23,2-2.92,3.73-3.59,6.08-.22.76.49,1,1,.43,1.23-1.39,2.08-3.32,3.51-4.5.77-.65.46-1.94-.56-1.09-1.45,1.22-2.26,3.1-3.51,4.51l1,.43c.61-2.14,2.27-3.74,3.39-5.63.15-.25.3-1.15-.31-1a8.53,8.53,0,0,0-5.46,4.85c-.53,1.21.79,1.17,1.2.23Z"/><path d="M178,59.74c-5.51,2-11.73-6.72-14.61-10.26-3.29-4-6.77-8-9.78-12.26a38.54,38.54,0,0,1-2.8-4.48c-1.39-2.66-2.09-4.15-.6-7,1.23-2.35,1.14-2.54,3.42-2.05a13.23,13.23,0,0,1,3,1.2c1.52.74,2.91,1.7,4.42,2.46a28.16,28.16,0,0,0,23.78.84c.69-.31.77-2.28,0-1.95-6.7,3-14.09,2.71-20.94.2-3.67-1.35-7.34-5-11.43-5-6.49,0-4.74,8.48-3,12,3.07,6.32,8.27,11.67,12.66,17.11,3.15,3.9,9.72,13.28,15.8,11,.71-.26.82-2.24,0-1.95Z"/><path d="M150.39,25.46a2.19,2.19,0,0,1-.22-2.71l-.94.44c1.92.74-.45,3.55-1.47,4.09L149,28.43a8.34,8.34,0,0,1,3.65-5.2l-1.23-.89c0,1.68-1.38,3.14-2.69,4l1.19,1.15c.42-1.53,1.23-3,3-2.77l-.77-1.28A4.77,4.77,0,0,1,149,27.6l1,1.24a3.42,3.42,0,0,1,.66-1.09c.6-.95-.71-2.12-1.41-1a4,4,0,0,0-.83,1.57c-.11.56.24,1.5,1,1.24A6.59,6.59,0,0,0,153.7,24c.07-.58-.11-1.2-.78-1.28-2.6-.3-4,2-4.63,4.21-.18.68.46,1.64,1.19,1.15A7.33,7.33,0,0,0,153,22.37c0-.65-.58-1.27-1.23-.89a10.43,10.43,0,0,0-4.42,6.39c-.2.75.44,1.55,1.19,1.15,2.49-1.32,4.73-6.37,1.14-7.75a.77.77,0,0,0-.93.45,4.46,4.46,0,0,0,.76,5.46c.86.81,1.61-1,.86-1.72Z"/><path d="M151.09,28.13c8.77,5.86,21.33,23.94,33.54,16.56.73-.45.28-2.38-.55-1.89-11.61,7-24-10.8-32.49-16.46-.91-.6-1.2,1.32-.5,1.79Z"/><path d="M143.31,126.61c-.85-5.28,3.11-13,4.69-18a33,33,0,0,0,1.77-8.09c.2-3.88-.74-7.69.44-11.53l-1.13.82c2.37,1.69,3.52,5.74,2.76,8.52-.84,3-1-1.48-1-2.54A14.36,14.36,0,0,1,152,89.92l-1.25.71a8.73,8.73,0,0,1,.36,8.09L152.3,98a6.28,6.28,0,0,1-1.05-3.72q1.41-3.75,1.53-.67c.89,1.91.25,4.79-.25,6.68l1-1.1a20,20,0,0,0-2.32,0,1.25,1.25,0,0,0-1,1.68c2.4,4.53,4.67,9.2,5.33,14.34s-1.31,9.56-2.23,14.48c-.24,1.28,1.24.47,1.4-.37,1-5.17,3.06-9.78,2.29-15.12s-3.08-10.15-5.56-14.85l-1,1.68a20.12,20.12,0,0,1,2.33,0c.57,0,.91-.65,1-1.11a16.48,16.48,0,0,0-.5-10.13.47.47,0,0,0-.72-.22c-3.52,2-3.52,6.82-1.63,10,.38.63,1.12-.43,1.25-.71,1.46-3.25,1.62-6.69-.4-9.73-.41-.61-1.12.39-1.25.71a19,19,0,0,0-.51,12c.11.45.64.33.89.09,3.65-3.42,3.05-11-1-13.87-.44-.32-1,.51-1.12.82-1,3.09-.72,6-.65,9.22.14,5.45-1.57,10-3.12,15.13-1.34,4.4-4,9.93-3.23,14.6.15,1,1.49-.47,1.37-1.2Z"/><path d="M30.31,114.55c1,4.73,3.29,9.19,3.19,14.11l.86-.83c-.6-4.25-13.24-18.34-7.86-21.55l-.28-1.3c-1.2,3.31-3.29-2.74-3.29-2.79l-.6,1.62c4,.64,6.31,6.9,7.77,10.21l.64-1.74c-2.33-2.38-4.58-4.7-5-8.17l-.7,1.57c.53.49,6.07,7.07,3.74,7.33-1.85.21-3.55-5.16-3.88-6.4l-.7,1.57c2,1.78,3.08,4,4.32,6.36l.54-1.8a1.65,1.65,0,0,1-.76-.1l-.46,1.91c7.29-.23,14,6,19.6,9.92.52.36,1-1.53.57-1.86-5.64-3.9-12.5-10.26-19.81-10-.55,0-.93,1.65-.46,1.92a1.74,1.74,0,0,0,1,.21c.61,0,.75-1.4.54-1.79-1.3-2.44-2.4-4.74-4.47-6.6-.52-.46-.77,1.33-.7,1.57.49,1.89,3,9.28,5.83,6.3s-2.39-8.6-4.29-10.37c-.53-.49-.73,1.37-.7,1.57.48,3.69,2.77,6.17,5.3,8.75.48.49.78-1.45.64-1.74-1.46-3.31-3.94-9.89-8.13-10.55-.59-.1-.65,1.29-.6,1.62.47,3.2,3.3,6.38,4.82,2.18.05-.14.21-1.6-.28-1.31-8.82,5.26,6.05,18.87,6.9,24.77.14,1,.85-.47.86-.83.1-5.3-2.22-9.9-3.25-15-.2-1-.94.76-.83,1.28Z"/><path d="M61.45,34.7a29.8,29.8,0,0,1-.28-9.28l-1.62.82c.88.7,5.15,4.47,4.5,5.31q-5.5-.06-3.72-4.35A5,5,0,0,1,64,24.85a3.81,3.81,0,0,1,3.77,1.48L67.6,30Q63.49,29.92,66,27.8a16,16,0,0,1,2.1-1.94c.52-.42,2.37-2.16,3.07-2.11.87.06.87.54,1,1.93C72.48,28,69.69,39,66.27,33c-1.51-2.65,1-6.27,2.67-8.09,1.51-1.61,7.92-5.61,7.5-.37-.23,2.77-3.72,5.89-5.85,7.28-.73.47-2.32,1.55-3.24,1.37-4.15-.81-1.11-4.59.17-6,.72-.76,6.26-5.64,7.79-4.55.5.36-.25,3.81-.37,4.12-1.21,3-6.36,4.19-4.74-.08.47-1.24,7.78-8.48,9-7.82-.53-.28-.28,4.87-.3,5.12a11.75,11.75,0,0,1-.58,3.06Q70,30.37,72,23.73c.8-3.42,3.55-5.57,6.44-2.78,1.07,1.05,3.13,6.72-.37,6.53-1-.05-2.64-4-2.28-4.67,2.41-4.7,5.16,2.84,5.24,4.22l1.85-.42c-.32-1.28-.62-2.55-.86-3.85s-2-.43-1.82.66c.48,2.7,2,3.95,4.6,4.51a1.06,1.06,0,0,0,1.07-.55,7.09,7.09,0,0,0,.75-2.29c.26-1.27-1.56-1.45-1.79-.3l-2.81-2-1.82.66c.24,1.3.54,2.56.86,3.85.26,1.07,1.9.56,1.84-.42-.2-3.29-3.29-9.84-7.49-6.9-3.28,2.29-.66,7.64,1.87,9.4a1,1,0,0,0,1.12,0c9.08-5.38-2.86-17.23-7.37-8.3-1.94,3.84-1.34,12.56,5,10.78,5.56-1.56,5.48-10.22,3.79-14.42-.2-.49-.91-.47-1.27-.23C75.5,19.29,65.44,25.15,68.18,30c1.3,2.32,4.61,2.44,6.44.84C77,28.75,77.69,24.33,77,21.41a.84.84,0,0,0-.88-.62c-4.55.09-14.89,6.56-12.35,12.21,3,6.56,12.06-3,13.65-6,3.1-6-2.64-8.56-7.41-5.26-3.55,2.45-10,12-2.92,14.48s8.48-10.72,5.39-14.49c-.28-.34-.8-.21-1.12,0-2.89,1.51-10.6,6.23-8.06,10.49C66,36.71,70.6,30,70,26.85c-1-5.11-7.83-4.74-10.59-1.39-3.88,4.71,1.14,10.93,6.58,9a1.09,1.09,0,0,0,.71-1.21,16.13,16.13,0,0,0-5.79-8.49,1,1,0,0,0-1.62.82,31.31,31.31,0,0,0,.32,9.76c.24,1.21,2,.43,1.83-.66Z"/></svg>