<svg xmlns="http://www.w3.org/2000/svg" viewBox="0 0 141.73 166.47"><defs><style>.a{fill:#efdf15;}</style></defs><title>lady1</title><path class="a" d="M37.15,86.31c-.51-.81-.38-.44.4,1.1-.44-1.08-.43-.77,0,.92-.1-1.91.07,2.92.07,2.65,0,3.72-.38,7.44-.45,11.17-.13,6.94,4.68,14.41,11.82,15.65,7,1.21,12.48-4.56,12.6-11.29.1-5.29.67-10.54.27-15.83a41.86,41.86,0,0,0-7.11-20.61c-3.61-5.54-12.26-7.44-17.28-2.85-5.66,5.17-4,13.44-.34,19.09Z"/><path class="a" d="M80.34,75.76c.09,11.34-4.73,22.26,3.34,32,3.72,4.5,21.17-16.39,15.37-23.41-5.48-6.62-.73-18.14-.79-25.77-.05-6.22-6.7-2.16-9.06.07-4.28,4-8.91,10.9-8.86,17.09Z"/><path class="a" d="M55.7,40.49a15.21,15.21,0,0,1-5.84,5.37c1.24-.61-.31.09-.78.18,1.3-.24,2.57-.52,3.88-.69,3-.38,6.06-.5,9.1-.58,5-.12,9.58.12,15.52-.08C83.75,44.48,90,35.83,90.7,30.36c1.45-11.95-6.39-17.69-17.21-20-11.28-2.4-22.2,0-29,9.92-3,4.32-5.35,13.21.09,16.71,5.65,3.64,12.35-2.59,15.26-6.82a13.1,13.1,0,0,1-5.42,5c1.06-.42.82-.37-.72.16,1.1-.14,2.16-.37,3.27-.44s1.2,0,.17,0c.64,0,1.28.08,1.92.14,1.31.19,2.61.34,3.9.61,3.2.68,3.18.54,5.53,1.91a14.51,14.51,0,0,1,1.34.86c.86.7.8.6-.16-.31a6.33,6.33,0,0,1,.74,1,6.28,6.28,0,0,1-.61-5.49L82.92,19.37a10.63,10.63,0,0,1-1.78,0c.8.12,1.51,0,.26,0l-5.34,0c-4.37,0-8.75,0-13.12.25-8.58.51-18.16,2.62-22.59,11-2.46,4.64-5.7,13,.1,16.71,5.27,3.4,12.84-2.28,15.25-6.82Z"/><path class="a" d="M66.39,158.9c-1,1.54.82-1,.86-1.09.52-.67,1.06-1.33,1.59-2A61.6,61.6,0,0,0,73,150c3.26-5.31,4.25-11.23,4.5-17.37l-5.28,13.54a12.17,12.17,0,0,0,3.12-2.73l-7.42.07c.65.89.55.73-.31-.47.26.4.51.81.75,1.22.33.58.8,2.19,1.31,2.56-.69-1.74-.82-2-.38-.86.16.43.3.87.42,1.3q.54,2-.32-1.43c.14,1,.14.81,0-.66s-.11-1.7-.1-.71A16.13,16.13,0,0,1,70.85,137q1.7-2.25.71-1.07c1.2-.88,1.41-1.09.61-.63-.76.29-.63.26.4-.09a9.17,9.17,0,0,1-1.28,0,8.45,8.45,0,0,1-2.17-.37c-5.75-1.76-8.43,5.22-9,9.86A24.41,24.41,0,0,0,61,155.48c.76,2.13,2,5.65,4.45,6.39C69.26,163,73,164,76.74,162c5.18-2.71,6.8-10.11,7.12-15.31.62-10.06-2.76-19.47-8.73-27.46a4.64,4.64,0,0,0-7.42.06c1.07-.64,1.29-.75.67-.33a17.75,17.75,0,0,0-2,1.64c-1.91,2.06-3,5.7-3.3,8.39l-.23,3.73q1.19-6.27.41-3.6c-.26.82-.19.63.2-.58q-.84,1.41-.27.6a108.44,108.44,0,0,0-7.33,10.05c-3.38,5.27-2.76,14.5.17,19.8s7.36,4.65,10.41-.09Z"/><path d="M43.52,53.63C48,63,55.84,86.21,70.58,79.77c7.06-3.08,11-12.72,12.74-19.71,1.42-5.85,3.64-13.9,1.31-19.76-.27-.69-.84,1.5-.61,2.08,1.6,4,0,9.63-.8,13.73A43.46,43.46,0,0,1,80,66.31C77,72.66,71.67,79.77,63.71,78c-11-2.43-15.36-17.61-19.58-26.45-.33-.7-.88,1.51-.61,2.08Z"/><path d="M57.11,76.44c-.54,9.82,2.12,19.44,1.69,29.25,0,.7,1.54,2.08,1.55,1.79.43-9.81-2.22-19.43-1.68-29.24,0-.7-1.54-2.09-1.56-1.8Z"/><path d="M76.42,75.55c-.19,11.56,3,25.66,12.31,33.4,5.83,4.84,13.42,7.08,18.8,12.56,6,6.09,9.23,15.25,10.55,23.54a1.14,1.14,0,1,0,2.24-.42,52.44,52.44,0,0,0-7.69-20.34c-3.61-5.48-8.7-8.84-14.33-12-6.76-3.83-11.89-7.61-15.24-14.83a49.92,49.92,0,0,1-4.33-21.68c0-1.49-2.28-1.79-2.31-.2Z"/><path d="M59,104.64c-2.52,4.88-8.91,7.37-12.83,11a42,42,0,0,0-7.62,9.63,51.49,51.49,0,0,0-7.32,25.84c0,1.34,1.49-.45,1.51-1.21.24-11.14,4-22.36,11.74-30.61,4.8-5.14,12.31-7.7,15.62-14.09.67-1.31-.43-1.82-1.1-.52Z"/><path d="M50.22,43.57a7.47,7.47,0,0,0,3.63,1,1.51,1.51,0,0,0,1.37-1.06c.41-1.48.81-2.89,1.09-4.4l-2.17.55c2.3,5.19,5,3.46,8.2,0l-1.77.25c3.41,3.73,7.25,3,8.43-2l-2,.77c3.21,3,6.38,2.33,8-1.8l-2.06.77A17,17,0,0,0,74.93,40c.58.62,1.6.15,1.94-.5.94-1.81,5.76-.34,7.72-1.59,1.3-.82.14-2.26-1.13-1.45s-3.94-.76-5.58-.35-2.26,1.55-3,2.89l2-.5a17.06,17.06,0,0,1-2.08-2.41c-.57-.88-1.81.15-2.05.77l-3.85.26a1.33,1.33,0,0,0-2.06.77l-4.32.5c-.51-.56-1.33-.22-1.77.25q-1.5,2.52-4.43,0c-.45-1-2-.35-2.17.55-.27,1.5-.68,2.92-1.09,4.39l1.37-1.06-2.63-.72c-1-.56-2.71,1.22-1.57,1.84Z"/><path d="M39,38.92c4-13.28,11.1-22.83,25.58-24.3,5.65-.57,11.23.42,15.55,4.36,6.3,5.75,4.76,13.51,6.74,20.92,0,.12.15.65.38.6,2.85-.65,3.1,0,3.66,3S91.35,47,89,48.67a15.16,15.16,0,0,1-6.43,2.38c-.65.11-.43,2.54.1,2.46,6-1,12.41-5.57,9.8-12.42a5.53,5.53,0,0,0-3-3.2c-1.7-1-.35.53-1.92-1.06s-.94-4.1-1.08-6.1c-.32-4.55-1.33-8.38-4.28-12C75.81,10.93,64.83,10.61,55.86,14,45.7,17.79,41.25,27.51,38.29,37.21c-.16.53.32,2.85.66,1.71Z"/><path d="M40.2,52.11c-4-.55-5.79,4.26-5.52,7.5a6.33,6.33,0,0,0,2.54,4.74c2,1.39,4.51.81,6.64,0,.86-.34-.35-2.46-1.3-2.08-2.94,1.15-6.36,1.13-6.11-2.8.14-2.18,1.57-5.53,4.26-5.16,1.24.17.39-2.06-.51-2.18Z"/><path d="M40.77,65.73c3.12,13.78-1.43,28,1.83,41.74.34,1.43,1.56,1.13,1.22-.31C40.57,93.41,45.12,79.23,42,65.42c-.33-1.44-1.55-1.12-1.22.31Z"/><path d="M88.44,54.52c-.39,9.33.22,18.65.44,28,.22,9.5,3,18.54,3.69,28,0,.63,1.3-1.18,1.26-1.73-.69-9.45-3.47-18.48-3.69-28-.22-9.32-.83-18.64-.44-28,0-.57-1.24,1.18-1.26,1.73Z"/><path d="M60.87,62.39c3.15,1.68,6.92,1.24,9-1.88.87-1.34-1.17-2-1.9-.87-1.39,2.13-3.64,2-5.7.87-1.08-.57-2.66,1.2-1.37,1.88Z"/><path d="M62.23,48.37c-2.78,2.17-5.71,6-3.21,9.46.09.12.22.18.34.08a18.36,18.36,0,0,0,3.26-2.62L62,54.5c1.24,4.83,5.19.17,8.33,1.34.16.06.24,0,.31-.16,1-2.11,1.16-4.9-.57-6.71-1.88-2-5.25-2.22-7.74-1.58-.65.17-.24,2.58.28,2.44a9.43,9.43,0,0,1,4.06-.17c.57.11,6,2.27,3.39,3.55-.4.2-1.06,0-1.55,0a9.2,9.2,0,0,0-2,.52c-.84.28-3.38,1.52-3.77,0,0-.11-.32-1.16-.61-.8a8.52,8.52,0,0,1-1.78,1.56c-.86.62-1.39.91-.84-.37a10.21,10.21,0,0,1,3.21-3.46c.52-.4,0-2.69-.49-2.32Z"/><path d="M51.67,53.46c1.14,0,1.78-2.36.51-2.36s-1.78,2.36-.51,2.36Z"/><path d="M78.79,47.44h-.46c-1,0-1.64,2.34-.53,2.34h.46c.95,0,1.63-2.34.53-2.34Z"/><path d="M53.69,147.35c2.26-6.54,8.11-10.72,10.78-17,1.73-4.09,1.7-12.38,7.1-13.1,6.22-.82,6.23,8.91,7.23,13s3.17,7.86,3.75,12.11c.34,2.54.4,4.79,1.59,7.11.52,1,2.09-.85,1.61-1.79-1.24-2.43-1-5.15-1.51-7.73A47.25,47.25,0,0,0,82,133.2a74.18,74.18,0,0,1-2.45-9.82c-.94-4.41-3.26-10.12-8.87-8.2-4.5,1.53-5.7,7.13-6.78,11.16-2.16,8-9.26,13-11.94,20.73-.53,1.53,1.27,1.54,1.7.28Z"/><path d="M78.53,125.06c2.59-1.75,5.76-2,8.8-2.06l1-2c-3.2,1-6.87,1.88-8.86,4.86-.15.23-.79,1.25-.15,1.37a40.51,40.51,0,0,1,10.73,3.16l1.33-2c-3.9-.89-7.93-.82-11.81-1.86-.71-.19-2,1.84-1.18,2.06,3.87,1,7.91,1,11.8,1.87.63.14,2-1.7,1.33-2a41.82,41.82,0,0,0-11-3.27l-.15,1.37c1.45-2.19,4.8-2.73,7.15-3.5.44-.14,1.86-2.07,1-2-3.57.1-7,.53-10,2.57-.7.47-1.3,2.45,0,1.56Z"/><path d="M68.38,123.35c.5,1.43,1.61,3.09,3.25,3.29,2,.24,2.76-1.94,2.89-3.53s-2-2-2.09-.41a2.61,2.61,0,0,1-.36,1.4c-.13.16-.19.15-.4.09-.64-.19-1.12-1.06-1.35-1.73-.52-1.51-2.42-.51-1.94.89Z"/><path d="M67.7,116.21c-.44,0-.86,0-1.3-.08l.92.7a9.18,9.18,0,0,1-1.22-6.06l-1.91.87a6.09,6.09,0,0,1,2.72,3.4c.4,1.16,2.14.72,2.26-.39a27.18,27.18,0,0,1,1.46-6l-1.82.57c1.55,1,1.45,3,1.68,4.59s2.49,1.07,2.33-.4c-.14-1.31-.23-2.87.9-3.78l-1.78-.44c.61,2,.39,4.08.37,6.13,0,1.57,2.32,1,2.34-.4a21.88,21.88,0,0,0-.51-6.71,1.14,1.14,0,0,0-1.78-.44c-1.86,1.51-2.11,3.79-1.87,6l2.33-.4c-.31-2.24-.37-4.83-2.52-6.14a1.23,1.23,0,0,0-1.82.57,29.59,29.59,0,0,0-1.63,6.61l2.26-.39a8,8,0,0,0-3.43-4.36,1.24,1.24,0,0,0-1.9.87,10.09,10.09,0,0,0,.55,5.54c.71,1.88,1.06,2.37,3,2.49,1.46.09,1.91-2.29.37-2.38Z"/><path d="M83.78,128.37c-1,2.67-.22,5.51.57,8.13.08.23.94,2,1.33,1.64,2.26-2,2-5.36,1.22-8-.07-.22-1.3-2.07-1.39-1.55a9.73,9.73,0,0,0,.67,5.76c.08.19,1.09,1.85,1.3,1.31a6,6,0,0,0-1.22-6.56c-1.06-1.14-.31.93.11,1.39.66.7,0,2.51-.3,3.27l1.3,1.31a7.64,7.64,0,0,1-.44-4.58l-1.39-1.55c.71,2.39.87,5.33-1.15,7.12l1.32,1.64c-.73-2.42-1.46-4.94-.52-7.41.23-.6-1.26-2.3-1.41-1.91Z"/><path d="M59.32,90.51c3.36,2.56,7.53,3.74,9.11,8,.07.19.65,1.22.84.54.8-3,1-6.31,4-7.88,2.09-1.06,3.93-1.19,5.66-3,.47-.48-.41-2.67-.86-2.22C76,88.16,73,88,71,90c-1.83,1.86-2,4.77-2.69,7.16l.83.53c-1.87-5.07-5.87-6.26-9.9-9.33-.67-.52-.38,1.78.12,2.16Z"/><path d="M5.16,24a34.75,34.75,0,0,0,9.92-7.92c1-1.19-1-.6-1.52,0A29.47,29.47,0,0,1,5.13,22.8c-1,.49-1.45,1.95,0,1.18Z"/><path d="M9.32,38a12.33,12.33,0,0,1,2.19-1.81c.91-.69,1.82-1.37,2.68-2.12.33-.29.48-.75,0-.92s-1.23.31-1.58.61c-1.68,1.47-3.81,2.58-5.22,4.33-.32.41,0,.73.41.74A2.14,2.14,0,0,0,9.32,38Z"/><path d="M25.6,23.09A36.64,36.64,0,0,0,35,17c1-.85.2-2.85-1-1.82a34.27,34.27,0,0,1-8.93,5.8c-1.17.47-.88,2.73.55,2.15Z"/><path d="M10.14,53c2.15-2.14,4.48-4.69,7.43-5.67.54-.18,2.29-1.55.83-1.07-4,1.32-7.09,4.29-10,7.18-.79.78,1.4-.12,1.73-.44Z"/><path d="M10.37,71.2a38.26,38.26,0,0,1,5.27-4.82c.39-.33.85-1,.56-1.53s-1-.39-1.36-.07a42.25,42.25,0,0,0-5.75,5.27c-1,1.16.31,2.33,1.28,1.15Z"/><path d="M29.29,41.05c1.69-2.47,4.42-3.81,6.42-6,.45-.47-.29-2.63-.6-2.29-2,2.15-4.73,3.5-6.42,6a2.07,2.07,0,0,0,0,1.53c0,.12.38,1.12.61.77Z"/><path d="M25.42,80.79a30.9,30.9,0,0,1,4.8-3.45c1.1-.7.75-2.38-.62-1.51a33.6,33.6,0,0,0-5.29,3.88c-.32.31-.7,1-.3,1.42s1.1,0,1.41-.34Z"/><path d="M15.06,101.15c2.12-2.13,4.13-5,7.21-5.66,1.43-.33,1.24-2.39-.32-2-3.61.83-5.88,3.77-8.37,6.26a1,1,0,1,0,1.48,1.44Z"/><path d="M15.22,124.42c3.74-2.29,8.16-4.28,10.73-8,.66-.94-.39-3-1.25-1.74-2.46,3.51-6.81,5.42-10.37,7.6-1,.59-.31,2.86.89,2.12Z"/><path d="M116.37,57c3.56-2.86,7.35-5.42,10.55-8.72,1-1-.38-3-1.4-2-3.19,3.29-7,5.85-10.55,8.71-1.11.89.24,2.93,1.4,2Z"/><path d="M111.1,38a24.52,24.52,0,0,0,3-2.49c.3-.29.84-1,.61-1.44s-.89,0-1.12.2a21.18,21.18,0,0,1-2.52,2.11,1.9,1.9,0,0,0-.88,1.44c0,.55.6.4.92.18Z"/><path d="M98.93,28.5c3.12-2,5.55-4.83,8.26-7.34,1-1-.25-3-1.38-2-2.71,2.51-5.14,5.32-8.26,7.34-1.2.78.1,2.8,1.38,2Z"/><path d="M126.82,17.85a20.9,20.9,0,0,0,5.74-4.31c.32-.35.8-1,.49-1.52s-1-.2-1.25.12a19.18,19.18,0,0,1-5.27,3.94c-1,.51-1.13,2.52.29,1.77Z"/><path d="M96,68.43c2.42-2.1,4.55-4.68,7.63-5.82.87-.32.46-2.71-.61-2.32-3.21,1.19-5.45,3.91-8,6.1-.69.61,0,2.89.94,2Z"/><path d="M101,89.16a20.47,20.47,0,0,1,8.59-5.42c.72-.22.08-2.59-.61-2.38a21.26,21.26,0,0,0-8.83,5.58c-.51.53.34,2.75.85,2.22Z"/><path d="M123.1,75.39a42.24,42.24,0,0,1,4.13-1.84c1.32-.5.21-2.69-1.11-2.18A39.9,39.9,0,0,0,122,73.2c-1.26.64-.15,2.83,1.11,2.19Z"/><path d="M109.44,109.56c2.59-2.76,6.26-4.1,9-6.69.83-.79.08-3.09-.93-2.12-2.87,2.72-6.64,4.15-9.36,7.07-.83.88.26,2.86,1.3,1.74Z"/><path d="M133.69,99.59a19.44,19.44,0,0,1,4.6-5c1.25-.92.05-2.91-1.22-2a23,23,0,0,0-5.49,6c-.86,1.33,1.29,2.33,2.11,1.06Z"/><path d="M126.25,118.38a12.86,12.86,0,0,1,4.58-2.52c1.14-.33,1.19-2.78-.06-2.42a15.57,15.57,0,0,0-5.51,3c-.93.77-.19,2.92,1,1.95Z"/><path d="M15.17,147.08a6.33,6.33,0,0,1,2.82-2c.85-.3,1.19-2.66,0-2.24a8.33,8.33,0,0,0-3.6,2.62,1.7,1.7,0,0,0-.31,1.67c.28.51.8.27,1.09-.09Z"/><path d="M126.8,139.26a9.26,9.26,0,0,0,5.47-2.5c.81-.76-.07-3-1.1-2a7.64,7.64,0,0,1-4.61,2.09c-1.18.11-1,2.55.24,2.44Z"/></svg>