<svg xmlns="http://www.w3.org/2000/svg" viewBox="0 0 141.73 173.81"><defs><style>.a{fill:#eb1e41;}.b{fill:#2954cc;}</style></defs><title>land2</title><path class="a" d="M21.79,49.07H33.48c3.76,0,7-.56,10.15-2.81,2.7-1.93,5.35-5.34,6-8.69.59-3.19.4-6.8-1.72-9.47-2-2.49-5.08-4.71-8.39-4.71H27.79c-3.76,0-7,.56-10.15,2.81-2.7,1.93-5.35,5.34-6,8.68s-.39,6.81,1.72,9.48c2,2.49,5.08,4.71,8.4,4.71Z"/><path class="a" d="M87.71,65.91c4.24-.31,9.41-1.2,13.25-.73,4.05.5,9,2.37,13.57,2.79C122,68.66,128,61.2,127.8,54.29c-.17-7.91-6.43-13.34-13.9-14,1.23.11-.73-.2-1-.26-1-.25-1.9-.56-2.86-.82a46,46,0,0,0-8.8-1.6c-4.73-.37-9.48.27-14.2.61-7.39.53-13.44,5.91-13.27,13.69.15,6.9,6.44,14.56,13.91,14Z"/><path class="a" d="M29,122.77c5.73.06,10.55-1.92,15.39-4.79,1.13-.67,2.21-1.45,3.35-2.1-1.35.68-1.28.67.23,0a4,4,0,0,1-2.75.58c0,.1,6.54-.23,7.2-.22,1.38,0,2.88.32,4.24.24-1.47-.27-1.63-.28-.51,0-1.52-.94-1.91-1.1-1.17-.47l-3.08-4.47.14.32c2.69,6.26,9.17,7.37,15.18,4.81,4.8-2,12.82-9.4,10.14-15.64-3.55-8.26-12.85-8.11-20.7-7.85-4.49.15-8.9.42-13.13,2.07A46.9,46.9,0,0,0,36.15,99c-.76.46-1.49,1-2.25,1.43,1.25-.61,1.42-.7.51-.28q-2.37,1,2.69-.54c-6.83-.07-14.07,4.66-16.31,11.22-2.06,6,1.65,11.84,8.2,11.9Z"/><path class="b" d="M170.1,32.5a20.23,20.23,0,0,0,2.54-9.78c0-1.32-.2-2.65-.35-4-.28-2.42-.66-4.8-1.1-7.18a30.59,30.59,0,0,0-2.43-7c-1-2.32-3.84-4.73-6-6a16.55,16.55,0,0,0-10.65-2,16.84,16.84,0,0,0-13.87,12c-1.46,4.6-.92,10.16.65,14.71.39,1.14.88,2.24,1.25,3.39s.73,2.09,1.21,3.23a23,23,0,0,0,3.83,5.81c6.37,7.65,20.53,5.32,24.91-3.21Z"/><path class="b" d="M69.21,144.23c0-.3,0-.59,0-.89a16,16,0,0,0-.29-2.16,7.58,7.58,0,0,0-1.06-3.91,7.68,7.68,0,0,0-2-3.43c-.42-.57-.85-1.13-1.3-1.67a11.51,11.51,0,0,0-5-3.19,11.61,11.61,0,0,0-5.93-1.32l-4.09.55a15.32,15.32,0,0,0-6.79,4l-.09.1-2.43,3.14-1.56,3.71a28.87,28.87,0,0,0-.56,4.22c0,.3,0,.59,0,.89a11.71,11.71,0,0,0,1.34,6,11.53,11.53,0,0,0,3.21,5,11.53,11.53,0,0,0,5,3.21,11.61,11.61,0,0,0,6,1.34l4.13-.55a15.45,15.45,0,0,0,6.85-4l2.43-3.14a15.43,15.43,0,0,0,2.12-7.84Z"/><path class="b" d="M108.71,100.16c8.26,0,16.16-7.26,15.78-15.78S117.56,68.6,108.71,68.6c-8.25,0-16.16,7.26-15.77,15.78s6.93,15.78,15.77,15.78Z"/><path class="b" d="M33,75.34a8.69,8.69,0,0,0,4.47-1,8.7,8.7,0,0,0,3.73-2.4,8.7,8.7,0,0,0,2.4-3.73,8.68,8.68,0,0,0,1-4.46l-.42-3.09a11.51,11.51,0,0,0-3-5.11L38.9,53.73A11.68,11.68,0,0,0,33,52.15a8.68,8.68,0,0,0-4.46,1,8.7,8.7,0,0,0-3.73,2.4,8.7,8.7,0,0,0-2.4,3.73,8.69,8.69,0,0,0-1,4.47l.41,3.08a11.62,11.62,0,0,0,3,5.11l2.34,1.82A11.67,11.67,0,0,0,33,75.34Z"/><path d="M22.85,69.1c-.05-4.39-.4-8.75-.58-13.13-.13-3.21-1.4-9.21,2-10.36,2.93-1,6.42-1.13,9.47-2.08,3.81-1.19,7.54-2.56,11.44-3.43L43.65,39c.73,4.51,1.22,9.06,1.87,13.58.33,2.26.69,4.53,1.17,6.76.54,2.5,1.84,4.35-.9,5.57-3.16,1.4-6.75,1.33-10.11,1.84-5.13.78-9.79,2-15,1.39-1.39-.16-.67,2.13.49,2.27,6.11.73,11.57-1,17.58-1.7,3.77-.44,8.17-.62,11-3.49a1,1,0,0,0,.3-1C47.58,56,47.05,47.44,45.68,39a1.36,1.36,0,0,0-1.51-1.13c-7.69,1.72-14.89,5.49-22.9,5.53a.81.81,0,0,0-.8.82c-.89,8.08.2,16.15.29,24.24,0,1.19,2.11,2.15,2.09.62Z"/><path d="M22.18,42.05c-1.53.36-3.09.75-4.62,1.1l1.3,1.6c-.68-3,2.14-7.41,3.52-9.93s3.38-6.93,6-8.28c3-1.56,7.48,1.76,9.89,3.37,3.33,2.23,7.25,4.94,9.49,8.34l-.16-1.31a23.18,23.18,0,0,0-5.87,1.47c-.52.24.68,2.35,1.35,2.05a22.49,22.49,0,0,1,5.62-1.41c.55-.1,0-1.1-.16-1.31-2.2-3.32-5.59-6-8.76-8.28-2.77-2-8-6.32-11.77-5.39-3.09.75-5.52,6-6.9,8.43-1.68,3-4.6,7.53-3.79,11.16.09.39.73,1.74,1.3,1.6l4.61-1.1c.72-.17-.47-2.25-1.09-2.11Z"/><path d="M33.49,155c-2.65-3.69-1.86-10.5-2.13-14.79-.3-4.59-1.3-9.09-1.73-13.66-.39-4.23-1.21-9.2,4.18-10.53,2.82-.69,5.91-.65,8.8-1.3,4.26-1,8.47-2.1,12.71-3.15,3-.75,6.45-2,9.54-1,5.27,1.62,6.15,8.14,7,12.78,1.06,6,4,13.63,3.22,19.66-.64,5.18-3.26,4.86-7.25,5.32-3.82.43-7.61,1-11.42,1.48s-7.68.46-11.46,1c-4.1.55-7.87,2.13-12.05,2.15-1.1,0-1.38,2.41-.11,2.4,4.2,0,8-1.61,12.06-2.14,4.37-.56,8.81-.61,13.2-1.18,3.64-.47,7.27-1,10.92-1.4,1.86-.21,4.08-.26,5.64-1.48,3.46-2.72,2.31-9,1.69-12.61-1-5.9-2.08-12-3.43-17.83-.84-3.62-2.12-7.76-5.55-9.73-5.1-2.91-12.22.34-17.31,1.62a107,107,0,0,1-12.23,2.76c-2.36.31-5.17,0-7.24,1.36-3.18,2.15-3,6.72-2.83,10.08.3,5.87,1.66,11.61,2,17.47.25,4.52-.29,10.79,2.48,14.64.8,1.11,2-1,1.35-1.85Z"/><path d="M30.41,114.07c-1.3.31-4.11,1.77-5.37,1.53-2.68-.5.84-3.89,2.24-5.46,2.48-2.8,5.56-4.82,8.52-7,4.55-3.42,8.39-7,14.35-5.51a70.5,70.5,0,0,1,13.58,5c2.64,1.27,8.51,3.72,8.72,7.24L73.78,108a30.54,30.54,0,0,1-8.8-.41c-.69-.17-1.89,1.94-1.05,2.14a30.54,30.54,0,0,0,8.8.41c.71,0,1.37-1.16,1.33-1.81-.23-3.93-6.06-6.4-9-7.82A60.5,60.5,0,0,0,49.76,95.1c-6.1-1.06-10.61,4-15.17,7.24-5.53,4-10.67,8.56-12.91,15.19-.12.34-.15.9.38.77,2.57-.66,5.07-1.55,7.65-2.16.68-.15,1.7-2.3.7-2.07Z"/><path d="M48,150.4c-.09-4.84-2.76-9.21-3.09-14.07-.15-2.16.83-2.43,2.75-3.1a27.69,27.69,0,0,1,5.13-1.6c5.81-.74,4.64,14.53,8.19,17.89.9.86,2.3-1.13,1.52-1.87-3.51-3.32-2.81-10.4-4.51-14.77-1.54-4-3.65-4-7.37-2.79-2.79.9-6.78,1.49-7.55,4.84-1.26,5.45,3,11.1,3.05,16.43,0,1.48,1.9.11,1.88-1Z"/><path d="M31.28,68.32c2.07-4.28-.84-8.29-.59-12.66l-.84,1.62a16.16,16.16,0,0,1,4.72-.66c2.18.24,1.83,2,2,3.92a22,22,0,0,0,1.24,6.58c.16.39,1.28-1.48,1-2.16-1.36-3.25-.9-7-1.73-10.37a.32.32,0,0,0-.16-.24,22.53,22.53,0,0,0-6.54.61c-.5.11-.81,1.23-.84,1.62A16.48,16.48,0,0,0,30,61.06c.41,1.86,1.55,4.54.68,6.36-.45.92-.12,2.42.6.9Z"/><path d="M91.87,90.47c-1.15-4.56-1.06-9.34-.86-14,.1-2.33.25-4.66.43-7,.09-1.23-.28-5.55.48-6.3l-1.24-1.38a6.28,6.28,0,0,0,0,1.37c.19,1.61,1.79.65,1.63-.66l0-.06c0-.55-.41-2.2-1.24-1.38-1,1-.8,2-.92,3.36-.26,3.23-.54,6.45-.72,9.69-.32,5.63-.59,11.5.81,17,.4,1.56,2,.66,1.63-.66Z"/><path d="M125.87,59c-6.68,2.63-14.6,1-21.47.17-7.63-.91-15.21-.66-22.88-.34l-.34,1.84c4.67-6.31,10.17-14.4,17.45-17.87,4.8-2.29,9.28,1.25,13,4.21,4.89,3.86,8.92,8.69,13.19,13.2.48.51,1.67-1.57,1.25-2-4.67-4.94-9.09-10.3-14.6-14.34-3.5-2.56-7.17-5.25-11.5-3.53C92.08,43.44,85.91,52.6,81,59.18c-.16.22-1.05,1.87-.35,1.84a156.07,156.07,0,0,1,25.4.65c6.16.74,13,1.85,19-.48.66-.26,1.23-2.38.83-2.23Z"/><path d="M118.42,63.8c.06,3.55,1.07,7.09,1.7,10.56s2.76,11.1.28,14.33-11.51,1.78-15.22,1.86c-4.41.09-9.22-1.12-13.53,0-.52.13-2.32,1.68-1.19,1.39,3.68-1,7.51.14,11.24.14,2.65,0,5.32-.1,8-.12,3.58,0,8.39.1,11.35-2.36s2.5-7,2.14-10.44c-.58-5.47-2.5-10.9-2.61-16.4,0-.57-2.15.37-2.14,1Z"/><path d="M103.63,90c-1.3-3.3-1.2-7.21-1-10.7s.07-6.15,4.25-5.67c1.39.17,3.13.22,3.69,1.65.35.91,0,2.62,0,3.57A97.12,97.12,0,0,0,111.08,92c.11.95,1.51,1.62,2.13.7l.25-.38a1.2,1.2,0,0,0,.17-1.17c-.13-.25-.25-.5-.37-.75-.66-1.39-2.9-.64-2.22.79.19.6.29.59.28,0l2.13.69a92.93,92.93,0,0,1-.57-12c0-1.66.46-3.92-.1-5.56-1-2.91-5-3.24-7.65-3.21-3.28,0-4.19,2-4.6,5-.65,4.68-.87,10.27.88,14.73.57,1.44,2.8.68,2.22-.79Z"/><path d="M115.16,45c-.77-.83-.12-3.29.18-4.22l-1.46.7c1.15,1,2.37,3.87,1,5.15l1.43.76a11.83,11.83,0,0,1-.4-4.27c.12-1.54-1.84-1.56-2,0a13.84,13.84,0,0,0,.47,4.92c.15.52.81,1.33,1.42.76,2.68-2.48,1.64-7.18-.89-9.38-.63-.54-1.28.14-1.46.71-.56,1.75-1.13,5.09.28,6.61,1,1.14,2.28-.77,1.42-1.7Z"/><path d="M40.86,29.32c-.29-2.32-.79-4.7-.08-7L39.46,24c1.49,1.55,1,4.1.68,6l1.41-1.75c-.58-1.75-.12-3.44.23-5.19.1-.52-.49,0-.59.15a3.28,3.28,0,0,0-.83,1.46c-.36,1.84-.85,3.64-.23,5.48.15.45,1.37-1.48,1.42-1.76.38-2.06.85-4.79-.75-6.46-.29-.3-1.26,1.43-1.32,1.64-.8,2.56-.37,5.06,0,7.67.05.37.74-.47.78-.52.25-.33.7-.93.64-1.38Z"/><path d="M60.82,95.06c-1.18-1.1-1.76-2.71-.58-4l-1.77.31c1.26,2.08.8,4.76.68,7.06l1.08-1.32-.32,0,.55.47c-.32-1-1-2.87.12-3.53l-1.43-.58a20.35,20.35,0,0,1,.1,3.82c-.19,1.52,2,1.1,2.17-.1a22.58,22.58,0,0,0,0-4.35c-.05-.75-.88-.9-1.44-.58a4.05,4.05,0,0,0-2.18,3.82c.06,1.63.46,3.79,2.54,3a1.53,1.53,0,0,0,1.08-1.33c.15-2.76.48-5.53-1-8-.41-.67-1.44-.07-1.77.3a4.62,4.62,0,0,0,.34,6.57c.9.85,2.77-.74,1.89-1.57Z"/><path d="M65.78,68.11a52.56,52.56,0,0,0,3.27,7c.35.53,2.25-1,1.82-1.65a49.93,49.93,0,0,1-3.15-6.75c-.34-.75-2.21.77-1.94,1.39Z"/><path d="M76.48,74.93a5.09,5.09,0,0,0,2.37-4.17c0-1.41-2.14-1.87-2.18-.27a2.83,2.83,0,0,1-1.31,2.25A1.19,1.19,0,0,0,75,74.31c.24.47,1,1,1.49.62Z"/><path d="M34.63,85.64a25,25,0,0,0,3.21,3.21,1.15,1.15,0,0,0,1.45-.19c.28-.24.86-1,.42-1.4a25,25,0,0,1-3.21-3.21c-.68-.83-2.56.75-1.87,1.59Z"/><path d="M21.28,90.65c1.08.29,2.15.59,3.21.92.63.19,1-2.2.14-2.45-1.06-.33-2.13-.63-3.21-.92-.66-.17-1,2.23-.14,2.45Z"/><path d="M48.73,75a3.34,3.34,0,0,1-.38-.84,2.74,2.74,0,0,0-.05-.28c.32.74-.48,1.09,0,.68a2.36,2.36,0,0,0,.54-1.43c0-.09,0-1.17-.25-.92a4.26,4.26,0,0,0-.46,5.07c.2.35.56-.67.58-.76A2.21,2.21,0,0,0,48.73,75Z"/><path d="M98.36,118.62a25.44,25.44,0,0,1-2.66-5.32c-.19-.47-.34-.28-.42.08a3.24,3.24,0,0,0,.3,1.7,27.21,27.21,0,0,0,2.85,5.68c.31.42.34-.33.33-.5a3.12,3.12,0,0,0-.4-1.64Z"/><path d="M109.57,116.91a6.32,6.32,0,0,1,2.1-2.91c.37-.28.39-1.06.4-1.48,0-.12,0-1.13-.36-.89a7.7,7.7,0,0,0-2.48,3.51,3.26,3.26,0,0,0-.16,1.72c.09.4.33.52.5,0Z"/><path d="M117.79,117.09A7.88,7.88,0,0,1,120,114c.33-.28.27-1.12.25-1.5,0-.13-.09-1.11-.37-.87a8.66,8.66,0,0,0-2.37,3.33,3.31,3.31,0,0,0-.15,1.68c0,.16.22.94.42.45Z"/><path d="M97,138.12c-1.78-2.4-4-4.35-7.15-4.33-.85,0-2,2.08-1.18,2.08,2.88,0,5,1.7,6.62,3.92.59.8,2.18-1,1.71-1.67Z"/><path d="M109.88,148.74a4.64,4.64,0,0,1,2.21-1.72c.12-.05.23-.45.26-.54a4.87,4.87,0,0,0,.15-.93c0-.19.06-1-.28-.9a5.07,5.07,0,0,0-2.39,1.95,3,3,0,0,0-.32,1.65c0,.2.08.92.37.49Z"/><path d="M116,155.64l.92-.46a2.64,2.64,0,0,0,1.22-1.16c.17-.49-.44-.2-.65-.1l-.91.46a2.59,2.59,0,0,0-1.23,1.15c-.16.5.45.21.65.11Z"/><path d="M87.78,154.75a11,11,0,0,0,4.51,3.62c1.26.61,2.46-1.53,1.2-2.14a9.2,9.2,0,0,1-3.74-2.8c-.85-1.24-2.74.2-2,1.32Z"/><path d="M73.19,16c.89.79,1.81,1.56,2.75,2.29.65.5,2.35-1.24,1.8-1.67-.94-.73-1.86-1.5-2.75-2.29-.6-.53-2.34,1.18-1.8,1.67Z"/><path d="M83.26,16.37c.6.78,1.21,1.54,1.83,2.3a1,1,0,0,0,1.44,0c.38-.32.79-1.12.41-1.6-.63-.75-1.24-1.52-1.84-2.29a1,1,0,0,0-1.44,0c-.38.32-.78,1.11-.4,1.59Z"/><path d="M93.15,16.57a6.36,6.36,0,0,0,3.77.56A1.37,1.37,0,0,0,98.2,16a1,1,0,0,0-1.09-1,4.36,4.36,0,0,1-2.64-.36c-1.18-.57-2.66,1.3-1.32,2Z"/><path d="M108.47,13.49c.22,0,.25.12.1-.06.24.29.78.78,1.11.35s-.11-1.22-.37-1.53a2.34,2.34,0,0,0-1.73-1c-.55,0-.36.86-.25,1.14.18.45.59,1.06,1.14,1.08Z"/><path d="M15,147.44a5.57,5.57,0,0,0,2.13.53,1.2,1.2,0,0,0,1.29-1.09,1.26,1.26,0,0,0-1.06-1.35,3.72,3.72,0,0,1-1.54-.38,1.17,1.17,0,0,0-1.52.7,1.28,1.28,0,0,0,.7,1.59Z"/><path d="M18.16,12.18a6,6,0,0,0,1.55,2.07c1.15,1,2.49-1,1.44-1.9A4.47,4.47,0,0,1,20,10.75a1,1,0,0,0-1.5-.27,1.36,1.36,0,0,0-.3,1.7Z"/><path d="M35.65,10.23c.6,0-.39-2.12-1.09-2.12s.4,2.12,1.09,2.12Z"/><path d="M123.37,29.36c1.4-.87,2.78-1.79,4.12-2.75a1.14,1.14,0,1,0-1.33-1.85c-1.34,1-2.72,1.87-4.13,2.75s0,2.67,1.34,1.85Z"/><path d="M128.9,36.28h2.29c.46,0,.94-.65,1.17-1,.09-.12.61-1,.2-1h-2.3c-.46,0-.94.65-1.17,1-.08.12-.61,1-.19,1Z"/><path d="M128.4,14.11a6,6,0,0,0,.62-2.39c0-.52-.13-1.28-.71-1.45s-.9.48-.92.94a3.33,3.33,0,0,1-.3,1.28,1.69,1.69,0,0,0,.16,1.73.66.66,0,0,0,1.15-.11Z"/></svg>