<svg xmlns="http://www.w3.org/2000/svg" viewBox="0 0 141.73 141.73"><defs><style>.a{fill:#1a9dd8;}.b{fill:#2954cc;}</style></defs><title>land1</title><rect class="a" width="141.73" height="141.73"/><path class="b" d="M56.81,54.89A17.36,17.36,0,0,0,55,56.54q-1.82,1.92,1.55-.78L53,58.51c-2.54,2.32-4,5.31-5.5,8.34-2.38,5-5,10.12-5.92,15.57-3.14,17.78,7.71,32,25.56,34.44,17.27,2.32,36-6.94,36.19-26.58a28.45,28.45,0,0,0-9.75-22,58.33,58.33,0,0,0-8.26-6,22.59,22.59,0,0,0-8.63-3.15c-7.07-1,3.72,1.12-1.9-.81-7-2.39-16.25,1.53-19.67,8-3.92,7.43-2.3,14.75,2.72,21.11.48.61,1,1.21,1.48,1.8q-3.7-4.87,1.47,1.86c2.06,2.06,4.53,3.35,6.93,4.89.67.41,1.33.85,2,1.32-2.28-1.84-2.7-2.1-1.27-.76A11.27,11.27,0,0,1,65.54,89q-.08,3.17.19-1.37a11.25,11.25,0,0,1,5.46-7.2q-2.58,1.41,1.57-.62c-2,.43-1.45.39,1.64-.13a23.22,23.22,0,0,1-2.36,0q-3.12-.27,1.5.23a21.85,21.85,0,0,1-2.38-.61c2.47,1.17,3.1,1.42,1.91.74s-.64-.29,1.91,1.46a11.46,11.46,0,0,1,3.12,5.34c-.81-2.56-.26,5.22.24.52-.67,6.31-.15,1.4.27-.14.34-1.25.76-2.49,1.19-3.72C81.17,79.62,83,76.22,83,71.93a20.87,20.87,0,0,0-.62-5.66c.38,3.08.57,3.69.55,1.84.44-2-.51-4.54-1-6.58-2.87-11.2-17.13-14.31-25.13-6.64Z"/><path d="M19.8,90.05c1.55-10.1,5.06-19.7,9-29.1,3.51-8.36,6.78-17.3,12.53-24.44,3.31-4.12,9.16-10.1,14-5A30.56,30.56,0,0,1,60.48,40C62.34,44.17,61.8,52.71,66,55.43c.3.19.78-.26,1-.44,4.14-3.94,11.24-22,18.34-14.86,1.93,1.95,3,15.87,7.48,12.14a8.58,8.58,0,0,0,1.46-2.18c1.31-2.2,4.2-6.27,6.79-3.66a15.6,15.6,0,0,1,2.21,3.78c2.83,5.69,4.59,11.91,6.57,17.93,2.48,7.57,7.48,20,3.09,27.55-.64,1.11.88.26,1.17-.25,3.21-5.53,1.56-12.81.14-18.65a155.68,155.68,0,0,0-8.47-25.65c-2.25-5.14-5.21-10.69-10-5a24.64,24.64,0,0,0-2.27,3.44c-1.79,3.11-2.6,1.26-3.6-1.8-.94-2.85-.84-6.27-2.83-8.7C83.69,35,78.81,37.87,76,41a51.75,51.75,0,0,0-5.33,7.7,34.08,34.08,0,0,1-2.3,3.58c-2.07,2.57-2.51.28-3.36-2.3-2.24-6.78-2.88-13.16-7.55-19-4.48-5.6-9.69-2.18-13.88,1.91C36.9,39.4,33,48.27,29.45,56.76,24.77,67.85,20.14,79,18.31,91c-.1.69,1.42-.43,1.49-.94Z"/><path d="M87.38,21.57c-3.17,7.76,11.71,12,13.24,3.4.58-3.24-2.61-5.18-5.33-5.84-3.4-.84-7.57-.32-9.94,2.48a.89.89,0,1,0,1.33,1.17c2.4-2.84,10.41-3.43,11.93.83,1.06,3-2.66,4.71-5,4.26-2.77-.55-5.59-2.94-4.36-6,.48-1.18-1.43-1.37-1.85-.33Z"/><path d="M79.15,28.12c1.84-1.07,3.59-2.28,5.5-3.21.89-.44,0-2.21-1-1.77-1.91.94-3.66,2.15-5.5,3.21-.87.51.08,2.27,1,1.77Z"/><path d="M86.28,32.49a20.68,20.68,0,0,0,3-4.56c.15-.31.25-1-.15-1.16s-.79.4-.94.69a16.41,16.41,0,0,1-2.48,3.7,1.36,1.36,0,0,0-.34,1.34c.2.41.63.28.88,0Z"/><path d="M94.14,34.15A21,21,0,0,0,96,28.88c.19-1.21-1.55-.52-1.69.38a20.56,20.56,0,0,1-1.78,4.82A.62.62,0,0,0,93,35c.51.06.94-.43,1.11-.84Z"/><path d="M101.68,32.82a23.85,23.85,0,0,0-.47-4.84c-.26-1.25-2.22-.9-2,.34a21.11,21.11,0,0,1,.45,4.34c0,1.27,2,1.43,2,.16Z"/><path d="M37.32,38.49c-.09,2.55-.93,7.93,2.81,8.63,3.47.65,5.37-4.31,6.06-6.84l-1-.4c.19,5.51,5.15,5.84,5.76.27L49.83,40c.55,5,5.06,7.16,6.93,1.45l-.94-.34c1.53,4.88,5.54,2.59,5.51-1.73,0-1-1.09-1.77-1.08-.42Q59,44.51,56.79,40.46c-.12-.39-.69-1.1-.93-.35-.69,2.11-4.28,6-5-.23-.1-.94-.95-1.29-1.07-.15-.32,2.93-3.47,4.26-3.62,0,0-.73-.78-1.37-1-.4-.54,1.94-1.33,4-3.16,5.06-3.26,1.84-3.69-3.11-3.61-5.52,0-1-1-1.76-1.08-.42Z"/><path d="M63.66,54.22C60.4,63.07,56.38,71.6,52.9,80.36c-2.31,5.8-3.84,12-2.2,18.22,3.3,12.48,18,16.79,29.3,13.47,9.73-2.85,19.89-12.73,15.71-23.63C93,81.24,86.32,76.19,81,71c-2.93-2.82-6.08-5.76-8-9.39-1.76-3.3-2.55-6.86-5-9.81-.35-.42-1.91.83-1.56,1.25,3.7,4.53,4.64,10.33,8.64,14.79S84,76.23,88.14,80.74c4.3,4.68,8.4,10.75,6.45,17.4-2.54,8.71-12,13.39-20.43,13.62-11.81.33-22.49-7.34-22.51-19.75,0-6.29,2.61-12,5-17.66,2.93-6.94,6-13.83,8.6-20.9.23-.64-1.42.27-1.6.77Z"/><path d="M60.62,91.37c2.65-.52,4.14-3.07,5.2-5.35l-1.51.6c1,1.44,1.08,3.19,2.16,4.59.28.37,1,.08,1.21-.18a14.83,14.83,0,0,0,2.71-4.3l-1.61.44a27.21,27.21,0,0,0,1.81,3.19c.3.54.94.31,1.31,0a16.27,16.27,0,0,0,2.84-2.72L73.35,88c2.19,2.14,3.66,4,6.52,1.81.87-.65.5-2.14-.55-1.35-2,1.51-3.43-.77-4.52-1.84-.43-.42-1.11,0-1.39.38a17.93,17.93,0,0,1-2.48,2.31l1.31,0a28.72,28.72,0,0,1-1.81-3.19c-.31-.79-1.41-.06-1.61.43A9.25,9.25,0,0,1,66.7,90l1.21-.18c-1-1.38-1.15-3.17-2.16-4.59-.41-.59-1.32.21-1.51.6-.59,1.29-1.64,3.51-3.28,3.83-.88.18-1.54,1.94-.34,1.7Z"/><path d="M79.22,19.45a14.3,14.3,0,0,0,4.37.51,1.07,1.07,0,0,0,1.09-.89c.06-.47-.3-1.09-.83-1.07A13,13,0,0,1,80,17.6c-1.16-.32-2,1.52-.75,1.85Z"/><path d="M89.77,14.66a3.61,3.61,0,0,1,.72,2.05c0,.33.16,1,.6,1s.54-.72.53-1a6.16,6.16,0,0,0-1.11-3.45c-.24-.35-.58-.35-.79,0a1.49,1.49,0,0,0,0,1.42Z"/><path d="M103.71,26.82a9,9,0,0,1,4,.44c.7.24,1.37-1.64.67-1.88a9.72,9.72,0,0,0-4.28-.48c-.7.08-1.17,2-.37,1.92Z"/><path d="M101.56,20a1.9,1.9,0,0,1,1.12-1.15c.41-.17.87-.61.76-1.1s-.7-.53-1.08-.37a4.43,4.43,0,0,0-2.55,2.52.63.63,0,0,0,.57.87,1.27,1.27,0,0,0,1.18-.77Z"/></svg>