<?xml version="1.0" encoding="utf-8"?>
<!-- Generator: Adobe Illustrator 23.0.2, SVG Export Plug-In . SVG Version: 6.00 Build 0)  -->
<svg version="1.1" id="Layer_1" xmlns="http://www.w3.org/2000/svg" xmlns:xlink="http://www.w3.org/1999/xlink" x="0px" y="0px"
	 viewBox="0 0 141.7 141.7" style="enable-background:new 0 0 141.7 141.7;" xml:space="preserve">
<g>
	<g>
		<g>
			<path d="M36.7,53.7c0.1,10.7,3,21.6,11.2,29c8.6,7.8,23.2,11.7,34.4,8.9c9.7-2.3,18.7-8.8,23.2-17.9c2.1-4.3,7.8-16.1,3.1-20.1
				c-0.9-0.7-3.7,1.1-2.7,2.1c3.9,3.3-1.4,14.3-3.1,17.9c-5,10.8-16.8,17.5-28.6,16.6c-9.9-0.8-20.8-5.1-27-13.1
				c-5.4-7-7.3-15.9-7.4-24.6C39.8,51.2,36.7,52.5,36.7,53.7L36.7,53.7z"/>
		</g>
	</g>
	<g>
		<g>
			<path d="M57.2,57.2c-0.1-0.2,0,0.2,0,0.3c0,0.1,0,0.3,0,0.4c0.1,0.4,0.4,0.5,0.8,0.4c0.2,0,0.8,0.1,1.2,0
				c0.6-0.1,1.2-0.4,1.7-0.9c0.3-0.3,0.7-0.8,0.5-1.2c-0.2-0.3-0.3-0.7-0.7-0.9c-0.5-0.3-1.1-0.1-1.6,0.1c-1,0.5-1.6,1.3-2.1,2.3
				c-0.1,0.2-0.3,0.5-0.1,0.8c0.1,0.2,0.5,0.2,0.7,0.2c0.7-0.1,1.7-0.6,2.1-1.3c0.1-0.2,0.2-0.4,0.3-0.6c0-0.1,0.1-0.1,0.1-0.2
				c0-0.1,0-0.1,0,0c-0.2,0.3-0.5,0.5-0.9,0.7c-0.3,0.1-0.5,0.2-0.8,0.2c-0.4-0.1-0.5-0.1-0.3,0c-0.1-0.1-0.1,0,0,0.1
				c0.1,0.2,0.2,0.4,0.3,0.6c0.7-0.7,1.5-1.4,2.2-2.1c-0.3,0.1-0.8,0-1.2,0c0.3,0.1,0.5,0.3,0.8,0.4c-0.1-0.4,0-0.7-0.1-1.1
				c-0.1-0.2-0.6-0.2-0.7-0.2c-0.4,0-0.8,0.2-1.2,0.5C57.7,55.9,56.9,56.5,57.2,57.2L57.2,57.2z"/>
		</g>
	</g>
	<g>
		<g>
			<path d="M72.5,54.3c-2,3.1-4.3,7.6-3.2,11.4c1,3.4,4.4,4.8,6.8,1.9c-0.8-0.8-1.5-1.6-2.3-2.4c-1.3,4.6,4.7,6.6,6.3,2.1
				c-0.9-0.5-1.7-0.9-2.6-1.4c0.1,0.4,0.1,0.8,0.1,1.2c0.1,0.8,1.5,2.8,2.4,1.6c2.9-3.8,2.4-11-0.8-14.5c-3.2-3.5-7.6-1.6-7.9,3
				c-0.1,1.5,2.5,3.5,2.6,1.4c0.2-2.4,2.6-4.5,4.2-1.7c1.5,2.5,1.6,6.8-0.2,9.2c0.8,0.5,1.6,1.1,2.4,1.6c0-0.4,0-0.8-0.1-1.2
				c-0.1-0.9-1.9-3.1-2.6-1.4c-0.2,0.6-0.5,1-1.1,1.3c-0.2,0.1-0.4,0.2-0.6,0.2c-0.6-0.1-0.5,0.1,0.2,0.6c0.3-1-1.1-3.9-2.3-2.4
				c-1,1.2-2.3,1.6-2.3-0.5c0-0.8,0.3-1.7,0.5-2.5c0.5-1.7,1.4-3.4,2.4-5C75.5,55.7,73.4,52.9,72.5,54.3L72.5,54.3z"/>
		</g>
	</g>
	<g>
		<g>
			<path d="M89.4,56.9c-0.1,1,0.4,2.4,1.6,2.2c0.6-0.1,1-0.6,1.4-1.1c0.4-0.5,0.4-1.6,0-2.1c-0.3-0.5-1-1-1.6-0.6
				c-0.4,0.2-0.9,0.4-1.2,0.7c-0.4,0.4-0.6,1-0.9,1.5c0.9,0.5,1.7,1,2.6,1.5c0.2-0.4,0.4-0.8,0.4-1.3c0-0.6-0.2-1.6-0.8-1.9
				c-0.5-0.2-1.1-0.2-1.5,0.2c-0.6,0.6-0.7,1.7-0.3,2.4c0.4,0.6,1.3,1.1,2,0.4c-0.1,0-0.2,0.1-0.2,0.1c-0.4,0-0.7,0-1.1-0.1
				c0,0,0,0,0,0c-0.3-0.6-0.6-1.3-0.8-1.9c0-0.1,0.2-0.5,0-0.2c0,0.1-0.1,0.2-0.1,0.2c-0.1,0.1-0.1,0.3-0.2,0.4
				c-0.3,0.8,0,1.9,0.7,2.3c0.8,0.4,1.5-0.1,1.8-0.8c0.1-0.2,0.2-0.4,0.2-0.6c0.1-0.2-0.2,0.4-0.1,0.2C91.2,58.7,91,59,90.9,59
				c0.2,0,0.7-0.3,0.9-0.4c-0.5-0.9-1.1-1.8-1.6-2.7c0,0,0,0-0.1,0.1C90,56,90,56,90,55.9c0.1-0.1,0.1-0.1,0,0
				c-0.1,0.1,0,0.1,0.2-0.1c0.4,0,0.7,0,1.1,0.1c0,0,0,0,0,0c0.3,0.5,0.6,0.9,0.8,1.4c0,0.1,0,0.2,0,0.3c0.1-0.8-0.3-1.8-1.2-2
				C90.1,55.3,89.4,56.1,89.4,56.9L89.4,56.9z"/>
		</g>
	</g>
	<g>
		<g>
			<path d="M63.4,69.1c3.9,2,8.2,4,12.7,3.6c4.2-0.4,8-2.8,11.9-4.3c1.5-0.6,2-3.4-0.1-2.6c-3.8,1.5-7.7,4-12,4.1
				c-3.7,0-7.4-1.9-10.6-3.5C64.1,65.7,61.9,68.3,63.4,69.1L63.4,69.1z"/>
		</g>
	</g>
	<g>
		<g>
			<path d="M48.4,45.8c4,1.7,5-2.1,4.9-5.5c-0.5,0.4-1,0.8-1.5,1.2c0.4,1.9,0.9,4.4,2.6,5.6c2.2,1.5,2.3,0.2,3.5-1
				c2.8-2.8,2.3,0.5,5.1,1.2c2.9,0.8,5.1-2.8,6.8-4.5c-0.3-0.2-0.7-0.5-1-0.7c0.4,1.8,0.9,5.8,3.4,5.9c2.6,0.1,2.8-4.3,4.9-3.6
				c0.6,0.2,0.8,1.7,1.7,2c1.1,0.3,1.8-0.3,2.6-1c2.1-1.9,1.2-3,2.7,0.1c0.7,1.3,1.1,2.2,2.4,3c0.3,0.2,0.6-0.1,0.8-0.4
				c0.6-1.2,0.7-2.9,1.9-3.6c1.3-0.8,1.6,0.6,3.2,1.2c2.7,1.1,3.9-0.3,5.1-2.7c-0.4-0.1-0.8-0.3-1.2-0.4c0.4,1.5,0.8,5,2.9,5.3
				c0.9,0.1,1.3-0.9,1.9-1c1.9-0.3,3.5,1.5,5.6,1.5c0.7,0,0.9-1.3,0.9-1.7c0-0.3,0-0.6,0-0.9c0.1-2-1.4-2.2-1.5-0.1
				c0,0.3,0,0.6,0,0.9c0.3-0.6,0.6-1.1,0.9-1.7c-2.4-0.1-3.3-0.9-4.8-2.4c-0.2-0.2-0.5,0-0.6,0.1c-2.2,2.6-3.1,1.1-3.8-1.6
				c-0.2-0.7-0.7-1.4-1.2-0.4c-2.1,4.2-4.4,1.4-6.3-0.6c-0.1-0.1-0.3-0.1-0.4,0c-1.8,0.6-1.6,1.6-2.6,2.9c-1.1,1.4-0.8,2.1-2.2-0.3
				c-0.5-0.9-0.8-2.1-1.2-3c-0.2-0.4-0.5-0.3-0.8-0.1c-0.7,0.6-1.3,2.1-2,2.5c-1.7,1-3.1-0.8-3.9-2.2c-0.2-0.3-0.6-0.3-0.8-0.1
				c-2.2,2.8-4.6,8.1-6.3,0.7c-0.1-0.5-0.4-1.3-1-0.7c-2.5,2.5-4.1,5.2-7.5,2.8c-0.9-0.6-1-1.6-2.3-1.6c-1,0-1.5,0.8-2,1.5
				c-0.4,0.5-0.2,1.6-1.1,1.9c-1.7,0.4-2.8-3.5-3-4.4c-0.4-2.1-1.5,0.2-1.5,1.2c-0.9,0.4-1.8,0.9-2.7,1.3C48,42,47.5,45.4,48.4,45.8
				L48.4,45.8z"/>
		</g>
	</g>
	<g>
		<g>
			<path d="M43.8,80.9c1,4.4,2.3,8.7,3.4,13.1c0.3-0.8,0.7-1.6,1-2.5c-3.2,0.7-4.7-0.1-6.4-2.8c-0.5-0.8-1.5-0.7-2,0.1
				c-0.4,0.8-0.7,1.5-1.1,2.4c0.7-0.2,1.4-0.4,2.1-0.5c-0.6-0.7-1-1.5-1.4-2.4c-0.5-1-1.5-0.6-2,0.1c-0.6,1-1.2,2-1.6,3
				c0.6-0.1,1.2-0.3,1.7-0.4c-1.2-1.2-1.4-1.3-2.8-2.3c-0.4-0.3-1,0-1.2,0.3c-1.5,1.7-3.2-1.8-3.6-2.6c-0.6-1.2-1.8-0.4-2.1,0.5
				c-1.1,3.4-3.1,1.4-4.9,0c-0.9-0.7-1.6,0-1.9,0.8c-0.3,0.6-0.5,1.2-0.8,1.8c-0.7,1.5,1,4,1.9,2c0.4-0.9,0.7-1.7,1.1-2.6
				c-0.6,0.3-1.3,0.6-1.9,0.8c1.8,1.4,2.2,3.9,4.9,3.3c2.2-0.5,3.2-3.1,3.8-5c-0.7,0.2-1.4,0.4-2.1,0.5c0.7,1.3,1.8,3.8,3.5,4.4
				c2.3,0.9,2.4-1.4,4.6,0.9c0.6,0.6,1.4,0.2,1.7-0.4c0.4-1.1,0.9-2.1,1.6-3c-0.7,0-1.3,0.1-2,0.1c0.3,0.9,0.8,1.7,1.4,2.4
				c0.7,1.1,1.7,0.4,2.1-0.5c0.3-0.5,0.5-1.1,0.8-1.6c-0.7,0-1.3,0.1-2,0.1c2.3,3.6,4.4,4.8,8.7,3.9c1-0.2,1.2-1.7,1-2.5
				c-1.1-4.4-2.4-8.7-3.4-13.1C45.6,77.1,43.4,79.2,43.8,80.9L43.8,80.9z"/>
		</g>
	</g>
	<g>
		<g>
			<path d="M98.2,80.2c-2,4.4-1.2,9.7-0.7,14.4c0.1,0.9,1.2,1.4,2,1.2c3.1-0.7,4.6-4,6.1-6.5c-1-0.1-2.1-0.2-3.1-0.4
				c1.3,5.4,3.5,5.3,7.8,2.5c-0.8-0.2-1.5-0.4-2.3-0.6c0.5,0.8,0.9,1.7,1.2,2.7c0.3,1,1.5,1.6,2.4,1c1.6-1,2.8-2.5,4.5-3.3
				c-0.8-0.2-1.5-0.4-2.3-0.6c1.5,2.2,3.1,6,6.5,4.2c3-1.6,2.5-5.9,0.4-8c-1.6-1.5-4,1-2.5,2.4c1.1,0.9,1.3,1.6,0.5,2.1
				c-0.4,0.5-0.7,0.3-0.9-0.7c-0.4-0.4-0.7-1.3-1.1-1.8c-0.5-0.8-1.4-1-2.3-0.6c-1.7,0.9-2.8,2.3-4.5,3.3c0.8,0.3,1.6,0.7,2.4,1
				c-0.4-1.2-0.9-2.4-1.5-3.5c-0.4-0.8-1.5-1.1-2.3-0.6c-2.1,1.3-2.2,2.2-2.9-0.5c-0.4-1.5-2.3-1.6-3.1-0.4
				c-0.9,1.5-2.1,4.5-3.9,4.9c0.7,0.4,1.4,0.8,2,1.2c-0.4-3.5-1.2-8.5,0.3-11.8C102,79.9,99.1,78.2,98.2,80.2L98.2,80.2z"/>
		</g>
	</g>
	<g>
		<g>
			<path d="M21.6,90.9c-1.8-4.5-1-9.6-0.6-14.4c0.3-4.3,0.3-8.5,1-12.8c1.5-8.5,3.6-17.3,6.8-25.3c2.8-6.9,6.7-13.6,12.5-18.4
				c7.6-6.2,17.9-7.7,27.4-8.5c3.9-0.3,7.8-0.6,11.6,0.3c4.3,1,8,3.6,12,5.4c8.9,4,16.4,7.1,20.6,16.8c4,9.4,5.2,19,5.1,29.1
				c0,8.4-0.1,16.7,2.2,24.7c0.5,1.5,2.6,2.5,1.9,0.2c-2.6-8.8-2-17.9-2.1-27c-0.1-7.4-1-14.4-3.3-21.4c-1.9-5.9-4.3-11.9-8.7-16.5
				c-5.2-5.3-12.5-7.1-18.9-10.4c-6.7-3.4-11.9-5.2-19.5-4.7c-8,0.6-16.5,1.5-23.8,5.1C33.6,19.1,27.4,32.4,24,44.8
				c-2.3,8.5-4.5,17.1-4.9,25.9c-0.3,6.9-1.8,14.3,0.8,20.9C20.7,93.5,22.4,92.9,21.6,90.9L21.6,90.9z"/>
		</g>
	</g>
	<g>
		<g>
			<path d="M43.9,36.2c1.2-4.3,2.1-9.4,5.2-12.7c1.1-1.1-0.7-4-2-2.5c-3.3,3.5-4.3,8.9-5.6,13.4C41.1,35.8,43.3,38.2,43.9,36.2
				L43.9,36.2z"/>
		</g>
	</g>
	<g>
		<g>
			<path d="M53.9,35.5c0.4-4.1,0.6-9.5,3.7-12.5c0.7-0.7-0.9-3.7-1.9-2.8c-3.2,3.1-3.5,8.8-3.9,13c-0.1,0.8,0.2,1.7,0.8,2.3
				C52.9,35.7,53.9,36.3,53.9,35.5L53.9,35.5z"/>
		</g>
	</g>
	<g>
		<g>
			<path d="M61.3,40.3c2.1-6.2,1.6-13,4-19.1c0.5-1.2-1.3-4.1-2-2.5c-2.5,6.4-2.1,13.3-4.3,19.7C58.7,39.8,60.7,42.3,61.3,40.3
				L61.3,40.3z"/>
		</g>
	</g>
	<g>
		<g>
			<path d="M70.1,34.4c0-5.7,0.6-11.3,1.9-16.9c0.3-1.2-2.4,0.7-2.6,1.6c-1.3,5.6-1.9,11.1-1.9,16.9C67.5,37.5,70.1,35.4,70.1,34.4
				L70.1,34.4z"/>
		</g>
	</g>
	<g>
		<g>
			<path d="M78.6,36c0.5-5.2,0.8-10.4,0.3-15.6c-0.1-1.1-2.5-3.3-2.3-1.4c0.5,5,0.2,10-0.3,14.9C76.1,35,78.4,37.4,78.6,36L78.6,36z
				"/>
		</g>
	</g>
	<g>
		<g>
			<path d="M86.1,35.5c0-4.7-0.2-9.2-1.3-13.8c-0.5-2.1-3.8-1-3.3,1c1,4.3,1.2,8.6,1.2,12.9C82.7,37.9,86.1,37.6,86.1,35.5
				L86.1,35.5z"/>
		</g>
	</g>
	<g>
		<g>
			<path d="M94.7,36.9c0-4.4-0.6-8.7-1.3-13c-0.1-0.9-2.5-3.3-2.2-1.5c0.7,4.1,1.2,8.2,1.2,12.4C92.5,35.8,94.7,38.2,94.7,36.9
				L94.7,36.9z"/>
		</g>
	</g>
	<g>
		<g>
			<path d="M103.9,34.3c-0.3-2.6-0.6-5.1-1.3-7.6c-0.6-2.1-3.4-1.5-2.8,0.6c0.7,2.5,1,5.1,1.3,7.6c0.1,0.8,1,1.6,1.8,1.4
				C103.8,36.1,104,35.1,103.9,34.3L103.9,34.3z"/>
		</g>
	</g>
	<g>
		<g>
			<path d="M58.1,104.6c-1.2,0.6,0.1,0.5,0.4-0.1c0.1-0.2-0.2-2.2,0-2.6c0.7-1.8,2.6-2.5,4.4-2.2c3.1,0.4,5.5,3.4,8,5.1
				c-0.1-0.8-0.1-1.6-0.2-2.4c-1.5,1.8-4,3.2-6,4.2c-0.7,0.4-5.7,3-5.6,1.2c0.2-2.2-2.9-2.7-3-0.5c-0.8,9.9,14.2,0.6,16.9-2.8
				c0.5-0.6,0.5-1.9-0.2-2.4c-4.4-3-10-8.9-15.3-4c-1.9,1.7-2.6,4.3-2.2,6.8c0.4,2.1,1.5,4.3,3.8,3.1
				C60.9,106.9,60,103.6,58.1,104.6L58.1,104.6z"/>
		</g>
	</g>
	<g>
		<g>
			<path d="M70.2,103.5c-0.9,1.8,0,3.7,2.1,4c2.1,0.3,5-1.4,5.7-3.4c0.6-1.7-0.8-3.1-2.3-3.5c-2.1-0.6-4.7,0.8-5.8,2.6
				c-0.4,0.7,0.6,0.4,0.9,0.3c0.7-0.2,1.6-0.7,1.9-1.4c0.4-0.7-0.6,0.5-0.8,0.3c0,0,0.5,0,0.6,0c0.5,0,1,0.2,1.4,0.5
				c0.8,0.5,1.4,1.4,1.2,2.3c-0.1,0.2-0.2,0.4-0.3,0.7c0,0-0.1,0.1-0.1,0.1c0.2-0.1,0.4-0.2,0.6-0.4c0.1-0.1,0.2,0,0.1-0.1
				c-0.1-0.1-0.5,0-0.7,0c-0.2-0.1-0.5-0.1-0.7-0.3c-1-0.6-1.4-1.7-0.9-2.8c0.3-0.7-0.6-0.4-0.9-0.3
				C71.6,102.4,70.5,102.9,70.2,103.5L70.2,103.5z"/>
		</g>
	</g>
	<g>
		<g>
			<path d="M76.8,104.2c2.1,0.2,3.8-1.4,5.5-2.5c0.9-0.6,2.2-1.3,3.3-0.7c0.8,0.5,1.1,1.8,1.3,2.7c0.2,1.1,0.6,2.3,0.4,3.4
				c-0.2,1.4-1.1,1.6-2.4,1.9c-2,0.4-5,0.6-5.7-1.8c-0.6-1.8-3.4,0.2-2.9,1.8c1,3.4,5,3.6,7.9,3.1c3.2-0.5,6-2.2,6.2-5.8
				c0.1-2.5-0.5-7-3.1-8.2c-1.4-0.7-3.3-0.3-4.6,0.2c-0.8,0.3-1.5,0.8-2.3,1.3c-0.5,0.3-1.8,1.5-2.4,1.5
				C76.3,101,74.8,104.1,76.8,104.2L76.8,104.2z"/>
		</g>
	</g>
	<g>
		<g>
			<path d="M27.1,121.5c4.9-2.1,13.1-5.4,14.8-11c0.4-1.3,0.4-3.5-1.3-3.6c-1.7-0.1-3.3,3-4,4.2c-2,3.6-5,10.7-2.5,14.6
				c3.2,4.9,7.9-2.8,9.2-5.4c-0.7,0.3-1.3,0.7-2,1c0.3,5.3,5.6,2.8,7.8,0.1c0.3-0.4,1.4-2,0.4-2.3c-4.2-1.1-5.3,4.7-4.7,7.7
				c1,4.5,3.7,3.5,5.1-0.2c0.8-2.1-1.7-0.3-2.1,0.7c0.4-1-2.8-6,0.1-5.2c0.1-0.8,0.3-1.5,0.4-2.3c-1.6,1.9-4.6,2.5-4.8-0.7
				c-0.1-1.4-1.8,0.7-2,1c-0.5,1-1.9,3.6-3.1,3.9c-1.9,0.4-2.7-1.7-2.9-3.1c-0.3-2.4,0.6-5.1,1.4-7.3c0.2-0.6,0.8-2.7,1.4-2.9
				c0.1,0.5,0.1,1.1,0.2,1.6c-0.5,0.4-0.9,0.8-1.4,1.1c-2.8,2.2-6,3.6-9.2,5C27.2,118.9,25.9,122,27.1,121.5L27.1,121.5z"/>
		</g>
	</g>
	<g>
		<g>
			<path d="M56.3,121.2c-2.9-1.2-6.5,2.2-5.1,5.2c0.4,0.8,1.3,1.4,2,2c0.2,0.2,0.7,0.9,0.9,0.9c-0.4-0.1,0.1-1.3,0.1-1.3
				c-0.1-0.1-1,0.2-1.1,0.2c0.4,1.1,0.8,2.1,1.2,3.2c0.5-0.4,1-0.9,1.5-1.3c1.3-1.3-0.7-4-2.2-2.5c-0.3,0.3-0.5,0.6-0.9,0.8
				c-1.4,1-0.5,3.4,1.2,3.2c1.1-0.2,2.3-0.5,2.8-1.6c0.5-1.1,0-2.3-0.8-3.2c-0.5-0.6-1.4-1.6-2.2-2c-0.1-0.1,0-0.1-0.1,0
				c0.1,0.1,0.2,0.3,0.2,0.5c0-0.1,0.1-0.2,0.2-0.3c0.6-0.3,0.8-0.7,1.5-0.4C57.5,125.3,58,121.9,56.3,121.2L56.3,121.2z"/>
		</g>
	</g>
	<g>
		<g>
			<path d="M64,121.2c-2.3-0.4-3.7,1.2-3.5,3.5c0.1,0.9,0.4,1.8,0.7,2.7c0.1,0.4,0.2,1.2,0.4,1.5c0.1,0.1,0,0.3,0.1,0.4
				c-0.1-0.3,0.6-0.7,0-0.4c0.4,0.3,0.8,0.6,1.2,1c-0.1,0.3-0.1,0.3,0,0c0.1-0.2,0.3-0.4,0.5-0.6c0.4-0.4,0.8-0.7,1.3-1
				c0.6-0.3,1.8-1,2.4-0.5c1.1,0.7,0.8,4,1,5.2c0.2,0.8,0.9,0.8,1.4,0.4c0.7-0.5,0.8-1.6,0.6-2.4c-0.5-2.4,0.1-7.2-3.7-6.7
				c-2.9,0.4-6.2,3.6-5.8,6.7c0.1,0.6,0.5,1.3,1.2,1c1.9-1,2.1-3.3,1.7-5.2c-0.2-0.9-0.6-1.8-0.8-2.7c0-0.1-0.2-0.8-0.2-0.8
				c-0.1,0-0.5,1.1-0.5,1.1c0,0,0.9,0.1,0.9,0.1C64.6,124.8,65.4,121.4,64,121.2L64,121.2z"/>
		</g>
	</g>
	<g>
		<g>
			<path d="M71.7,123.1c-0.1,0-0.2,0-0.3,0c-0.8,0-1.7,0.7-2,1.4c-0.3,0.7,0,1.1,0.8,1.1c0.1,0,0.2,0,0.3,0c0.8,0,1.7-0.7,2-1.4
				C72.8,123.5,72.4,123.1,71.7,123.1L71.7,123.1z"/>
		</g>
	</g>
	<g>
		<g>
			<path d="M85.9,122.2c-4.9,0.3-5.2,9.4-1.1,11.1c7.1,3,7.9-10.9,7.5-14.7c0-0.1-0.6-2.6-1-2c-2.3,4-0.8,9.4,2.1,12.7
				c4.3,4.8,7,1.2,7-3.9c0-0.9-1.1-3.8-1.2-1.6c-0.1,1.8,0,4.6,2,5.4c2.9,1.2,3.7-2.6,3.7-4.6c-0.1-4.2-4.8-8.7-6-2.4
				c-0.3,1.6-0.4,4.6,0.8,5.9c2.2,2.5,3.4-0.7,4.5-2.3c0.6-0.9-0.2-1,0.6-1c0.2,0,1.2,1.1,1.5,1.2c1.9,0.7,3.6-0.4,4.7-2
				c1.8-2.8,0.8-6.9,0.6-10c-0.1-1.4-1.3-3.1-1.2-0.7c0.2,3.7-0.6,14-6.3,7.7c-0.3-0.4-0.6,0-0.6,0.4c-0.1,1-0.3,2.6-1.1,3.3
				c-1.4,1.3-2.5,0.7-1.9-1.3c0.5-1.9,1.7-0.6,2.1,0.4c1.5,3.6-2.1,1.2-2.1,1.6c-0.4-0.5-0.8-1.1-1.2-1.6c0,9.5-10,1-7.1-4
				c-0.3-0.7-0.7-1.3-1-2c0.4,3.3,0.1,8.5-2.5,11c-1,1-3.1,2-4.5,1c-2.3-1.7,0.5-4.1,2.3-4.2C87.1,125.5,86.7,122.1,85.9,122.2
				L85.9,122.2z"/>
		</g>
	</g>
</g>
</svg>
