<svg xmlns="http://www.w3.org/2000/svg" viewBox="0 0 141.73 187.29"><defs><style>.a{fill:#0f9a82;}.b{fill:#eb1e41;}</style></defs><title>bird2</title><rect class="a" width="141.73" height="187.29"/><path class="b" d="M35,172.51c4.13-5.75,4.52-12.42,7-18.79L8.34,149.15c.09,1.4.15,2.8.11,4.2,0,.66.13,5-.08,2q.33-2.34-.06-.18c-.15.68-.33,1.36-.53,2a21.93,21.93,0,0,0,0,10.74l27.06-15.75-1-1.28,3.79,6.51-.2-1.1c-1.14-6-8-10.93-14-10.67s-12.81,4.27-14,10.67l-.2,1.1L13,150.88l-1,1.28c-2.64,3.35-4.94,6.93-4.74,11.45a16.75,16.75,0,0,0,3.48,9.81c4.72,6.11,14.05,8.56,20.88,4.17C41,171.51,43,159.65,42.68,149.15a17.22,17.22,0,0,0-14.89-16.86c-8.69-1.17-16.09,4.1-18.84,12.3a53.27,53.27,0,0,0-1.8,7.81c-.22,1.21-.48,2.42-.7,3.63.27-1.53-1.5,11.39-.39,4.26C4.83,168.2,7.41,175.7,15.24,179s15.14,0,19.8-6.49Z"/><path d="M50.21,167.2v1.92c0,1.22,1.87,1.42,1.9.13.1-6.27-1-12.47-2-18.65-1.37-9.14-2.58-18.31-3.16-27.53-.54-8.4-.5-16.85-.54-25.26,0-7.62-1-16.86,1-24.25.32-1.16-1.49-1.86-1.83-.62-1.86,6.77-1.09,14.84-1.11,21.81,0,8.74,0,17.54.43,26.26.44,8.11,1.38,16.18,2.5,24.22s2.87,15.87,2.73,23.89l1.9.13v-1.93c0-1.22-1.9-1.42-1.9-.12Z"/><path d="M74.09,73.59c.25,29.71,3.86,59.28,7.79,88.7.12.9,1.6-.16,1.79-.52l.34-.63-1.67.76c3,2.55,8.87-2.79,11.17-4.26,1-.63.1-1.16-.71-.75a97.69,97.69,0,0,0-11.39,6.28c-.24.16-.66.62-.32.88,3.88,3,10.23,1.23,14.68,1.11.61,0,2.06-1.26.91-1.3-5.43-.18-10.71-1.58-16.15-1.68-.47,0-1.55.52-1.33,1.13,1.09,3,4.44,4.4,7.21,5.55,1.53.64,3.88,2.2,5.52,1.49.19-.08,1.22-.64.89-1a1.37,1.37,0,0,1-.42-.7c-.27-.62-2.06.28-1.76.95a1.24,1.24,0,0,0,.42.7l.88-1c-1,.41-5.32-2.08-6.21-2.53-2-1-4-2.12-4.77-4.35l-1.33,1.13c5.42.09,10.72,1.49,16.14,1.67l.91-1.3c-3.49.09-7.11.87-10.59.33a4.17,4.17,0,0,1-1.9-.44q-1.59-.17-.18-.9c.39-.8,2-1.37,2.78-1.77,2.13-1.15,4.33-2.21,6.49-3.3l-.7-.75c-1.81,1.15-6.75,5.37-8.67,3.72-.49-.42-1.44.35-1.66.76l-.34.63,1.79-.52c-3.93-29.42-7.53-59-7.78-88.71,0-.74-1.83,0-1.83.68Z"/><path d="M53.83,167.52a4,4,0,0,0-.78.64c-.48.47-.92,2.13.17,1.32,2.35-1.76,4.58-3.8,7.29-5l-.15-1.13c-1.9,3-5.09,4.93-7.52,7.49-.17.19-.8,1.34-.16,1.37,2.66.11,5.33,0,8,.08.5,0,1.61-1.46,1-1.71-2.83-1.11-6.31-1.69-9.18-.42-.46.21-1.35,1.2-.81,1.7,3.76,3.5,9.51,2.72,14.24,2.7.67,0,1.53-1.76.83-1.76-4.64,0-10.29.82-14-2.61l-.81,1.69c2.67-1.17,6-.66,8.62.37l1-1.72c-2.66,0-5.32,0-8-.08l-.16,1.36c2.57-2.72,5.8-4.7,7.83-7.92.12-.19.54-1.44-.15-1.13-3,1.32-5.4,3.47-8,5.4l.17,1.32a3.91,3.91,0,0,1,.77-.64c.6-.45.88-2.11-.16-1.32Z"/><path d="M78.53,68.78c-6.26,4.47-16.78,1.51-24,1.16-10.82-.52-19.4-4.4-26.72-12.49-5.76-6.37-7.27-14.19-10.26-22C16,31.38,12.66,25.28,13.86,20.68c.56-2.13.53-.41,1,.92.27.75.43,1.54.69,2.29a14.72,14.72,0,0,0,1.53,3.26c.31.49,1.25.72,1.44,0,.91-3.42-1.29-6.24-.53-9.66l-1.25.19c2.3,2,2.46,5.53,3.81,8.12.4.77,1.86,1,1.57-.22a31.92,31.92,0,0,1-1.22-8.46l-1.46.21a38,38,0,0,1,3.47,7.21c.25.71,1.6,1,1.6,0a33.48,33.48,0,0,1,.06-3.47l-1.46.22c2.68,2.93,5.22,5.69,9.31,6.33,6.9,1.09,14.35-.15,21.33.1S67.34,29,74.17,29.31A59.51,59.51,0,0,0,83.61,29c1.07-.13,2.14-.29,3.2-.51,1.35-.29,4.43-1.94,5.68-1.69l-.6-1.69c-.18.17-.35.34-.52.52-.7.73.52,2.31,1.21,1.6.16-.18.34-.35.52-.52a1.08,1.08,0,0,0-.6-1.69c-1.65-.33-3.47.93-5.07,1.35a39.31,39.31,0,0,1-8.91,1.11c-6.07.16-12.11-.61-18.14-1.15A172.2,172.2,0,0,0,41,25.91c-3.07.06-6.55.53-9.58-.23s-5-3.06-7.07-5.29c-.45-.48-1.42-.71-1.46.22a33.48,33.48,0,0,0-.06,3.47h1.6a40.27,40.27,0,0,0-3.75-7.66c-.37-.61-1.44-.63-1.46.21a33.4,33.4,0,0,0,1.28,8.93L22,25.35c-1.61-3.07-1.71-6.59-4.45-9-.36-.31-1.11-.42-1.25.2-.75,3.35,1.41,6.34.52,9.66H18.3c-1.75-2.7-1.44-7.53-4.56-9.23a.69.69,0,0,0-1.05.34c-2.53,8.53,3.44,18.39,5.93,26.33A40.3,40.3,0,0,0,31.2,62.8c7.37,6.33,15,8.57,24.6,9,7.43.34,17.37,3.24,23.94-1.44.82-.59-.38-2.19-1.21-1.6Z"/><path d="M78.69,71.38a56,56,0,0,0,11.71-13c1.49-2.24,2.86-4.57,4.15-6.93,1.49-2.71,2.66-6.85,4.78-9.07,1.48-1.53,3.11-.94,5.1-1.33a19,19,0,0,0,7-3.19A15.5,15.5,0,0,0,118,28.6c1.45-6.12-.3-14.5-7.6-15.53C102.7,12,92.62,18,90.35,25.41c-.24.79,1.1,2.22,1.41,1.2,2.07-6.75,12.66-13.63,19.85-11.52,5.39,1.58,6,8,4.85,12.59s-4.5,8-8.7,10.09a16.75,16.75,0,0,1-6,1.7,7.17,7.17,0,0,0-2.07.11c-2.09.82-3,4-4,5.83-4.61,9.08-9.93,17.77-18,24.21-.71.57.28,2.29,1,1.76Z"/><path d="M104,42.12c.35,8.93,2.09,17.73,2.46,26.68s.38,18.08.87,27.11c.42,7.53,1.91,15.13,1.71,22.68-.09,3.32-.89,8.24,2.24,10.44a.84.84,0,0,0,1.23-.67c1-16.72,3.4-33.44,2.52-50.22-.7-13.21,1.68-27.69-3-40.34-.45-1.22-1.91-.53-1.62.63,3.73,15.2,5.36,30.75,7.44,46.23,1,7.63,2,15.27,3.05,22.89.84,6.19.61,12.66,2.52,18.65a.84.84,0,0,0,1.66-.1,135.1,135.1,0,0,0,0-46.82c-1.31-7.6-3.14-15.14-5-22.63-1.65-6.78-2.55-14.41-5.23-20.86a.88.88,0,1,0-1.63.63c2.46,5.91,3.23,12.78,4.78,19,1.84,7.41,3.65,14.88,5,22.39a133.47,133.47,0,0,1,.36,47.87l1.65-.1c-2.1-6.6-1.9-14.16-2.81-21q-1.59-11.81-3.14-23.63c-1.88-14.45-3.58-29-7.06-43.13l-1.62.63c4.58,12.42,2.2,26.83,2.89,39.81.87,16.6-1.45,33.15-2.49,49.68l1.23-.67c-2.84-2-1.3-12-1.59-15.17-.7-7.66-1.42-15.28-1.67-23s-.37-15.55-.74-23.33c-.39-8-2-15.79-2.34-23.76a.86.86,0,1,0-1.71.11Z"/><path d="M104.87,29c0-.1-.12-.66-.12-.33,0,.13,0,.26,0,.39a6.27,6.27,0,0,0,0,.75q0,.2,0-.12l0,.26a1.16,1.16,0,0,0,.21.54.41.41,0,0,0,.66.07,3,3,0,0,0,.52-.87l.23-.45c0-.06.06-.12.08-.17s.13-.12-.06,0l-.44.1,0,0,.3-1.93c-.43-.15-1-.57-1.46-.45-.63.15-.6,1.21-.39,1.66a.63.63,0,0,0,.72.42c.11,0,.23,0,.34,0h0l-.25-.25s0-1.23-.1-1.08,0,.21-.07.3a1.83,1.83,0,0,0,0,.66c.07.32.26.87.7.7s.47-.9.39-1.23c0,.09-.1.7,0,.53a1.36,1.36,0,0,0,.06-.29,1.54,1.54,0,0,0-.16-1c-.27-.43-.75-.34-1.19-.32l.4.29.13.62-.28.87c-.39.52-.24,0-.14.12,0-.05,0,0,.06,0s.27.1.4.15.34.16.51.22c.89.29.84-1.57.3-1.93l0,0a.39.39,0,0,0-.44.11,2.14,2.14,0,0,0-.39.73c-.08.16-.16.32-.25.48l-.11.2c-.12.23,0-.14.24-.1l.4.29h0l.17.71,0-.32c0-.06,0,.2,0,0s0-.36,0-.54a2.76,2.76,0,0,0-.22-1.24c-.18-.4-.6-.33-.8,0a1.56,1.56,0,0,0,0,1.41Z"/><path d="M110.43,17.83c6.14,4.16,14.94-.2,19.42-5l-1.61.29c-2.39,5.11-9.86,3.91-13.18,8.38-.17.22-.23.42.08.5,5.25,1.45,11-.39,14.93-4l-1.21-.15c-2.39,2.18-5.87,2.6-8.65,4.08-.24.12-1.14.75-.5.93s8.87.64,8.87.62C129,25,121.16,25,120.43,25c-3.76-.46-8.79-2.36-8.25-7l-1.72.88a33.93,33.93,0,0,0,5.83,4.22c.38.21,2-.6,1.7-1a23.71,23.71,0,0,0-4.46-3.71c-.45-.3-2.11.68-1.62,1.07C115,22,119,22.18,122.55,23.76c.36.16,2.07-.57,1.7-1-1.8-2-4.08-2.14-6.65-1.87-.33,0-1.62.51-1.39,1,1.69,3.73,7,2.4,10.26,2.4.27,0,1.86-.91,1.31-1.11-3.46-1.26-7.19-1.53-10.61-2.9l-1.1,1.07c4.94-1,8.85-2.71,12.31-6.44.69-.74-.91-.32-1.16-.14a40.85,40.85,0,0,0-7.45,6.1c-.7.76,1.08.25,1.37,0,2.51-2.19,4.47-4.94,7.07-7h-1.36c-1.42,1.74-2.49,3.8-4.3,5.19-1,.78.74.51,1.21.15,2-1.51,3.06-3.6,4.61-5.49.68-.84-1.11-.21-1.37,0-2.6,2.1-4.55,4.85-7.08,7h1.37A37.34,37.34,0,0,1,128,15.24l-1.17-.14c-2.88,3.1-6.16,4.41-10.22,5.22-.2,0-1.63.85-1.1,1.07,3.43,1.37,7.15,1.63,10.61,2.9l1.31-1.11c-3,0-7.92,1.28-9.48-2.16l-1.39,1c2.27-.23,4.25-.19,5.87,1.64l1.7-1c-3.55-1.57-7.55-1.78-10.64-4.3l-1.62,1.07a22.19,22.19,0,0,1,4.3,3.56l1.7-1a34.53,34.53,0,0,1-5.83-4.23c-.4-.33-1.66.43-1.71.88-1.08,9.26,15.87,9.27,20.32,4.09.13-.15.25-.49-.08-.49-3.2,0-6.42.38-9.55-.5l-.49.93c3.18-1.7,6.76-2.16,9.5-4.64,1-.87-.76-.55-1.21-.15a13.35,13.35,0,0,1-7.47,3.4c-.79.09-3.38.52-4-.17-1.1-1.36,4.64-2.8,6-3.27,2.84-1,5.25-2.34,6.57-5.17.36-.77-1.44.1-1.62.29-3.91,4.17-11.07,7.3-16.29,3.76-.48-.31-2.1.75-1.62,1.07Z"/><path d="M64.74,50.28c-6.18,4.07-12.79,5.85-20,7.25L45,59.48c6.45-5.92,14.79-9,21.66-14.33.48-.36.12-2.26-.35-1.91-3,2.28-6,4.9-9.45,6.44S49.82,51.35,46.52,53c-.44.22-.31,2,.25,2,8.14-1.18,15.45-5.43,22.84-8.77.46-.21.28-2.07-.25-2-9.08,1.92-19.3,12.45-28.88,8.28l.23,1.82c2.41-4.15,9.13-4.89,13.42-5.5a74.44,74.44,0,0,1,13.75-.75l-.14-2c-6.44,2.38-18.12,5.82-24.09,1L43.79,49c7.07-6.11,19.4-4.32,28.06-4.63.69,0,.27-1.71,0-2C64.3,36,52.88,50.18,44.43,46.15l.14,1.92c7.6-4.24,18.08-2.21,26.41-2.28l-.14-2c-4.52.57-9,1.76-13.46,2.45-4.22.64-11,2-14.43-1.39l-.09,1.87C52.3,43.59,62.23,44.65,72,44.38l-.25-2C66.87,45,61.58,44.57,56.24,44.8c-4.59.19-9.19,1.78-13.79,1.06l.34,1.85c2.44-4.57,11.28-3.26,15.47-2.91,5.14.42,10.52,1.7,15.69,1.3l-.25-2a83.17,83.17,0,0,1-9.43,7.08c-3,2-7.14,5-11,4.77l.42,1.68c1.72-4.1,6.7-6.85,10.32-9.08s7.42-4.2,11.15-6.29l-.45-1.8c-4.37,7.05-12,10.74-17.94,16.26-.42.39-.09,2.28.36,1.9C63.31,53.58,69.86,49,76.34,44.38l-.46-1.8c-5.07,6.61-12.49,10.85-17.43,17.59-.28.38.08,2.19.45,1.8,5.86-6.23,12.91-11.19,18.66-17.54.4-.45,0-2.28-.36-1.91a52.15,52.15,0,0,1-6.5,5.93c-.48.36-.1,2.26.36,1.91a53.74,53.74,0,0,0,6.5-5.93l-.36-1.91c-5.74,6.35-12.8,11.31-18.66,17.54l.45,1.8c4.94-6.73,12.37-11,17.44-17.59.24-.32.09-2.19-.45-1.8-6.48,4.65-13,9.2-19.17,14.3l.36,1.9c6-5.58,13.7-9.33,18.12-16.46.19-.31.19-2.16-.45-1.8C67.91,44.28,56.33,48.46,53,56.31c-.15.37-.16,1.65.42,1.69,3.53.24,7.33-2.42,10.14-4.19a83.56,83.56,0,0,0,10.47-7.75c.33-.29.4-2-.25-2-5.91.46-12-1.13-17.94-1.47-4-.23-11.3-1-13.62,3.37-.22.41-.3,1.75.34,1.85,5,.78,10.18-1,15.21-1.1s9.81-.07,14.32-2.42c.44-.23.33-2-.25-2-9.78.27-19.7-.79-29.15,2.35-.57.19-.42,1.54-.08,1.88,3.12,3.07,8.48,2.43,12.43,2C60.43,48,65.64,46.47,71,45.79c.59-.07.46-2-.14-2-8.45.06-18.91-1.94-26.63,2.37-.46.25-.31,1.71.14,1.92,4.1,2,8.93-.33,12.81-1.85S67.78,41,71.73,44.33l0-2c-8.79.31-21.09-1.5-28.28,4.71A1.57,1.57,0,0,0,43.56,49c6.1,4.94,17.79,1.49,24.32-.93.55-.2.5-2-.14-2a72,72,0,0,0-16,1.11c-3.88.7-9.36,1.7-11.53,5.44-.22.38-.29,1.59.23,1.81,9.68,4.21,20.07-6.31,29.11-8.23l-.24-1.95C61.93,47.59,54.69,51.79,46.63,53l.25,1.95c3.31-1.64,7-1.8,10.36-3.31s6.42-4.16,9.44-6.44l-.35-1.91c-6.88,5.33-15.22,8.41-21.66,14.33-.31.28-.38,2.08.24,2,7.32-1.43,13.91-3.21,20.19-7.34.49-.33.15-2.25-.36-1.91Z"/><path d="M110.78,164c-5.19-1.57-.43-8.33.74-11.25.76-1.89.21-3.09.45-4.95.59-4.56,2-2.87,3.38-.43.68,1.18,1.39,2.34,2.1,3.5,2.39,3.9,6.46,11.81,3.55,16.26-2.41,3.68-5.46,1.26-8.39.08-.49-.2-.5,1.73,0,1.94,2.86,1.15,5.73,3.6,8.32.56,1.86-2.2,1.57-5.9,1.28-8.56a26.76,26.76,0,0,0-3.69-10.59c-1.2-2.08-2.09-4.8-3.44-6.67-.36-.51-.5-1.21-1.21-1.41-2-.56-2.81,1.56-3,3-.21,1.76.74,3.35.26,5.19a31.45,31.45,0,0,1-2,4.34c-1.58,3.6-3.43,9.36,1.64,10.9.54.16.49-1.79,0-1.94Z"/><path d="M111.61,148.64c-1.38-1.56-3.7-3-4.28-5.06l-.64,1.28a5.64,5.64,0,0,1,3.85,3.57l.57-1.51a10.19,10.19,0,0,1-4-3.62l-.25,1.49a3.66,3.66,0,0,1,3.65.88c.76.65,1-1.28.48-1.76a4.48,4.48,0,0,0-4.58-1c-.48.16-.43,1.17-.26,1.49a12,12,0,0,0,4.75,4.49c.69.42.7-1.22.56-1.51-.92-2-2.32-4-4.62-4.45-.66-.14-.77.84-.65,1.28.71,2.57,3,4,4.64,5.92.79.89,1.26-.89.75-1.47Z"/><path d="M114.55,151.9h0a.72.72,0,0,0,.87.72,1.18,1.18,0,0,0,.75-1.18v-.77a.71.71,0,0,0-.86-.72,1.19,1.19,0,0,0-.76,1.18v.3a.72.72,0,0,0,.87.72,1.18,1.18,0,0,0,.75-1.18v-.3a.71.71,0,0,0-.86-.72,1.19,1.19,0,0,0-.76,1.18v.77a.72.72,0,0,0,.87.72,1.18,1.18,0,0,0,.75-1.18h0a.71.71,0,0,0-.86-.72,1.19,1.19,0,0,0-.76,1.18Z"/><path d="M123.6,166.86c-.72-2.36,1.09-6.1,3.13-7.32l-1.38-.78c.15,2.41-.09,6.06-2.65,7.15l1.38.77c-.57-3.13,1.73-6.35,4-8.27l-1.6-.63c.13,2-.86,3.87-1.77,5.56-.59,1.09,1,2.3,1.6,1.17a11.58,11.58,0,0,1,2.93-3.82l-1.6-.89c-.24,1.62-.75,4.14-2.79,4.18-1.27,0-.94,2,.31,2,3,0,4.08-3.44,4.43-5.92a1,1,0,0,0-1.61-.89,12.56,12.56,0,0,0-3.27,4.2l1.6,1.17c1.19-2.21,2.28-4.45,2.11-7a1,1,0,0,0-1.6-.63c-2.8,2.37-5.37,6.28-4.68,10.1a1,1,0,0,0,1.38.77c3.49-1.47,4-5.93,3.79-9.25a1,1,0,0,0-1.38-.77c-3.08,1.85-5.18,6.44-4.11,9.95.37,1.23,2.15.42,1.79-.8Z"/><path d="M26.35,171.37c-6.87,1.64-11.81-3.46-11.68-10.09.07-3.68.18-10.43,2.68-13.38s3.86-.06,5.07,1.88,2.9,3,4.5,4.53c4.83,4.55,6.09,14.43-2,16.6-.89.24-1,2.18.1,1.88C31.64,171,34,163,31.42,157.05c-1.72-3.91-5.86-5.93-8.11-9.47-1.3-2.05-2.38-4.25-5.2-2.73-4.66,2.5-4.92,12.53-5,16.93-.12,7.56,5.5,13.34,13.32,11.47.91-.22,1-2.15-.09-1.88Z"/><path d="M20.64,146.26c-.19-2.57,1-5.93,3.86-6.31l-.59-1.13c-.69,2.52-1.58,5.14-3.73,6.79l.93.95a3.94,3.94,0,0,1,2.9-3.4l-.6-1.13c-.42,1.63-.72,3.54-2.19,4.6-.65.46-.58,2.43.26,1.83,2.05-1.48,2.61-3.8,3.22-6.13.08-.33,0-1.3-.6-1.13a6,6,0,0,0-4.27,5.06c-.11.62.22,1.49.93.94,2.53-1.94,3.62-5.12,4.43-8.08.11-.4,0-1.21-.59-1.13-4.05.54-5.56,5.51-5.29,9,.1,1.3,1.4.18,1.33-.73Z"/><path d="M15.79,170.28c-.76-2.77-3.35-4.57-4.62-7.08L10.8,165c2.34-.57,4.68,2,5,4.13l.55-1.65c-2.61.36-4.42-2.18-5.48-4.23l-.49,1.81a3.58,3.58,0,0,1,3,3.22l.59-1.44a6.36,6.36,0,0,1-4.1-2.27c-.22-.26-.37-.58-.59-.84-.06-.06-.1-.31-.16-.34s-.19.72-.2.72.67,0,.76,0a5.86,5.86,0,0,1,1.37.48c.45.2.92-1.71.3-2-.78-.33-2-.92-2.71-.17a2.55,2.55,0,0,0-.28,2.42,6.68,6.68,0,0,0,5.32,4c.52.05.63-1.11.58-1.43-.27-2.16-1.37-3.85-3.6-4.31-.63-.12-.65,1.51-.49,1.82,1.13,2.16,3.1,4.94,5.88,4.56.62-.08.63-1.19.55-1.64-.44-2.5-3-5.43-5.8-4.76-.54.14-.56,1.42-.37,1.8,1.2,2.37,3.78,4.14,4.49,6.73.29,1,1-.78.81-1.3Z"/><path d="M20.22,153.71c0,.32-.24.26,0,.27.88,0,.23-1.84-.57-1.87s-.9.57-.88,1.18a1.35,1.35,0,0,0,.81,1.13c.48.12.62-.33.6-.71Z"/></svg>