<svg xmlns="http://www.w3.org/2000/svg" viewBox="0 0 141.73 145.9"><defs><style>.a{fill:#efdf15;}.b{fill:#2954cc;}</style></defs><title>fruit2</title><path class="a" d="M81.44,45.25a16.29,16.29,0,0,0,9.48,4.23,70.29,70.29,0,0,0,7.68-.11c6.21-.08,8.67-8.72,8.71-13.71,0-4.42-1.37-14.36-7.74-14.27-2,0-4.09.23-6.14.19a14.43,14.43,0,0,1-3-.3q1.47.41.09-.12c-.89-.53-.87-.46.08.22-1.87-1.59-3.81-2.63-6.29-1.63S80,23.7,79.16,26A22.3,22.3,0,0,0,78,36.76c.45,2.82,1.2,6.55,3.49,8.49Z"/><path class="b" d="M3.94,128.17q-1.68,1.16,2.54-.1c1.31.94,1.6,1.1.86.49.51.22,2,2.57,1.14,1.31-.65-.91-.63-3.05-.1,0-.21-1.23-.69-2.52-1-3.73,1.07,4,.09-.3-.07-1.19.38,2.1-.41,1.93.07.07-.24,2-.27,2.35-.07,1a6.1,6.1,0,0,1-1.11,2.78c.58-.78.43-.65-.44.41.78-.43.92-.51.43-.25,0,.09,1.81.11.39,0q1.32.58,0-.24a10.2,10.2,0,0,1,1.21,1c1.25,1.39-1.3-.36.43.6.69,1.1.66,1-.09-.28q.43.85.81,1.74c.54,1.36.49,1.2-.17-.47.19.62.36,1.25.5,1.88l-.37-1.77q.26,2.34,0-1c0,1.46,0,1.18.16-.84-.25,1.3-.18,1.07.21-.67.52-1,.77-1.13.19-.74l9.1,5.33c-1.24-2.65-.29-.74-.16,0-.73-4.24-3.06-13.72-9.1-13-5.78.73-6.26,10.81-5.58,14.82a53,53,0,0,0,3.94,13.75c1.46,3.12,5.15,8,9.1,5.33,10.9-7.42,7.69-26.26,3.75-36.52-2.92-7.6-11-20.91-21-15.57C-10.92,107.88-8,126.11-5.85,135.3c1.27,5.33,8,26.23,17.09,19.16,4.93-3.81,4.46-12.4,3-17.74-1-3.41-5.27-12.41-10.26-8.55Z"/><path class="b" d="M61.65,90.68c-.52-.19-1-.43-1.57-.58l-2.89-.39c1.39.24,1.68.27.89.07s-4.33-1.5-1.25-.15q2.3,1.08.72.21l2.27,1.73c-1.56-1.5,1,1.5,1.18,1.7-2.16-3.22.67,3.27-.2,0-.34-1.29-.65-2.64-1-3.91-.73-2.32.49,1.29.16,1.68.17-.2-.16-1.59-.16-1.9,0-1.38.19-2.9.06-4.25-.18-1.78-.76,3.29-.25,1.62.2-.68.29-1.46.45-2.15.58-2.4,1-2.72-.38,0,.2-.4,1.19-2.37.16-.6s.74-.79,1-1.16a122.93,122.93,0,0,0,9.57-12.81c2.86-4.57,5.54-9.84,6.69-15.12.4-1.86.62-3.76,1-5.62.06-.32.73-3.79.41-2.27-.21,1,1.32-1.36.09-.13L54.78,36.74a49,49,0,0,0,2,14.92,68.26,68.26,0,0,0,2.45,6.62c0-.06,2,4.93,1.09,2.62l1.35,3.28a115,115,0,0,1,4.5,11.88c.33,1.12.56,2.26.87,3.39s.27,1.83.13.26a39.81,39.81,0,0,1-.14,7.16c-.35,3.7.58-2.71-.14.88-.31,1.53-.59,3.06-1,4.56-.19.65-.44,1.28-.65,1.93,1.13-3.45-.53-.42.91-1.9,3.77-3.88,9.76-5.28,14.23-1.81q1.76,2.46.9,1c-.37-.7-.33-.59.11.34s.45,1.06.19.25a15.41,15.41,0,0,1-.44-1.65c-.5-1.63-.11-.82,0,.42-.07-1-.17-2-.22-3.07-.21-4.61,0-9-.68-13.59-2.11-14.34-25.55-13.63-28.28,0-2.34,11.73-1.51,27.88,7.09,37,5.43,5.73,13.41,8.33,21.05,6s11.82-9,14.19-16a50.41,50.41,0,0,0-.59-33.44c-2.29-6-5.32-11.68-8.13-17.48.87,1.79-.85-2.12-1-2.62-.46-1.33-.88-2.67-1.23-4-.14-.56-.75-4.06-.65-3,.09.85,0-3.19.07-3.89.57-12.85-15.28-17.4-23.84-9.87-5.44,4.79-7.87,11-10.16,17.71-.32.94-1.09,3-.27,1a45.39,45.39,0,0,1-2.13,4.45c-.78,1.41-1.62,2.8-2.51,4.15,0-.06-2.74,3.85-1.36,2C39.11,60.61,34.79,64.3,31.89,69a34.39,34.39,0,0,0-4.53,12.44c-1.9,11.38-.78,23.29,7.1,32.33,9.41,10.79,28.3,11.77,35.79-1.93,4.74-8.68.21-17.9-8.6-21.13Z"/><path class="b" d="M17.85,44.76A20.2,20.2,0,0,0,20.39,35c0-1.32-.2-2.65-.35-4-.28-2.42-.66-4.79-1.11-7.18a30.76,30.76,0,0,0-2.43-7c-1-2.32-3.84-4.73-6-6a16.53,16.53,0,0,0-10.64-2A16.86,16.86,0,0,0-14,20.83c-1.45,4.6-.92,10.16.66,14.71.39,1.14.87,2.25,1.25,3.39s.73,2.1,1.21,3.24A22.72,22.72,0,0,0-7.06,48c6.37,7.65,20.53,5.32,24.91-3.21Z"/><path d="M70.76,108.75c-4.65,5.3-11,10.92-18.42,11.37S39.12,114.94,36,108.57s-3.88-14.08-4.12-21.09c-.32-9.37,2.4-17,8-24.48,5-6.73,11.14-12.52,16.07-19.38,3.28-4.55,11.92-22.33,18.92-16.55,5.09,4.2,3.46,15,4.62,20.83,1.6,7.94,5.31,15.53,8.29,23,3.37,8.49,6.63,17.64,5.39,26.94a22.32,22.32,0,0,1-7.63,14.25c-5.85,5-11,1.9-14.68-3.7-.62-.93-2.3.82-1.78,1.61,4.57,6.86,10.52,9.22,17.16,3.48s9.42-13.79,9-22.41c-.49-10.94-5.51-21-9.43-31-2.1-5.36-4.27-10.8-4.91-16.56-.51-4.58-.41-9.4-1.91-13.82-2.62-7.77-8.86-7.27-13.71-1.93C62,31.42,59.57,35.87,56.78,39.9A150.83,150.83,0,0,1,43.86,56.05c-6.15,6.68-12.31,14.79-13.67,24a61.23,61.23,0,0,0,2.44,26.18c2.54,7.89,8.9,16,17.91,16,8.63,0,16-6.51,21.37-12.61,1-1.13-.17-2-1.15-.92Z"/><path d="M73.87,27.21c.19-2.19,2.11-4.6,3.33-6.33,1-1.45,3.36-5.26,5.44-5.3l-1.06-1.31c-.35,2.87-2.41,5.23-4.36,7.22-1.14,1.15-3.25,2.22-2.91,4a1.18,1.18,0,0,0,1,1c.32,0,.63,0,.94,0,1.5,0,1.68-2.4.18-2.45-.31,0-.62,0-.94,0l1,1-.08-.41-.38,1.17c3.38-3.05,7.18-6.61,7.76-11.36a1.2,1.2,0,0,0-1.06-1.31c-2.94.06-5.25,3.32-6.83,5.43C74.24,20.88,71.83,24,71.56,27a1.16,1.16,0,1,0,2.31.17Z"/><path d="M79.86,26.91c3.25,0,6.5-.82,9.72-1.24,3.78-.49,9.7-1.69,13.31.2,7.34,3.84-5.14,11.38-8.66,12.49-6.9,2.17-12.7-1.57-19-3.69-.72-.24-.25,2.07.53,2.33,8.14,2.72,14.65,6.53,23,2.08,4.15-2.21,9.35-6.63,7.43-11.95-3.22-8.9-20.33-2.63-26.84-2.55-.92,0-.23,2.34.54,2.33Z"/><path d="M77.73,30c5.21,3.7,13.35,4.21,19.54,3.76.75,0,1.3-2.41.41-2.35-5.86.43-14-.06-19-3.58-.74-.52-1.59,1.75-1,2.17Z"/><path d="M85.89,83.93c4.47-3.27,7.68-8.48,11.34-12.58a130.51,130.51,0,0,0,9.52-11.61c1.62-2.31,3.16-4.69,4.84-7,1-1.39,5.27-8,7.39-7.68,6,1-3.69,12.07-5.58,14C109,63.57,105,68.35,101.09,73.19c-1.76,2.16-3.53,4.29-5.46,6.3-1.52,1.6-8.35,9.11-9.25,4-.13-.74-1.78.33-1.66,1,1.34,7.59,12.62-5.23,14.27-7.1,4.53-5.16,8.65-10.65,13.36-15.67,3.73-4,10-8.6,9.84-14.71-.23-8.71-9.25,2.17-10.84,4.25-2.28,3-4.28,6.09-6.44,9.13A153.15,153.15,0,0,1,94.32,73c-2.95,3.32-5.53,7.53-9.1,10.15-1,.72-.3,1.51.67.8Z"/><path d="M92.55,75.84A8.51,8.51,0,0,0,96.82,79c.51.17,1-.34,1.13-.8a1,1,0,0,0-.74-1.16,6.33,6.33,0,0,1-3.06-2.34,1,1,0,0,0-1.6,1.13Z"/><path d="M97.68,70.93A9.55,9.55,0,0,0,101,72.85c.69.2,1.93-1.34,1.17-1.57a8.74,8.74,0,0,1-3.08-1.75c-.59-.5-2,.94-1.43,1.4Z"/><path d="M103.38,68.26c.94,1.32,2.35,2.17,4,1.51.87-.36.63-2.27-.44-1.83s-1.92-.48-2.47-1.25c-.29-.4-.84-.14-1.07.18a1.22,1.22,0,0,0,0,1.39Z"/><path d="M104,62.85a21.56,21.56,0,0,1,3.93,1.74c.92.53,2.2-1,1.21-1.56a23.94,23.94,0,0,0-4.33-1.93c-1-.33-2,1.37-.81,1.75Z"/><path d="M108.38,58.67a8.21,8.21,0,0,0,4.47,2c.85.1.3-1.8-.48-1.89A7,7,0,0,1,108.59,57c-.34-.3-.71,0-.78.35a1.48,1.48,0,0,0,.57,1.29Z"/><path d="M111,54a15.79,15.79,0,0,0,4.31,3.83c1,.68,2-1.06,1-1.72a14.12,14.12,0,0,1-4-3.51c-.71-1-2,.46-1.37,1.4Z"/><path d="M117.62,66.37c-1.43,8.23-4.25,16-7.3,23.75-2.34,5.95-5.26,12-5.79,18.51-.71,8.51,4.43,20,14.63,18.24,10.58-1.87,13.1-14.31,12.53-23.27a101.27,101.27,0,0,0-3.22-19,82.61,82.61,0,0,0-3.54-9.49c-1.51-3.82-1.84-7.67-2.75-11.62a1,1,0,0,0-1.65-.34,9.85,9.85,0,0,0-2,4.61,1,1,0,0,0,1.92.38L122,64.46l-1.65-.34c1.21,5.22,2,9.7,4,14.72a75.69,75.69,0,0,1,4,14.81c1.79,9.53,4.2,26.34-7.57,30.74-6.23,2.32-11.48-2-13.41-7.84-2.13-6.37-.21-12.86,2.08-18.88,3.87-10.18,8.22-20.11,10.1-30.92a1,1,0,0,0-1.91-.38Z"/><path d="M116.82,50.12h.28c1.08,0,.81-2-.15-2h-.29c-1.07,0-.8,2,.16,2h.28c1.08,0,.81-2-.15-2h-.29c-1.07,0-.8,2,.16,2Z"/><path d="M110.43,112c3.68.49,6,3.8,9.85,4.09.61,0,1.34-.84,1-1.41-1-1.62-3-3.33-2.33-5.41l-1.22.7c1.49.48,3.26,1.61,4.88,1.59,1.1,0,1.49-1.86.22-1.85s-3.07-1.11-4.41-1.54a1.08,1.08,0,0,0-1.21.7c-.87,2.84.91,4.51,2.34,6.78l1-1.41c-3.54-.26-5.86-3.57-9.39-4-1.06-.14-1.89,1.64-.69,1.81Z"/><path d="M117.15,103.43a9.5,9.5,0,0,1,.06-2.44l-1,1a14.36,14.36,0,0,1,5.88.82l-.33-1.37c-1.1,1.36-1.07,2.69-.9,4.35a.72.72,0,0,0,.74.67c2.72-.08,3.88-2.36,3.34-4.84-.27-1.23-2-.48-1.74.55.28,1.3.23,2.35-1.34,2.4l.74.67c-.12-1.14-.25-1.94.52-2.91a.87.87,0,0,0-.33-1.37,15.48,15.48,0,0,0-6.32-.86,1.14,1.14,0,0,0-1,1,10.66,10.66,0,0,0-.08,2.93c.2,1.24,1.91.48,1.74-.56Z"/><path d="M115.71,92.51a9.28,9.28,0,0,0,5,3c1.25.25,1.4-1.67.24-1.91a7.51,7.51,0,0,1-4.14-2.52.92.92,0,0,0-1.33.08,1,1,0,0,0,.19,1.37Z"/><path d="M126,97.21a1.35,1.35,0,0,0-1.52-1.37,1,1,0,0,0,.13,2c-.42-.69-.61-.84-.6-.46a1,1,0,0,0,1.06.92,1,1,0,0,0,.93-1.07Z"/><path d="M0,42c2.88,4.33,8.57,3.27,11.81-.26,4.67-5.08.58-9.74-1.74-14.68C8,22.58,9.21,18.35,8.15,13.82A7.51,7.51,0,0,0,5.51,9.31C1.45,6.42-3.1,10.77-4,14.67c-.16.68.95,2.18,1.21,1.06,1.57-6.66,9.42-7.4,10.09,1.08.2,2.56-.18,5.11.52,7.64.79,2.86,2.92,5,3.94,7.7,1.83,4.9-.08,8.4-4,10.1C5.11,43.38,2.37,43.5.51,40.7-.2,39.62-.43,41.34,0,42Z"/><path d="M2.55,12.89A4.67,4.67,0,0,1,4,8.48l-.65-.41A7.33,7.33,0,0,1,2.22,13L3,14c.38-2.14.94-4.24,1.44-6.35l-.91-.6c-.42,2.47-1,4.91-1.41,7.39-.14.91.7,1.94.91.6.4-2.48,1-4.92,1.41-7.39.15-.9-.59-1.94-.91-.6C3,9.16,2.44,11.26,2.06,13.4c-.07.39.2,1.95.75,1a10.84,10.84,0,0,0,1.5-7.31c0-.32-.32-.69-.64-.4-2,1.82-2.42,4.52-2,7.12.05.38.31.61.65.4s.32-1,.27-1.35Z"/><path d="M-3.16,119.79c.31-4.43,5.7-10.16,10.43-9.46,5.35.78,3.38,8.57,2.87,12.47,0,.12,0,1.61.3,1.49,6.37-2.6,11,3.23,12,9.09,1.12,6-4.54,18.49-12.59,14.76-.3-.14-.45,1.75,0,1.94,7.75,3.58,13.67-7.57,13.52-14.08-.15-6.79-4.73-17.11-13-13.71l.3,1.49c.51-3.88,2.32-11.2-1.12-14.39-5.22-4.83-12.84,4.52-13.19,9.42,0,.46.42,2.23.51,1Z"/><path d="M11.86,121.91a21,21,0,0,1,2.2-4.36l-1.25-1.21a7.93,7.93,0,0,1-1.61,5.28l1.23,1.4a4.32,4.32,0,0,1,3.65-3.31l-.87-1.77a15.18,15.18,0,0,0-2.83,1.79c-.54.37.31,1.82.87,1.76a16.49,16.49,0,0,0,3.49-.49l-1-1.73c-1.16.79-2.72,2.22-4.24,1.91-.88-.17-.16,1.62.44,1.74,1.85.37,3.36-.94,4.8-1.92.58-.39-.37-1.93-1-1.73a16,16,0,0,1-3.24.43l.88,1.76a15.18,15.18,0,0,1,2.83-1.79c.57-.23-.33-1.87-.87-1.76a4.92,4.92,0,0,0-4.19,3.86c-.08.41.78,2,1.23,1.39a8.87,8.87,0,0,0,1.73-5.94c0-.31-.81-1.87-1.24-1.21a21.16,21.16,0,0,0-2.2,4.35c-.23.63,1,2.13,1.19,1.55Z"/><path d="M69.42,117.68a13.66,13.66,0,0,1,.49-5.05l-.6.16a15,15,0,0,1,.25,4.53c0,.29.3,1.59.6.75a39.25,39.25,0,0,0,1.42-5.75l-.72,0c.15,1.82.35,3.64.68,5.44.11.59.49.64.65,0a10.13,10.13,0,0,0,0-5.38c-.09-.38-.28-.32-.49-.11s-.21,1-.17,1.28c.21,1.81,1,3.48,2.91,3.94.33.09.42-.84.43-1a6.73,6.73,0,0,0-1.52-5c-.26-.31-.49.56-.51.66a1.6,1.6,0,0,0,.19,1.25,4.15,4.15,0,0,1,1.09,3.09l.44-1a3.1,3.1,0,0,1-2.32-2.92l-.66,1.18a5.38,5.38,0,0,1,0,2.95l.65,0a48.72,48.72,0,0,1-.63-5c-.08-.88-.55-.9-.73,0a34.89,34.89,0,0,1-1.17,4.87l.6.75a19.46,19.46,0,0,0-.4-6c-.16-.59-.48-.17-.6.16a17.85,17.85,0,0,0-.65,6.59c.06,1.36.79.36.75-.49Z"/></svg>