<svg xmlns="http://www.w3.org/2000/svg" viewBox="0 0 141.73 173.3"><defs><style>.a{fill:#ed3895;}</style></defs><title>fruit3</title><path class="a" d="M56.44,66.74c.16-.33,1-2.6.67-1.41-.14.61.68-.18,0,0-1.26.34.94-.5,1.26-.62-1,.4-.86.31.09.06s1.61-.44,2.45-.6c1.73-.33-2.42,0,.82,0,1.67-.05,3.33-.05,5,.06a28.82,28.82,0,0,1,8.21,1.55c.68.22,4.31,1.69,2.56.87,1.79.85,3.51,2,5.47,2.34,11.54,2.16,18.68-12.67,8.15-19.31-3.51-2.21-8.39-2.72-12.37-3.76A88.54,88.54,0,0,0,63.94,43C53.52,42,42.31,45.71,37.48,55.66,34.89,61,36,67.53,41.42,70.68c4.81,2.82,12.42,1.42,15-3.94Z"/><path class="a" d="M38.12,25.94C45.29,32.77,56.41,35.09,66,36.27A58.93,58.93,0,0,0,94.3,33.22c5.71-2.18,9.64-7.64,7.91-13.94-1.49-5.44-8.2-10.14-13.93-7.91A41.37,41.37,0,0,1,67.45,14C60,13,52.06,9.65,44.51,10.5c-7.28.81-12.57,9.55-6.39,15.44Z"/><path class="a" d="M22.77,105.78c2.11,4.75,8.18,7.6,13.16,7.43a13.42,13.42,0,0,0,9.23-3.95,13.63,13.63,0,0,0,3.21-12.59,14.26,14.26,0,0,0-6.45-9.06,14,14,0,0,0-10.83-1.33,15.85,15.85,0,0,0-10.73,18.58,11.46,11.46,0,0,0,5.27,6.85,11.81,11.81,0,0,0,7.3,1.35,10.89,10.89,0,0,0,6.58-3.15l1.79-2.31a11.33,11.33,0,0,0,1.56-5.79c0-.36,0-.72.09-1.08l-.41,3a6.25,6.25,0,0,1,.27-1l-1.15,2.74a6,6,0,0,1,.63-1.14l-1.79,2.31a6.1,6.1,0,0,1,.86-.9l-2.3,1.78a6.18,6.18,0,0,1,1-.61l-2.71,1.14a3.28,3.28,0,0,1,.83-.22l-3,.4a2.94,2.94,0,0,1,.42,0l-3-.4a2.59,2.59,0,0,1,.61.15l-2.67-1.13a3.53,3.53,0,0,1,.59.35l-2.26-1.74a3.52,3.52,0,0,1,.53.56l-1.73-2.24a5.54,5.54,0,0,1,.58,1.07l-1.1-2.63c.08.25.15.49.21.75L27,100.08a3.54,3.54,0,0,1,0,.86l.39-2.89c0,.13-.06.25-.1.37l1.09-2.59a3.67,3.67,0,0,1-.26.48l1.68-2.18a3.41,3.41,0,0,1-.37.39l2.17-1.68a3.81,3.81,0,0,1-.65.38l2.56-1.08a4.92,4.92,0,0,1-1.18.32l2.81-.37a6.19,6.19,0,0,1-1.29,0l2.77.37a6,6,0,0,1-1.05-.29l2.45,1a4.72,4.72,0,0,1-.92-.54l2,1.59a3.82,3.82,0,0,1-.45-.45l1.57,2-.13-.17c-1.66-2.17-3.25-3.86-6-4.62a10.31,10.31,0,0,0-7.74,1,10.15,10.15,0,0,0-4.61,6l-.36,2.67a10,10,0,0,0,1.37,5.07Z"/><path class="a" d="M58.74,104.37c.45.41.85.86,1.28,1.29a12.39,12.39,0,0,0,5.23,3.14A10.54,10.54,0,0,0,75.52,106c2.37-2.4,3.08-5.35,3.19-8.59a9.4,9.4,0,0,0-1.3-4.8A7.35,7.35,0,0,0,75,89.91a7.14,7.14,0,0,0-3.24-1.7,9.69,9.69,0,0,0-5.07,0,5.36,5.36,0,0,0-1.22.37l-2.18.92a6.84,6.84,0,0,0-2.55,2.34,4.64,4.64,0,0,0-1.17,2,6.79,6.79,0,0,0-.78,3.5A10.66,10.66,0,0,0,60,101.94a9.31,9.31,0,0,0,5.44,4.18l.82.28-2.24-1,.37.17L61,92.59l-.27.36,1.51-2a6.76,6.76,0,0,1-.94,1l2-1.56-.14.08,2.39-1a.35.35,0,0,1-.14,0l2.66-.35H67.9l2.66.35-.14,0,2.39,1-.22-.13,2,1.56c-.63-.49-1.1-1.18-1.68-1.73a10.42,10.42,0,0,0-7.1-3A7.53,7.53,0,0,0,62,88.1a7.45,7.45,0,0,0-3.23,2.08,10,10,0,0,0,0,14.19Z"/><path class="a" d="M43.65,126.4c-.15,1.06-.73,7.3-.12,2.33-.33,2.68-.46,4.76.62,7.32a12,12,0,0,0,14.3,6.68A16.08,16.08,0,0,0,66,137.9a18.74,18.74,0,0,0,4.68-11c.46-3.76-2.46-7.93-5.57-9.71-11.48-6.54-31.25,3.44-27.95,17.86a11.81,11.81,0,0,0,8.28,8.28,12.11,12.11,0,0,0,11.53-3c1.76-1.6,2.46-3.4,3.3-5.49.64-1.58-1.47,3-.6,1.52s-2.09,2.26-.79,1c.36-.34,2-1.74.23-.37s-.16.22.24-.06c1.81-1.24-1.94.71-.93.41,1.17-.34-3.36.15-1.2.2.94,0,.29-.05-1.93-.26q-3-1.44-1.53-.64l-5.57-9.71c.14-1.28,0-3,1-3.94a3.73,3.73,0,0,0-.38.68c-1,1.45,1.94-2.33.76-1s2.3-1.41,1.25-.9c-.56.27-2.5,1.26-.25.28,2.87-1.23-1.41.44-1.8.69l4.79-1.31c2.34.48,3,.57,2.09.26l4.35,2.53-.23-.23,2.5,4.28a7.39,7.39,0,0,1-.45-1.81c-.53-3.89-5.39-7.1-9.12-6.94s-8.51,2.78-9.11,6.94Z"/><path class="a" d="M81.54,135a24.29,24.29,0,0,0,2.72,3.42A27.33,27.33,0,0,0,87,140.6a3.51,3.51,0,0,0,.4.27l.21.09a23.54,23.54,0,0,0,3,1.26l.17.05.11,0,3.19.43a13.14,13.14,0,0,0,3.79-.48,13.42,13.42,0,0,0,5.74-3.33l.23-.24c.37-.4,1.64-2,1.93-2.51-1.51,2.38,1-2,1.24-2.95.76-3.19.5-4.37.06-7.5l.41,3a15.82,15.82,0,0,0-1.91-7l-.17-.28c-.27-.42-.75-1-.94-1.24s-.62-.87-.95-1.22c-.15-.16-.32-.3-.48-.45a12.19,12.19,0,0,0-5.16-3,13.58,13.58,0,0,0-1.73-.26,9.87,9.87,0,0,0-1.77-.19,11.38,11.38,0,0,0-3.64.6,12.59,12.59,0,0,0-4.93,2.84,11.37,11.37,0,0,0-2.86,4.9,7.69,7.69,0,0,0-.19,4.06A7.67,7.67,0,0,0,84,131.25l1.59,2.07a10.13,10.13,0,0,0,4.5,2.61c2.2.83,4.38.23,6.57-.11l-2.8.38a2.15,2.15,0,0,1,.62,0l-2.81-.38a2.46,2.46,0,0,1,.45.11l-2.54-1.06a2.11,2.11,0,0,1,.33.18l-2.16-1.66a1.59,1.59,0,0,1,.29.29l-1.66-2.16.08.13-1.07-2.55a1.87,1.87,0,0,1,.09.41l-.38-2.88a2.89,2.89,0,0,1,0,.72l.39-2.93a4.06,4.06,0,0,1-.28,1l1.15-2.71a3,3,0,0,1-.39.65L87.73,121a3,3,0,0,1-.53.54l2.4-1.86c-1,.75-1.95,1.53-2.92,2.29l2.42-1.87a1.6,1.6,0,0,1-.34.2l2.87-1.21a1.28,1.28,0,0,1-.28.07l3.19-.43a1.37,1.37,0,0,1-.35,0l3.19.43A2.13,2.13,0,0,1,97,119l2.87,1.21a2.14,2.14,0,0,1-.52-.32l2.44,1.88a4.41,4.41,0,0,1-.82-.85l1.89,2.45-.4-.56a9.17,9.17,0,0,0-3.11-3.4,9.07,9.07,0,0,0-4.11-2.16,9.2,9.2,0,0,0-4.82-.22,9,9,0,0,0-4.5,1.44l-2.44,1.89a12.06,12.06,0,0,0-3.11,5.33l-.44,3.22a12,12,0,0,0,1.66,6.1Z"/><path class="a" d="M95.53,103.34A17.1,17.1,0,0,0,106.16,108a15.68,15.68,0,0,0,8.27-2.09,14.81,14.81,0,0,0,6.65-8.42c1.23-3.75.2-7.62-1.44-11l1.12,2.65-.14-.37c-1-2.65-2.49-5.25-5.11-6.64A11.42,11.42,0,0,0,107,80.94c-7.67,2.24-15.6,8.18-15.61,17A11.51,11.51,0,0,0,113.92,101c.15-.45.24-.91.41-1.36l-1.16,2.75a8,8,0,0,1,.78-1.28l-1.79,2.31a11.33,11.33,0,0,1,1.75-1.71l-2.29,1.77a16.73,16.73,0,0,1,3.55-2.05l-2.66,1.12.35-.13L99.19,94.61l.16.37L99,92a4.87,4.87,0,0,1,0,1.08l.41-3a3.48,3.48,0,0,1-.18.63L100.33,88a6.46,6.46,0,0,1-.78,1.38l1.8-2.32a3.92,3.92,0,0,1-.46.45l2.33-1.8a5.53,5.53,0,0,1-.84.51l2.75-1.16a5.6,5.6,0,0,1-1,.27l3-.41a5.26,5.26,0,0,1-1,0l3.06.41a5.87,5.87,0,0,1-1.09-.3l2.75,1.16a6.36,6.36,0,0,1-1.06-.64l2.33,1.8-.35-.29a12.21,12.21,0,0,0-8.13-3.37,11.51,11.51,0,0,0-11.51,11.5c.14,2.92,1.08,6.16,3.37,8.13Z"/><path d="M76.25,147.88c-7.06-.13-13.14-2.81-19-6.53-4.89-3.09-10.7-6.35-14.5-10.8-7.53-8.79-9.59-22.18-13.42-32.85C21.92,77.06,11.44,51,26.56,31.19c7.74-10.11,19.5-15.36,32-16.07,7.2-.41,14.2.82,21.3,1.73s12.95,1,19.26,4.9c9.72,6.07,19.62,12.84,20.6,25.34.59,7.44-2.67,13.19-5.62,19.7a73.84,73.84,0,0,0-5.39,16.8c-2.53,13.33-3.06,26.69-8.59,39.35-3,6.82-7.11,12.74-13.58,16.61-6,3.55-12.77,5.18-19.5,6.49-.85.17-.57,2.14.26,2,12-2.33,23.67-6.27,30.46-17.19s9.27-24.52,10.9-37.19c1.15-8.91,2.76-17.33,6.51-25.56,2.47-5.44,5.42-10.6,5.85-16.68.79-11.32-5.08-20.13-14-26.52-4.77-3.43-10.21-7.58-16.07-8.8-3.35-.7-6.84-.68-10.23-1.08-4.21-.5-8.38-1.28-12.6-1.64-13.31-1.14-26.87,1.3-37.1,10.41C11.2,41.47,17.59,68.3,25.29,90.3c2.42,6.92,5,13.78,7.18,20.77,2.08,6.58,4.17,13.48,8.16,19.19,3.82,5.44,10,8.93,15.53,12.46,6.29,4.05,12.76,7,20.35,7.14.82,0,.62-2-.26-2Z"/><path d="M66.54,22.71C57.7,21,41.92,23.88,38.48,12.91l-1.19,1.21c4.08,1.6,8,1.76,12.24,2.2,4.94.52,9.25,3.2,14.14,3.72,3,.32,4.36-.66,6.8-2.09C75.38,15.05,81,15,86.59,15.06l-1-1.27c-.75,5.48-12.33,6.55-16.64,7.57-1.23.29-.69,2.14.52,1.93,4.19-.72,8.27-1.94,12.42-2.85,4.45-1,10.82-2.57,15.25-.66s-1.43,2.68-3.55,2.9-4.32.18-6.48.25c-6,.2-11.7,1.86-17.66,2-1.26,0-1.24,2,0,2,6.8-.2,13.4-1.89,20.21-2.09,4.3-.12,8.79-.26,12.16-3.25a1,1,0,0,0,0-1.41c-9-7.27-23-.55-32.85,1.15l.52,1.93c5-1.19,17.09-2.25,18-9a1,1,0,0,0-.94-1.27,47.62,47.62,0,0,0-11.43.83c-3.86.93-7.33,4.4-11.26,4.1-4.08-.31-7.77-2.65-11.79-3.37-4.88-.87-9.59-.58-14.31-2.42-.71-.28-1.39.55-1.19,1.21C40.44,25.65,56.24,22.75,66,24.63c1.25.24,1.73-1.69.5-1.92Z"/><path d="M48.58,139c-.73,3.2-.13,6.19.32,9.39.57,4,.33,7.1-3.42,9.83-1.95,1.42-5.12,1.9-7.42,2.21-.54.07-1.81,1.57-.86,1.58h1.61c.62,0,1.76-1.58.86-1.58H38.06L37.2,162c4.28-.57,9.62-2,12.22-5.83,3.57-5.18-.64-12.05.65-17.69.25-1.09-1.35-.11-1.49.51Z"/><path d="M90.16,139.39c-.91,3.41-.59,6.84-.15,10.3.37,2.86.35,6.27,1.76,8.88,2.33,4.29,7.19,4.42,11.48,3.63,1.18-.21.58-2.11-.54-1.91-5.56,1-9.46-.36-10.35-6.48-.64-4.49-1.6-9.35-.41-13.81.3-1.12-1.46-1.84-1.79-.61Z"/><path d="M26.88,93.9c-1.3,3.8-2.53,7.63-3.46,11.53-.85,3.52-.89,7.22-1.87,10.69-2.12,7.46-10,11.38-13.47,18.14-.57,1.09,1.2,1.92,1.78.78,3.38-6.57,11.05-10.32,13.35-17.53.94-3,1-6.11,1.52-9.14a98.45,98.45,0,0,1,3.93-13.68c.4-1.16-1.37-2-1.78-.79Z"/><path d="M20.18,121.63c-.8,2.88-.27,5.88-1.06,8.75-.71,2.59-1.91,4.81-2.13,7.52,0,.39.23,1,.71.9a3.3,3.3,0,0,0,1.5-.47c.83-.41.73-2.37-.29-1.86l-1.11.37.71.9c.23-2.86,1.74-5.28,2.31-8,.52-2.56.09-5.16.79-7.71.33-1.2-1.11-1.56-1.43-.36Z"/><path d="M22.22,119.58c0,3.45,2.15,7.25,3.65,10.23,1.05,2.09,2.44,6,4.72,7.11,1.17.55,1.91-1.24.78-1.78-1.9-.91-3.54-5.64-4.33-7.29-1.17-2.45-2.92-5.6-2.89-8.4,0-1.25-1.92-1.15-1.93.13Z"/><path d="M107.41,95.25h.45A1.07,1.07,0,0,0,109,94.4a.92.92,0,0,0-.8-1.07h-.46a1.07,1.07,0,0,0-1.13.85.92.92,0,0,0,.81,1.07Z"/><path d="M107.46,95.15c5.55,11.13,12.44,21.5,18.36,32.43.4.74,1.34.71,1.24-.29a5,5,0,0,0-.59-2.21c-.57-1.19-1.59-.18-1.12.8l.35,1.18,1.24-.29c-5.92-10.92-12.8-21.3-18.35-32.42-.59-1.18-1.61-.17-1.13.8Z"/><path d="M124.57,128.91c-.79,2.18-1.58,4.36-2.42,6.53-.45,1.17-.91,2.34-1.4,3.49-.27.64-.88,3-1.48,3.32l1.18.25a2.29,2.29,0,0,0,.31-.55c.49-1.06-1.31-.58-1.62.08a5.13,5.13,0,0,0-.45.91c-.2.75.88.42,1.18.26,1.84-1,2.51-4.34,3.25-6.18,1.14-2.82,2.17-5.69,3.21-8.55.32-.87-1.52-.22-1.76.44Z"/><path d="M126.07,127.3c-1.6,5.28.52,10.94-1.83,16-.23.48,1.31-.45,1.51-.89,2.37-5.14.23-10.77,1.84-16.05.17-.57-1.38.43-1.52.89Z"/><path d="M126.35,129.53c1,1.33,6.71,10.53,4.79,11.6-.42.23-1,2.05-.37,1.72,4.88-2.71-1.53-12.32-3.46-15-.29-.4-1.28,1.24-1,1.68Z"/><path d="M47.65,37.27c-2.38.59-4.87,1.09-6.92,2.52-1.36,1-2.89,2.93-4.63,1.46-2.5-2.11.24-6,2.3-7,4.5-2,12.44-.43,14.22,4.61l1.44-1.2c-2.71.07-5.41,0-8.12,0-.56,0-1.64,1.25-1.48,1.25,2.79,0,5.57,0,8.36,0,.36,0,1.59-.75,1.43-1.2-2.36-6.7-13.18-6.71-18-2.91-2,1.62-4.21,5.32-1.79,7.6a2.91,2.91,0,0,0,3.37.34,10.53,10.53,0,0,0,1.61-1.12,19.83,19.83,0,0,1,7-3.13c.44-.1,1.7-1.35,1.24-1.23Z"/><path d="M42.62,34.67a7,7,0,0,0-.38,4.58c0,.22.19.91.49.92,4,.13,4.11-5.49.93-6.82a.09.09,0,0,0-.14,0,6.1,6.1,0,0,0-1.33,5.21s.3,1.35.54,1.17c1.68-1.22,1.75-3.22,1.3-5.1,0-.12-.24-1-.49-.91-.48.17-1.31.29-1.62.74s-.21,1.55-.24,2.14c0,.28.11,1.67.57,1.62A6.59,6.59,0,0,0,45,37.49c.46-.27-.22-2.08-.44-2a6.37,6.37,0,0,1-2.7.77l.56,1.62c0-.41-.13-1.29.15-1.64s1.07-.44,1.44-.58l-.49-.91a2.85,2.85,0,0,1-1.18,3L42.84,39a4.1,4.1,0,0,1,.84-3.27c.35-.4.58-.37,1-.06.16.11.29.3.45.4l.13.17c0-.22,0-.25-.05-.1a2.75,2.75,0,0,1-2.92,2.08l.49.92a4.07,4.07,0,0,1,.4-2.61,1.92,1.92,0,0,0-.08-1.25c0-.07-.35-.88-.49-.6Z"/><path d="M95.79,38.94c-4.25.06-8.33-1.86-12.49-1.84-.13,0-1,.14-1.1.1a4.15,4.15,0,0,0-.76.23l1.41-3.51c.93-.78,3.17-.82,4.34-1,2.67-.3,8.45-.88,10.26,1.73,2.81,4.06-4.59,3.63-6.72,2.92-.84-.28-2.23,1.1-1.18,1.45,2.75.92,8.93,1.5,10.23-2.07,2.08-5.67-7.65-5.88-10.68-5.72s-11.67,1.19-9.89,6.19c.82,2.32,2.3,1.15,4.14,1.28,4.1.29,8,1.8,12.14,1.75,1,0,1.61-1.58.3-1.56Z"/><path d="M87.79,37.83A6.57,6.57,0,0,1,87.92,35c.11-.35.6-.84,0-.51s-.15.13.17.28c1.3.64,1.23,2.78,1.09,3.94l1.72-.94c-1.11-1.12-2.15-3.46-.52-4.66l-1.23.41a6.31,6.31,0,0,1,.36,4.38l1.65-1c-.84-.14-.8-.68-1.11-1.34-.15-.33-1.91.6-1.71,1,.34.73.34,1.29,1.25,1.43a2,2,0,0,0,1.65-1,6.62,6.62,0,0,0-.38-4.55c-.13-.29-1.13.36-1.22.42a3.63,3.63,0,0,0-.45,5.89c.32.32,1.67-.57,1.72-1,.17-1.42,0-4.78-2.24-4.27-2.54.56-2.9,3.13-2.63,5.31,0,.18,1.79-.46,1.72-1Z"/><path d="M60.76,58.13A46.42,46.42,0,0,0,53.48,61c-2.28,1-7.79,4.43-10.29,3.55-5.72-2,6.68-12.29,8-13.12a29.6,29.6,0,0,1,16-5.16c7.24-.13,21.08,1.85,20.85,11.85-.14,6.24-10,1.56-13.74,1.3-5.18-.36-10.36.5-15.51.07-1-.09-1.68,1.65-.42,1.76,3.92.32,7.84-.29,11.77-.23a31.16,31.16,0,0,1,8.41.87c1.69.51,3.19,1.46,5,1.6,3.1.24,5.81-1.42,6.31-4.58,1.92-12.15-15.44-14.82-23.68-14.35A32.44,32.44,0,0,0,48.87,51c-3.45,2.48-8.58,7-8.9,11.58-.62,9,17.62-2,20.85-2.78,1-.27,1.21-2-.06-1.71Z"/><path d="M46.72,53.64c1.15,1.5,3.18,3.77,5.32,2.76s2-3.95,1.92-5.83c-.08-1.28-2-1-1.93.31,0,.86.24,3.17-.77,3.68s-2.52-1.52-3-2.16c-.78-1-2.3.24-1.54,1.24Z"/><path d="M77.75,48.65a7.37,7.37,0,0,0,.16,5.72.94.94,0,0,0,1.31.36,27.59,27.59,0,0,0,5.16-4.68c.89-.9-.41-2.32-1.32-1.4A25.82,25.82,0,0,1,78.32,53l1.31.36a5.38,5.38,0,0,1,0-4.24c.4-1.23-1.47-1.69-1.86-.49Z"/><path d="M58,61.09c1.58-2.15,2.25-4.75,3.65-7l-.47.31a28.79,28.79,0,0,1,1.42,3.72c.27.75.46,2.17,1,2.77.17.2.39-.18.47-.31a2.26,2.26,0,0,0,.39-1.45c-.08-.52-1,1-.9,1.51a.5.5,0,0,1,0,.12L64,59.46h0l.47-.31a9,9,0,0,1-1-2.78A29.36,29.36,0,0,0,62,52.66c-.13-.24-.43.25-.47.31-1.33,2.13-2,4.63-3.43,6.65a2.22,2.22,0,0,0-.51,1.32c.06.28.11.53.39.15Z"/><path d="M70.8,59.4c-1-2.15.09-4.13,1.37-5.88l-1.36.36a15.69,15.69,0,0,1,2.41,5.88c.13,1.07,1.83.16,1.73-.64a16.75,16.75,0,0,0-2.63-6.55c-.3-.48-1.16.1-1.36.37-1.58,2.14-3.09,4.8-1.84,7.46.41.87,2-.27,1.68-1Z"/></svg>