<svg xmlns="http://www.w3.org/2000/svg" viewBox="0 0 141.73 123.54"><defs><style>.a{fill:#ed2c64;}.b{fill:#ed3895;}</style></defs><title>fruit1</title><rect class="a" width="141.73" height="123.54"/><path class="b" d="M112.36,90.83c0,2.33.38-1.83.38-2.07a11.1,11.1,0,0,0-.68-3.61,22,22,0,0,0-4-6.71c-.16-.2-1.35-1.74-.51-.64s-.33-.47-.47-.67c-.32-.48-.58-1-.93-1.5-.83-1.06.69,2.28,0,0l-14,14c1,.3,2,.65,3,1-2.29-.74.38.23.78.44.8.42,1.55.9,2.34,1.36,2.37,1.4-1.6-1.61.3.2.59.56,1.16,1.15,1.75,1.68l.54.59q-2.3-3,1,1.25A14.69,14.69,0,0,0,103,97.28c3.37,3.17-2.3-2.89-1.84-6.29l1.64-6.07a11.17,11.17,0,0,1,2.15-2.4L104,83a2.66,2.66,0,0,1,1.61-.57c.79-.07.82-.1.1-.08a9.2,9.2,0,0,0-1,0,20.13,20.13,0,0,0-4.63.73c-8.38,2.51-10.62,12.49-5,18.8,5.94,6.61,16.16,5.44,22.89.81,4.05-2.79,7.11-6.53,7.21-11.74a13,13,0,0,0-4-9.63c-2.94-2.74-5.49-5.71-8.87-8-4.19-2.83-9.25-4.45-14.1-5.72-8.07-2.11-16.72,5.54-14,14a31.43,31.43,0,0,0,6.22,10.6c2.65,3.24,5.39,6.32,9.71,7.21L95.9,97l.52.48c5.82,5.37,16,1.74,15.94-6.6Z"/><path d="M27.59,31.82c-6.11-2.18-10.74,5.43-12.12,10.29-1.92,6.74.36,13.67,7.36,16,8.63,2.9,22-1.82,23.88-11.62C48,40,39,29,32,31.82c-1,.4-.32,2.26.75,1.83,3.68-1.46,8.08,3,10.09,5.59,3.06,3.93,2.9,8.24-.64,12-5,5.22-14.13,7.74-20.74,4.28-5.2-2.72-5.81-8.65-4-13.74,1.24-3.51,5-9.75,9.6-8.1,1.15.41,1.57-1.48.56-1.84Z"/><path d="M29.29,33.94c1.7-2.84,2.52-6.2,4.94-8.57.37-.36.43-2.27-.08-1.77-2.53,2.47-3.38,5.89-5.15,8.85-.25.43-.23,2.36.29,1.49Z"/><path d="M46.21,85.48c-4.66,3.73-5,12.89-.1,16.64C52.43,106.94,62,101,66.09,96c3.4-4.14,5.4-10.45,1.79-15.08-3-3.92-8.79-5.33-13.52-4.46-5.46,1-9.15,5.15-9.1,10.73,0,1,1.72.12,1.71-.62C46.88,75.4,63.6,75.07,67.45,84c3,7.06-4.08,14.73-10.16,17.14-4.47,1.78-9.92,1.37-12-3.5-1.47-3.43-1.46-8.76,1.67-11.27,1-.76.22-1.67-.73-.91Z"/><path d="M41.47,83.1c1.72,1.71,3.91,2,6.25,2,.74,0,1.32-1.91.46-1.9-2.11,0-4.12-.15-5.68-1.71-.61-.61-1.55,1.13-1,1.66Z"/><path d="M84.83,38.42c-3.8-2.86-9,2.56-11,5.28-3,4-5.62,10.52-1.41,14.66,4.46,4.39,14,4.53,18.61.41,4.1-3.62,5-9.93,3.43-15-1.68-5.56-6.36-8.55-11.62-5.26-1.07.67-.13,1.91.92,1.26,5.48-3.43,9,2.8,9.45,7.56.67,6.29-2.58,12.21-9.37,12.55S70,56.63,72.69,49c1-2.84,6.8-12.18,10.84-9.14.79.59,2.18-.82,1.3-1.48Z"/><path d="M83.77,39.78c1.11-3.64,1.66-7.62,3.46-11,.55-1,0-1.39-.6-.34-2,3.72-2.66,7.94-3.88,11.93-.37,1.22.86-.06,1-.59Z"/><path d="M104.45,81.52c-4.46,4.19-6.26,12.36-3,17.79,3.61,6,11.35,1.84,15-1.88,3.92-4,7.07-11.13,3.22-16.21a13.45,13.45,0,0,0-9-4.63c-3.28-.23-5.18,2-6.68,4.59-.59,1,.07,1.36.66.34,3.2-5.53,11.57-2.54,14.37,2,3,4.89-.1,10.78-4.14,14-2.71,2.14-7.08,4.36-10.43,2.29-5.28-3.25-4-13.19-.23-16.75.35-.33.92-2.18.19-1.5Z"/><path d="M99.94,79.72a15.89,15.89,0,0,0,6.85,3.48c1.18.29,1.88-1.57.64-1.87a14,14,0,0,1-6-2.94c-.92-.8-2.42.53-1.49,1.33Z"/><path d="M112.3,32.86c-2.9-2.55-5.36-6.66-2.89-10.35A5.42,5.42,0,0,1,117,20.94a8.53,8.53,0,0,1,2.84,10.27c-2.83,6.29-9,1.53-12.59-1.1-1-.76-2.23.84-1.2,1.59,2.56,1.9,5.34,4.42,8.68,4.68a7,7,0,0,0,6.55-3.65,10.51,10.51,0,0,0-3.08-13.39,7.42,7.42,0,0,0-10.36,2c-3.2,4.61-.46,9.87,3.25,13.14,1,.84,2.16-.77,1.21-1.6Z"/><path d="M120.63,24a24.23,24.23,0,0,0,6.81-5.34c.75-.93-.4-2.21-1.22-1.19a21.56,21.56,0,0,1-6,4.74c-.91.54-.64,2.43.44,1.79Z"/><path d="M55.71,23c-3.33,1.58-5.65,4.77-3.58,8.37a7.06,7.06,0,0,0,10.11,2.3c3.16-2,4.88-5.62,2.49-8.95s-6.55-3.31-9.62-.88c-.91.71-.57,1.16.35.44,4.89-3.86,12.34,4.61,7.18,8.37-5.53,4-13.68-5.64-7.78-8.45.35-.17,1.67-1.59.85-1.2Z"/><path d="M56.47,19.05c.31,2,1.38,3.78,1.89,5.76.33,1.28,1.46.37,1.19-.65-.46-1.79-1.5-3.41-1.78-5.24-.18-1.21-1.48-1.1-1.3.13Z"/><path d="M13.25,128.71c-2.67-2.48-4.07-7.6-1.81-10.71,2-2.69,5.85-2.37,8.84-2.19,2.56.15,5,.49,6,3.14a8.12,8.12,0,0,1-3.2,10.24c-1.07.68.05,2.24,1.13,1.55,4.18-2.68,5.49-7.07,4.13-11.8-1.22-4.23-4.61-5-8.59-5.13s-8.5,0-10.47,3.9-.47,9.6,2.74,12.58c.91.84,2.13-.74,1.23-1.58Z"/><path d="M19.36,118c.92-3.32-.24-6.84.92-10.09.36-1-1.09-2-1.52-.76-1.17,3.28,0,6.77-.92,10.09-.29,1,1.17,2,1.52.76Z"/><path d="M-2.55,89.92c-.13,4.24,6.15,4.58,9.12,4.45,5.23-.24,11.69-2.54,13-8.25C21.61,76.85.93,62.76-3.41,73.62c-.47,1.18,1.35,2,1.82.78,3.22-8.06,20.75,4.08,19.21,11.17-.91,4.18-5.34,6-9.17,6.61-1.53.24-9.14.81-9-2,0-1.26-1.92-1.58-1.95-.29Z"/><path d="M16.48,79.71a22.09,22.09,0,0,1,3.52-4c.78-.65-.05-2.41-1-1.64a23.23,23.23,0,0,0-3.81,4.29c-.61.85.53,2.34,1.26,1.31Z"/><path d="M6,2.26c1,7.85,8.92,17.1,17.39,11.67,4.9-3.13,11-12.24,4-16.42-1-.61-.85,1.25-.16,1.67,5.36,3.22-1.9,11.53-5.38,13.34-7.22,3.77-13.57-3-14.46-9.84C7.27,1.8,5.79,1,6,2.26Z"/><path d="M14.79,21.35c1.27-2.23,2.86-4.22,2.87-6.9,0-1.23-1.79-1.4-1.79-.11,0,2.27-1.57,4.06-2.64,5.94-.57,1,.93,2.18,1.56,1.07Z"/><path d="M80.24,1.47c1.44,6.27,6.35,12.22,13.27,8.74C97,8.44,102,4.34,100.49-.2c-.15-.46-.67,1.24-.53,1.67,1.26,3.79-7.69,7.93-10.4,7.82-5.25-.22-7.75-4.95-8.79-9.49-.1-.44-.63,1.22-.53,1.67Z"/><path d="M85,14.88a11.33,11.33,0,0,1,1.1-2.64,6.19,6.19,0,0,1,1.2-1.82c.19-.15.64-.52.35-.75s-1,.31-1.17.45a11,11,0,0,0-3.21,5.63c-.09.37.74,0,.83,0a1.6,1.6,0,0,0,.9-.87Z"/><path d="M141.68,73.13c-4.1,3-10.49-6.88-12-9.88-4.2-8.23,3.45-13.11,9.84-16.78,1-.6.48-1.46-.56-.86-6.73,3.86-15.58,9.45-11.12,18.41,2.11,4.25,8.7,14.09,14.43,10,1-.69.43-1.57-.56-.85Z"/><path d="M124.65,54.37c2.89.82,5.67,1.6,8.71,1.38.44,0,.26-2-.22-2-3,.23-5.82-.56-8.72-1.38-.24-.07-.35,1.83.23,2Z"/><path d="M74.43,125.77c-2.6-6.68,3.77-8.42,9-7.66s11,3.83,12.8,9.17c.41,1.22.88-.44.68-1-2.21-6.69-9.74-10.56-16.55-10.3-6.52.25-8.85,5.11-6.6,10.89.47,1.2.92-.44.68-1Z"/><path d="M83.83,117.33v-9.17c0-1-1.14-1.76-1.14-.42v9.17c0,1,1.14,1.76,1.14.42Z"/><path d="M130.63,125.5c-10.72-6.85,9.81-20.25,12.86-15.53.6.92,2.14-.35,1.53-1.29-4.53-7-28.44,10.19-15.58,18.41.92.58,2.17-1,1.19-1.59Z"/><path d="M131.54,106.8c.68,3,2.81,4.92,4.93,7,.83.82,1.61-1,.9-1.69-1.73-1.72-3.69-3.31-4.25-5.8-.28-1.27-1.84-.7-1.58.45Z"/></svg>