<svg xmlns="http://www.w3.org/2000/svg" viewBox="0 0 141.73 166.47"><defs><style>.a{fill:#efdf15;}.b{fill:#eb1e41;}.c{fill:#2954cc;}</style></defs><title>lady3</title><path class="a" d="M119.59,43.07a3.09,3.09,0,0,0-.43.14c-.44.24-.87.49-1.29.76a6.17,6.17,0,0,0-1.26.75,18.32,18.32,0,0,0-4.33,5,17.3,17.3,0,0,0-2.19,5.14c-.2.6-.39,1.21-.55,1.83l-.44,3.43a8.16,8.16,0,0,0,.2,3.16l.78,2.67a14.75,14.75,0,0,0,1.4,2.1A6.1,6.1,0,0,0,114,69.58a4.52,4.52,0,0,0,3.46.07A6.73,6.73,0,0,0,121,68a13.19,13.19,0,0,0,3.28-3.55A16.41,16.41,0,0,0,127,59.66L128,56.08a17.76,17.76,0,0,0,.25-6.54l-.78-2.66a6.13,6.13,0,0,0-3.26-3.34,2.33,2.33,0,0,1-.52-.2l1.9,1.29a.35.35,0,0,1-.11-.1l2.14,4.72v0l-.25,6.54v-.05l-4.75,9.72,0,0-2.27,2.16.07,0-2.39,1.41a2.33,2.33,0,0,1,.52-.2,9.58,9.58,0,0,0,3.52-2.49,13.33,13.33,0,0,0,3.16-3.87,17.3,17.3,0,0,0,2.19-5.14,16.15,16.15,0,0,0,1-5.21l-.19-3.12a8.79,8.79,0,0,0-2.14-4.71l-1.9-1.29a6.12,6.12,0,0,0-4.66.22Z"/><path class="a" d="M104.85,76.72l-.69.69a36.16,36.16,0,0,0-3.57,4,26.4,26.4,0,0,0-2.65,3.72,7.06,7.06,0,0,0-1.21,2.87,1.77,1.77,0,0,0,.14,1.84l1,.32a8.83,8.83,0,0,0,3.67-1.44,41.6,41.6,0,0,0,7.72-6.28l.69-.69a36.16,36.16,0,0,0,3.57-4A26.4,26.4,0,0,0,116.2,74a7.06,7.06,0,0,0,1.21-2.87,1.77,1.77,0,0,0-.14-1.84l-1-.32a8.83,8.83,0,0,0-3.67,1.44,41.6,41.6,0,0,0-7.72,6.28Z"/><path class="a" d="M19.34,94.59c6.89,0,14.19-3.51,17-10.16,2.33-5.52-.7-12.24-7.32-12.24-6.89,0-14.18,3.5-17,10.16-2.32,5.51.7,12.24,7.32,12.24Z"/><path class="a" d="M50.85,93.81a13.6,13.6,0,0,0-10.15-5,10.79,10.79,0,0,0-5.13.83,11.53,11.53,0,0,0-4.87,2.57,11.65,11.65,0,0,0-3.5,4.24,10.93,10.93,0,0,0-1.85,4.86l-.1,3.35a11.48,11.48,0,0,0,2.52,6.11l2.49,2.27a12.27,12.27,0,0,0,6.29,2,1.51,1.51,0,0,1,.3,0l-3.3-.59a2.64,2.64,0,0,1,.4.12l-3-1.43a2.44,2.44,0,0,1,.47.32l-2.5-2.27a2.29,2.29,0,0,1,.21.23,8.7,8.7,0,0,0,4,3,9.38,9.38,0,0,0,4.79,1.3,10.84,10.84,0,0,0,5.14-.84,11.44,11.44,0,0,0,4.86-2.57l2.6-2.7a14.5,14.5,0,0,0,2.76-6.4l.09-3.35a11.48,11.48,0,0,0-2.52-6.11Z"/><path class="a" d="M30.33,126.07l0-.15.44,3.21a2.81,2.81,0,0,1,0-.58l-.45,3.27a3.41,3.41,0,0,1,.13-.53l-1.29,3.17a2.64,2.64,0,0,1,.2-.37L27.23,137a4.09,4.09,0,0,1,.39-.44,11,11,0,0,0,2.75-4.46,10,10,0,0,0,1.1-4.86,8.32,8.32,0,0,0-1.14-4.7,8.12,8.12,0,0,0-2.92-3.91L24.62,117a13.32,13.32,0,0,0-6.61-.86l-3.47.83a16.1,16.1,0,0,0-6.19,4.13,3.31,3.31,0,0,0-.26.27,1.09,1.09,0,0,0-.13.17l-2.1,2.88c-.06.1-.12.2-.17.3-.25.54-.48,1.09-.68,1.65s-.48,1.13-.7,1.71l-.06.26c-.09.59-.17,1.19-.25,1.78a13.89,13.89,0,0,0-.23,1.7,17.92,17.92,0,0,0,.5,3.87,8.11,8.11,0,0,0,2.49,4.2,8.26,8.26,0,0,0,3.91,2.85,9.91,9.91,0,0,0,4.9.86,11,11,0,0,0,5.17-.83l3.34-1.7a15.54,15.54,0,0,0,5-5.31l1.3-3.16a11.89,11.89,0,0,0,0-6.48Z"/><path class="a" d="M28.12,19.32a15.75,15.75,0,0,0-.45-5.73,5.39,5.39,0,0,0-1-2.09c-1.16-1.31-2-1.35-3.7-1.25a5.78,5.78,0,0,0-2.81,1.67,11.28,11.28,0,0,0-2.8,3.19,21.31,21.31,0,0,0-2.41,4.67,23.57,23.57,0,0,0-1.73,5.31l-.52,3.36a14.48,14.48,0,0,0,.45,5.48l.93,1.82a3,3,0,0,0,3.11,1.08h.13l-1.72-.07a.74.74,0,0,1,.39.11l-1.39-1a.3.3,0,0,1,.11.14l-.93-1.82a.6.6,0,0,1,.06.19l-.47-2.48V32l0-3v.13a11.13,11.13,0,0,0,.21,4.23,5.72,5.72,0,0,0,1.17,3.06,2.22,2.22,0,0,0,2.25,1,3.18,3.18,0,0,0,2.72-.81L21.61,35a22,22,0,0,0,3.54-5.31,28.91,28.91,0,0,0,3-10.39Z"/><path class="a" d="M113.6,7.75h-1.38a1.8,1.8,0,0,0-1.12,1.46,6.92,6.92,0,0,0-.56,3.06,25.85,25.85,0,0,0,.16,4.57,35.9,35.9,0,0,0,.76,5.35l.86,3.62a34.85,34.85,0,0,0,2.12,5.87l1.15,2a2.55,2.55,0,0,0,2.15,1.51h1.38a1.79,1.79,0,0,0,1.12-1.45,7.11,7.11,0,0,0,.56-3.07,25.7,25.7,0,0,0-.16-4.56,37.25,37.25,0,0,0-.76-5.35L119,17.15a35.85,35.85,0,0,0-2.12-5.88l-1.15-2a2.56,2.56,0,0,0-2.15-1.52Z"/><path class="a" d="M128.69,73.86a1,1,0,0,1-.25,0l2.48.18a.46.46,0,0,1-.2-.05l2.21,1.14a.3.3,0,0,1-.14-.11l1.72,2,0-.08,1.19,2.61,0-.09.61,3.12a.91.91,0,0,1,0-.23l0,3.47v-.13a12.9,12.9,0,0,0-.28-5,9.59,9.59,0,0,0-1.5-4.17,5.24,5.24,0,0,0-2.83-2.52,4.62,4.62,0,0,0-3.58-.76l-2.49.77A12.82,12.82,0,0,0,121,77.88l-1.8,3a21.57,21.57,0,0,0-2,7.17v.13l0,3.47,0,.22A26,26,0,0,0,117.8,95L119,97.65a4.36,4.36,0,0,0,.91,1,7.77,7.77,0,0,0,1,1.07c.18.13,2.08,1.12,2.3,1.18a5.85,5.85,0,0,0,1.39.13,11.58,11.58,0,0,0,1.49.09,7,7,0,0,0,3.68-1.56,9.93,9.93,0,0,0,3.34-3.14,14.69,14.69,0,0,0,2.46-4.72,16,16,0,0,0,1.36-5.41l0-3.47a12.85,12.85,0,0,0-1.8-5.73l-1.72-2a6.17,6.17,0,0,0-4.69-1.33Z"/><path class="a" d="M128.08,94.81a3.58,3.58,0,0,1-.84-.55l2.23,2.26a.28.28,0,0,1-.06-.09l2.06,6v0l-.19,3.37v0l-2.89,6.65,0,0-2.55,2.75,0,0-2.93,2,0,0-3.16,1.2.12,0-3.22.36a5.83,5.83,0,0,1,1.38.09,9.72,9.72,0,0,0,4.79-1,11.15,11.15,0,0,0,4.52-2.59,12.44,12.44,0,0,0,3.47-4.37,11.77,11.77,0,0,0,2-5l.19-3.38a11.48,11.48,0,0,0-2.05-6l-2.23-2.25a10.33,10.33,0,0,0-5.92-2,8.25,8.25,0,0,0-1.22-.1,14.86,14.86,0,0,0-3.46.38,11.89,11.89,0,0,0-3.23,1.22l-2.94,2A4.68,4.68,0,0,0,110.7,97a11.5,11.5,0,0,0-3.15,4.65c-.1.24-1,3.2-1,3.43a9.2,9.2,0,0,0,.12,5,8.33,8.33,0,0,0,1.76,4.43,9.29,9.29,0,0,0,3.11,2.84,7.84,7.84,0,0,0,4.37,1.72,8.76,8.76,0,0,0,4.76-.09,11.14,11.14,0,0,0,4.63-2.19,12.07,12.07,0,0,0,4-3.75l1.87-3.25a14.85,14.85,0,0,0,1.22-6.77l-.63-3.17a10.27,10.27,0,0,0-3.66-5.06Z"/><path class="b" d="M65.16,121.14c6.74.78,13.36,0,20.1.19,2.37.08,4.43-3.12,5.17-4.86a19.66,19.66,0,0,0,1-10.13c-.92-5.51-3.57-12.52-10-12.74-2.58-.09-5.17.09-7.75.19a69.2,69.2,0,0,1-7.91,0c-6.18-.72-8.64,5.74-8.63,11.08a22.16,22.16,0,0,0,2.3,10.57c1.15,2.07,3.12,5.39,5.74,5.7Z"/><path class="c" d="M72.33,50.38c-.75.07-5.57-.18-3.71.23,1.25.23,1,.13-.61-.29,1.66.6,1.56.42-.31-.56a41.77,41.77,0,0,0-7.38-4.07,51.84,51.84,0,0,0-8.2-3c-1.37-.36-4.77-2.19-1.14,0a10.88,10.88,0,0,1,4.3,6.22q.36,4.78.33,2l-.36,2.72a15.55,15.55,0,0,1,.57-1.91q-1.62,3.64-.38,1.13c.64-1,1.15-2,1.8-3s3-3.4.17-.37c.79-.83,1.48-1.75,2.25-2.6a32.79,32.79,0,0,1,4.63-4.42c-2.26,1.65.53.08,1.39-.49-2.68,1.76-.3.33,1-.11-2.32.21-2.51.23-.58.09a16.52,16.52,0,0,1,2,0c1.24.08.9,0-1-.19,1,.18,1.91.41,2.85.68.77.23,5,1.89,1.63.45a59.5,59.5,0,0,1,7.55,3.84c1.18.72,3.8,3.55,1.16.67.77.83,2.94,3.6.39,0,.7,1.28.73,1.26.1-.06A5.48,5.48,0,0,1,80,44.17q-.06,2.73.21-.94c-.47,1.48-.53,1.67-.18.58s.23-.94-.64.71c.85-1,.7-.91-.47.35,2.82-1.86,6-3.4,9.49-2.44,4.06,1.11,1.26.36,0-.43,3.3,2-1-.86-1.7-1.44-6.06-5-13-10.27-21-11.6s-15.81,1.45-19.16,9.4c-3,7.08-.58,16.56,6.64,20.28,1.68.87,3.43,1.58,5.18,2.31-.54-.23-2.92-1.49-.3-.12A39.47,39.47,0,0,1,62,63.06c.37.24,2.6,2,1.16.8s.66.6.76.69c2.32,2,4.73,4,7.23,5.77,9.62,6.93,21.35,6.43,30.44-1,8.24-6.77,13-17.87,11.56-28.42-1.34-10-8.37-17.43-16.62-22.6C81,8.53,61.23,4.51,45.24,15.41,32.33,24.2,16.58,41.9,22.39,58.87c4.09,11.94,14.77,15.58,25.85,18.76,2.83.82.21.05-.37-.22,1.22.57,2.42,1.19,3.63,1.76a37,37,0,0,0,9.14,3.35c8.7,1.56,15.59-.83,22.38-6.32,10-8,1.92-26.93-10.69-25.82Z"/><path d="M43.52,53.63C48,63,55.84,86.21,70.58,79.77c7.06-3.08,11-12.72,12.74-19.71,1.42-5.85,3.64-13.9,1.31-19.76-.27-.69-.84,1.5-.61,2.08,1.6,4,0,9.63-.8,13.73A43.46,43.46,0,0,1,80,66.31C77,72.66,71.67,79.77,63.71,78c-11-2.43-15.36-17.61-19.58-26.45-.33-.7-.88,1.51-.61,2.08Z"/><path d="M57.11,76.44c-.54,9.82,2.12,19.44,1.69,29.25,0,.7,1.54,2.08,1.55,1.79.43-9.81-2.22-19.43-1.68-29.24,0-.7-1.54-2.09-1.56-1.8Z"/><path d="M76.42,75.55c-.19,11.56,3,25.66,12.31,33.4,5.83,4.84,13.42,7.08,18.8,12.56,6,6.09,9.23,15.25,10.55,23.54a1.14,1.14,0,1,0,2.24-.42,52.44,52.44,0,0,0-7.69-20.34c-3.61-5.48-8.7-8.84-14.33-12-6.76-3.83-11.89-7.61-15.24-14.83a49.92,49.92,0,0,1-4.33-21.68c0-1.49-2.28-1.79-2.31-.2Z"/><path d="M59,104.64c-2.52,4.88-8.91,7.37-12.83,11a42,42,0,0,0-7.62,9.63,51.49,51.49,0,0,0-7.32,25.84c0,1.34,1.49-.45,1.51-1.21.24-11.14,4-22.36,11.74-30.61,4.8-5.14,12.31-7.7,15.62-14.09.67-1.31-.43-1.82-1.1-.52Z"/><path d="M62.21,31.54c-3.79,4.54-5.73,12.11-10.85,15.23-3.54,2.16-8.1,1.76-10.7,5.41-.83,1.17.5,2.73,1.43,1.42,2.61-3.65,8.55-3.07,11.85-6.15,4.24-4,6-10.07,9.71-14.49.93-1.11-.41-2.64-1.44-1.42Z"/><path d="M66.35,33.46c4.18.79,5.84,7,9.79,8.84,3.26,1.48,10.5.85,10.79,5.62a1.23,1.23,0,0,0,2.45-.15c-.31-5.12-5.6-6.05-9.7-7-3.6-.87-5.14-2.79-7.42-5.59-1.49-1.82-3-3.64-5.41-4.1a1.23,1.23,0,0,0-.5,2.41Z"/><path d="M47.88,71.48c-6.58,0-14.52-2.21-18.18-8.13L29.89,65c.59-.15,1.2-.29,1.8-.41s-.37-2-.72-2.18C24.43,59.3,23.88,48.63,26.22,43a20,20,0,0,1,2.44-4.9c1.22-1.55,3.1-2.35,4.4-3.79,1.85-2,2.18-4.08,4.71-5.72a47.21,47.21,0,0,0,5.44-3.89,18,18,0,0,1,4.71-3c2.74-1.22,5.5-3.4,8.5-3.81.87-.11,0-2.35-.74-2.26-6.17.84-11.1,5.6-15.91,9-1.58,1.13-3.63,1.72-5,3.12-.91.93-1.16,2.09-1.86,3.13-1.63,2.44-4.56,3.63-6.13,6.14a20.11,20.11,0,0,0-2.74,16c1.09,4.22,3.11,9.63,7.33,11.63l-.72-2.19c-.61.12-1.21.25-1.81.41s.08,1.45.19,1.62c4,6.56,12.19,9.31,19.6,9.36.81,0,0-2.25-.75-2.26Z"/><path d="M67.9,16.41c2-1.3,5.24-2.61,7.69-1.41,3.11,1.52.87,1.13,2,2.27,2,2,2.47,1.21,5.3.81,3.73-.52,2.6,1.3,4.3,3.1,2.93,3.1,9.95-.21,8.76,7.83-.07.46.07,1.79.66,1.95,5.54,1.56,8.18,3.7,7.86,10-.24,5,.28,9.94-2.58,14.29-4.19,6.37-11.84,10.88-19,12.92-.65.18-.07,2.56.55,2.39C93.49,67.75,104.47,60.24,105.3,49c.71-9.65,1.66-17.41-9-20.41L97,30.55c.41-2.8.2-5.69-1.85-7.86-1.78-1.89-4.19-1.77-6.29-2.92-1.64-.91-1.32-1.18-2.1-2.59a3.37,3.37,0,0,0-3.23-1.81C81.63,15.42,80.84,17,79,16c-1.67-.86-.41-.75-1.46-1.79-3-2.93-7.08-2.16-10.38,0-.53.34.14,2.66.77,2.25Z"/><path d="M11.3,100.62c1.83,2.91,3.4,6.24,6.66,7.77a.72.72,0,0,0,.88-.21,10.14,10.14,0,0,1,3.49-3.83l-1.41-.53c1.51,2.16,2.92,4.39,4.6,6.43.95,1.15,2.42.2,1.45-1-1.68-2-3.09-4.27-4.6-6.43-.3-.43-.89-.83-1.41-.53a11.14,11.14,0,0,0-3.83,4.17l.89-.22c-2.54-1.19-3.85-4.37-5.27-6.62-.81-1.29-2.26-.31-1.45,1Z"/><path d="M18,81.27c1.13,1.37,2.83,3.27,4.75,3.39s3-1.58,3.46-3.26l-1.93,1c1.6,2.25,3.09,4.58,4.6,6.9.69,1.06,2.6-.42,2-1.33-1.59-2.45-3.17-4.91-4.86-7.29-.59-.84-1.77.48-1.92,1-.6,2.2-3.74-1.44-4.36-2.19s-2.5.81-1.75,1.72Z"/><path d="M40,97.4c.13,1.26.43,4.06,2.25,4S44.71,99,45,97.66l-.37.62c2.46.48,2.81,3.81,4.5,5.33.37.33.67-1.88.12-2.38-1.86-1.68-1.91-4.85-4.76-5.4-.24,0-.34.51-.37.63-.34,1.72-2.84,4.12-3.17.89-.15-1.41-1.09-1.41-.94.05Z"/><path d="M13.53,131.77c1.41,1,3.25,2.31,5.07,2.15,2.09-.2,2.56-2.41,2.73-4.15l-1.3.49c1.42,1.21,2.08,3.13,3.59,4.26,1.28,1,1.63-1.11.66-1.83-1.45-1.09-2.18-3.06-3.59-4.26a.76.76,0,0,0-1.3.48c-.13,1.31-.37,2.91-2,2.68a8.25,8.25,0,0,1-3.19-1.65c-1.33-.9-1.67,1.14-.66,1.83Z"/><path d="M16,18.88c.35,2.35,1.43,6.6,4.27,7,3.47.53,4-4.06,5.11-6.21l-1.69.82c1.93.95,2.94,2.68,3.83,4.56.56,1.18,2.56-.2,2.07-1.24-1-2.18-2.26-4.18-4.49-5.28-.67-.33-1.39.27-1.69.83a17,17,0,0,0-.91,2.41c-.38,1.07-.68,2.45-2,1.64-1.47-.91-2.11-3.74-2.34-5.32-.21-1.4-2.35-.37-2.18.76Z"/><path d="M109.75,18.54c.51,2.13,1.44,5.34,4,5.68s4.8-2.4,6.23-4.14L118.92,20a17.26,17.26,0,0,1,3.77,5.31c.58,1.4,2.13.7,1.55-.7a20.91,20.91,0,0,0-4.49-6.34c-.25-.27-.82-.47-1.1-.12A12.5,12.5,0,0,1,115,21.54c-2.34,1.15-3-1.16-3.48-3.08-.31-1.31-2.13-1.5-1.75.08Z"/><path d="M115.09,51a13,13,0,0,0,4.5,7.09.42.42,0,0,0,.51.07c1.55-1,3.62-4.63,5.58-3.9,1.69.63,1.85,4,2.94,5.51.83,1.12,1.19-1.17.7-1.83-1.32-1.79-1.39-6.8-4.72-6.24-1.41.24-2.4,1.67-3.34,2.63s-1.37,1.54-2.51.57c-1.33-1.13-2-3.09-2.5-4.7s-1.51-.35-1.16.8Z"/><path d="M101.44,80.25c1.62,1.12,2.88,2.67,4.81,3.29a1.57,1.57,0,0,0,1.77-.78c.33-.9.76-2.88,1.94-2.61.9.21,1.93,2.45,2.34,3.14.57,1,2.72-.22,2.15-1.18-1-1.6-2.37-4.36-4.64-4.12s-3.22,2.8-3.88,4.57l1.77-.77c-1.75-.57-2.92-2-4.4-3.06-.87-.61-2.84.85-1.86,1.52Z"/><path d="M114.66,104.36a15.07,15.07,0,0,0,4.54,5.36.56.56,0,0,0,.9-.15c1.15-2.16,1.79-4.57,3.39-6.46l-.79,0c1.73,1.32,2.51,3.48,4,5,.37.39,1.11.57,1.18-.19a21.75,21.75,0,0,0,.09-2.42c0-1.06-1.69-2.3-1.65-.69a10.74,10.74,0,0,1,0,1.88l1.18-.2c-1.64-1.73-2.46-4-4.39-5.43-.22-.16-.58-.28-.79,0-1.71,2-2.41,4.52-3.62,6.82l.9-.15a12.44,12.44,0,0,1-3.78-4.49c-.77-1.44-1.69,0-1.1,1.13Z"/><path d="M126.66,82.36a13.16,13.16,0,0,0,3.59,4.42.51.51,0,0,0,.84-.18c.5-1,1.43-1.8,1.85-2.88l-1.39-.53a12.56,12.56,0,0,1,1.2,4.24c.09,1,1.75,2.23,1.61.63a16.29,16.29,0,0,0-1.55-5.45c-.2-.42-1.06-1.38-1.39-.53-.41,1.06-1.35,1.86-1.85,2.89l.85-.18a10.46,10.46,0,0,1-2.81-3.58c-.21-.38-.75-.78-1.14-.43s0,1.23.19,1.58Z"/><path d="M52.15,56.18a4,4,0,0,0,3.78,1,.69.69,0,0,0,.39-.51,12.54,12.54,0,0,0,.09-2,1.69,1.69,0,0,0-.79-1.51c-.52-.21-.86.27-.84.75a10.59,10.59,0,0,1,0,1.49l.39-.51a2.54,2.54,0,0,1-2.53-.68.59.59,0,0,0-1,.34,1.76,1.76,0,0,0,.55,1.65Z"/><path d="M71.64,51.35a4.64,4.64,0,0,0,1.92,2.07c.43.24,1-.17,1.26-.49a17.29,17.29,0,0,0,2.65-3.82c.16-.35.28-.87-.26-.86a2,2,0,0,0-1.31,1.08A12.13,12.13,0,0,1,74,52.14l1.26-.5a4.33,4.33,0,0,1-1.77-1.8c-.42-.8-2.19.86-1.84,1.51Z"/><path d="M72.79,43c.15-.43.95-.52,1.31-.5a1.74,1.74,0,0,1,1.57,1.06l.38-1.67a5.78,5.78,0,0,1-5.14.2L71,44.12c1.5-1.36,3.7-1.17,5.58-1.09l-.09-2.29a16.74,16.74,0,0,1-4,1.34c-1.42.28-1.44,2.67.1,2.36A18.64,18.64,0,0,0,77.16,43c.88-.42,1.28-2.23-.08-2.29-2.48-.1-5.36-.26-7.33,1.53-.61.55-.85,1.63.08,2a8.29,8.29,0,0,0,7.46-.46,1.25,1.25,0,0,0,.38-1.66,4,4,0,0,0-7.18.5c-.51,1.5,1.82,1.74,2.3.34Z"/><path d="M48.3,47.79c2,1,4.19.08,6.12-.54.33-.1,2.11-1.53,1.37-1.8a7,7,0,0,0-5.26.28c-1.23.65-3.19,2.74-1.91,4.22,1,1.15,3.14-.44,4-1.06A12.4,12.4,0,0,0,56.2,45.3c.12-.21.15-.64-.22-.5-2.12.77-4.39.56-6.52,1.2-.53.16-1.77,1.1-1.48,1.76a2.13,2.13,0,0,0,.78,1c.56.4,2.16-1.43,1.74-1.72a2.1,2.1,0,0,1-.77-1l-1.48,1.75c2.14-.63,4.41-.43,6.52-1.2l-.23-.5c.17-.29-.33.32-.43.41a12.68,12.68,0,0,1-1.17,1c-.55.41-1.62,1.28-2.35.89-.49-.27-.29-.72-.48-1.1.1-.36,0-.38-.2,0a2.51,2.51,0,0,1,.46-.16c.24,0,.49-.11.73-.14a6.9,6.9,0,0,1,3.16.3l1.37-1.81c-1.71.55-3.85,1.52-5.58.61-.66-.34-2.13,1.52-1.75,1.72Z"/><path d="M60.87,52.84c-1.23,1.53-1.08,3.29-.35,5,.11.26.83,1.57,1.23,1,.59-.78,1.43-1.31,2-2.13l-.91-.48a9.59,9.59,0,0,0,2.44,2.06c.12.09.45.32.54.06,1-2.72,1.61-6.88-.24-9.35-.84-1.11-2.33-2.43-3.66-1.29S60.36,51,60.38,52.54a2.32,2.32,0,0,0,.68,1.54c.16.16.76.66.75.08a7.39,7.39,0,0,1,.73-3.46c.43-.8,1.8-2,2.57-.71.47.77.09,2.5,0,3.35a15,15,0,0,1-.65,3.11l.54.06c-.51-.41-1.34-.68-1.71-1.23-.14-.2-.65-.85-.91-.47-.56.82-1.4,1.35-2,2.14l1.23,1a3.06,3.06,0,0,1,.63-3.21c.39-.49-.92-2.5-1.37-1.94Z"/><path d="M62.05,65.47c2.43-.74,4.87,0,7.34,0,.58,0,1.39-2.22.84-2.22-2.49,0-4.89-.75-7.34,0-.64.19-1.2,2.33-.84,2.22Z"/><path d="M69.82,59.9c-.25,2.26.32,4.44.46,6.68,0,.36.13,1.42.51,1.6s.41-.13.38-.54c-.14-2.06-.69-4.08-.46-6.17a2.66,2.66,0,0,0-.39-1.68c-.27-.32-.44-.4-.5.11Z"/><path d="M98.6,139.54c-5.33-3.63-10.86-6.08-15.12-11.07-2.73-3.18-4.57-3-8.54-3.81L75.5,127c1.7-.47,3.38-.91,5-1.45.82-.26.73-1.36.18-1.87s-1.11-1-1.65-1.6l-.18,1.88,3.87.26c1.35.39,1.36-1.45.47-2l.55.47c1.26.35,1.27-1.1.69-1.82l-.65-.81-.44,1.88c4.25.67,7.31,3.63,10.88,5.73,3,1.76,6.2,3.18,9.12,5.11,1.34.88,1.77-1.18.71-1.88-3.81-2.52-8-4.3-11.84-6.85-3-2-5.61-3.84-9.17-4.4-1.15-.18-.86,1.37-.44,1.89l.66.8.69-1.81c-1.26-.36-2.62-.92-3.48.35a1.26,1.26,0,0,0,0,1.36c.6,1.06.83,1.14,2,1.86l.46-2a10.67,10.67,0,0,0-4.89-.38c-.91.12-.62,1.44-.18,1.88s1.08,1.08,1.65,1.59l.18-1.87c-1.67.53-3.35,1-5,1.44-1.27.35-.34,2.1.56,2.28a15.8,15.8,0,0,1,7.84,4.13c1.11,1,2,2.06,3.19,3,3.63,2.78,7.82,4.77,11.61,7.34,1.32.91,1.76-1.16.71-1.88Z"/><path d="M74.77,129.17c-4.25-.72-5.78-7.5-5-11,.59-2.64,3.19-4.63,5.21-2,1.75,2.25,3,4.84,4.76,7.1.5.66.7-1.64.32-2.14-1.67-2.17-3-4.58-4.55-6.8-.65-.91-1.41-2-2.67-2-2.82,0-3.91,3.81-4.11,6-.4,4.26,1,12.55,6.2,13.44.51.08.58-2.32-.16-2.45Z"/><path d="M46.49,150.15C48,145,49.68,138.6,54.14,135.23l-1-1.85c-.15,3.27,0,6.74,3.09,8.57,6.26,3.67,15.24,1.56,22.06,2.92.69.13.27-2.21-.41-2.35-6.2-1.23-24.06,1.83-23.6-7.66,0-.35-.35-2.34-1-1.84-4.48,3.39-6.29,10.1-7.8,15.23-.18.61.81,2.72,1.05,1.9Z"/><path d="M54.39,136.14c5.57.22,14.79-.4,19.4,3.3,1.69,1.35,1.27,2.89,2.27,4.62,1.53,2.64,4.17,3.95,5.44,6.92.44,1,1.7-1,1.38-1.73-1.35-3.16-4.65-4.79-5.93-7.85-.64-1.52-.23-2.52-1.44-3.72C71.23,133.45,60.45,134,55,133.82c-.81,0-1.55,2.28-.57,2.32Z"/><path d="M54.81,142.06A5,5,0,0,1,57,139.58a1.27,1.27,0,0,0,.59-1.56c-.29-.6-1-.55-1.49-.3a7.91,7.91,0,0,0-3.36,3.94,1,1,0,0,0,.65,1.3,1.38,1.38,0,0,0,1.46-.9Z"/><path d="M59,146.94a5.22,5.22,0,0,1,1.5-4c.29-.29.52-.71,0-.9s-1.27.31-1.58.62a6.88,6.88,0,0,0-2.17,5.15c0,.84,2.25-.07,2.23-.85Z"/><path d="M64.86,148.37a7.09,7.09,0,0,0,1-4.82c0-.26-2.23.51-2.13,1.21a6.44,6.44,0,0,1-.86,4.35c-.28.45.42.27.62.2a2.76,2.76,0,0,0,1.4-.94Z"/><path d="M71.67,147.19v-1.83c0-.38,0-1.3-.46-1.48s-.51.67-.51.91v1.83c0,.37,0,1.3.46,1.47s.51-.67.51-.9Z"/><path d="M72,148.84a5.55,5.55,0,0,0,2-.06,1.61,1.61,0,0,0,1.31-1.13,4.33,4.33,0,0,0,.1-1.56c-.17-1.38-2.31-.36-2.17.72a3,3,0,0,1,0,1l1.31-1.13a4,4,0,0,1-1.5.08c-1.06-.22-2.39,1.76-1,2Z"/><path d="M59.52,100.86c4.71,2.31,19,6.53,21.62-.59.42-1.16-1-2.71-1.57-1.2-2,5.61-15.94,1.23-19.65-.59-1.11-.54-1.42,1.88-.4,2.38Z"/><path d="M58.16,108.48c6.44,3.74,25.55,9.75,27.46-1.86.25-1.54-2-1.68-2.27-.15-1.44,8.74-19.24,2.68-23.9,0-1.33-.77-2.55,1.3-1.29,2Z"/><path d="M63.28,110.9c1.78-2.81,1.13-6.18,1.09-9.33,0-.4-.05-1.39-.48-1.61s-.57.11-.57.56c0,2.61.74,5.76-.74,8.1-.4.63.43,2.7.7,2.28Z"/><path d="M71.16,109.13v-7.34c0-1-1.79.54-1.79,1.26v7.34c0,1,1.79-.54,1.79-1.26Z"/><path d="M78,109.25A14.93,14.93,0,0,0,76.52,101c-.46-.87-1.93,1-1.5,1.87a13.34,13.34,0,0,1,1.26,7.36c0,.57.45.68.87.5a1.84,1.84,0,0,0,.86-1.51Z"/><path d="M83.74,107.09a12,12,0,0,0-3.85-7.78c-.87-.8-2.68.85-1.82,1.64a10.63,10.63,0,0,1,3.49,6.89c.12,1.38,2.26.35,2.18-.75Z"/></svg>