<svg xmlns="http://www.w3.org/2000/svg" viewBox="0 0 141.73 166.47"><defs><style>.a{fill:#eb1e41;}.b{fill:#2954cc;}.c{fill:#ed3895;}</style></defs><title>lady2</title><path class="a" d="M96.19,104.27a5.07,5.07,0,0,1,1.23.92l-1.13-1.36a3.75,3.75,0,0,1,.75,1.44l-.49-2q1,7.64,5.87-13L107.23,86c1.94-.77,2.45-1,1.52-.74l2-.32a4.32,4.32,0,0,1-1.56-.11l1.69.53a.6.6,0,0,1-.5-.16l-4.73,18.16c.29-.36.62-.68.93-1s.39-.41.58-.61c.84-.88,2.09-2.06-1.93,1.94l-8.44,2.7c.86.8,1.71,1.6,2.52,2.45l15.56-23.27a102.29,102.29,0,0,1-7.65-7.07,4.23,4.23,0,0,0-3.75-.2,14.17,14.17,0,0,0-4.69,2.9,29.83,29.83,0,0,0-6.07,6.76c-2,3-4,6.71-4.44,10.29-.45,3.32,0,6,2.32,8.43,2.21,2.28,5.43,3.33,8.3,4.51,5.18,2.13,10.64-4.23,13.1-8.08,1.77-2.77,3.57-5.95,3.95-9.27.19-1.68.54-5.09-1.48-5.92-2.89-1.19-6.26-2.25-8.41-4.63l1.13,1.36a4.14,4.14,0,0,1-.71-1.28l.48,2c-.61-3,2.54-1.65-2,6.9l-3.5,5.3q-2.91,2.76-1.35,1.49l-8.44,2.69a98.5,98.5,0,0,0,7.66,7.07c1.62,1.34,4.66-.08,6-.89a23.51,23.51,0,0,0,7.06-7.19c2.52-3.94,6.43-11,2.47-15.19-.8-.85-1.66-1.65-2.51-2.45-2.25-2.1-7,1.23-8.45,2.69a58.52,58.52,0,0,0-4.37,4.52,28.66,28.66,0,0,0-5.83,10.78c-.69,2.68-1,5.26,1.1,7.37a6.13,6.13,0,0,0,2.85.82,8.72,8.72,0,0,0,3.25-.43c5.34-1.69,9.78-7.42,12.08-12.3,2.17-4.58,4.45-12.41-1.28-15.53-4.85-2.64-10.89,4.62-13.1,8.08-1.77,2.77-3.57,6-4,9.27-.21,1.84-.49,4.85,1.48,5.92Z"/><path class="b" d="M61.28,144.57q.81-2.49,0-.17c.41-.75.81-1.5,1.19-2.26.3-.53,3.33-4.85,1.33-2.24,2.47-3.21,5.26-6.23,7.37-9.7a31.25,31.25,0,0,0,4.42-13.32c.14-1.24.26-2.49.34-3.74q.27-2.58-.15.62,1-4.11-2.81,3.76l-6.48,3.78c-.36.15-5.3,0-4.32.24,1.45.29-2.24-1.25,0,.1,1.27.74,2.62,1.35,3.89,2.08.88.5,1.72,1.06,2.59,1.58,2.45,1.48,1.07.36.45-.11-1.88-1.41,2.64,2.9,3.46,3.66s2,1.66,2.94,2.52c8.28,7.39,14.81,15.33,24.81,20.58,11.79,6.2,26.24-6.58,18.83-18.83a19.55,19.55,0,0,0-2.7-3.71c.85,1,1,1.06.43.27-1.32-1.82-2.68-3.6-4.1-5.34l3.61,6.2c-3.72-9-12.5-15.67-21.67-19a23,23,0,0,0-18.89,1.19,15.17,15.17,0,0,0-4.48,3.54q-2.66,3.15,5-2.81c3.06-.35,3.69-.43,1.87-.26-6-.09-12.53.3-18.19,2.26-11,3.8-16.47,12.53-17.68,23.81L59.71,122c-6.85.48-11.88,1.24-17.4,6-7.17,6.14-5.07,16.48,0,22.89,4.26,5.39,11,6.29,17.4,5.75,10-.86,16.38-7.28,17.3-17.3a10.26,10.26,0,0,1-3,6.92l-2.17,1.59q1.72-.94-.48.06c-3,1,0,.05.6,0,1-.11,4.87-.79-.6,0-2.1.3,11.2-1.5,3.06-.42,2-.27,4-.51,6-.81a35,35,0,0,0,4.87-1,20.18,20.18,0,0,0,9.13-5.41c9.33-9.77-7.34,3.18-9.53,2,.56.3,4.77,1.63,1.54.36,1.68.66,4.38,1.08,5.38,2.29.82,1-2.23-1.13.27.12,1.24.62,5.49,2.26,5.89,2.69-.4-.43-2.89-2.39-1-.22l-3.43-5.89a8.07,8.07,0,0,1,.56,2.21l25.16-10.61c-3.81-5.14-7.19-10.28-11.76-14.83-3.68-3.68-7.37-7.37-11.4-10.68a41.16,41.16,0,0,0-5.61-4.36l-3.74-1.59c1.17.45,1.27.43.29-.06s-2.25-1.19-3.4-1.73c-.86-.4-7.09-3.65-3.38-1.43-3.74-2.24-7.74-4.65-12-5.63-8.94-2-17.58,2.48-20.34,11.37A46.15,46.15,0,0,0,46.49,112a20.93,20.93,0,0,0-.41,3.25l.31-2.33a6.08,6.08,0,0,1-.31,1.13c-.35,1-.27.83.25-.61l-.61,1.12c-.75,1-1.4,2.16-2.13,3.19.82-1.16.8-1,0,0-1.33,1.67-2.65,3.34-3.92,5a30.66,30.66,0,0,0-6.28,17.94c-.23,7,5.58,13.16,12.33,14a14.33,14.33,0,0,0,15.6-10.18Z"/><path class="c" d="M53,36.79c8.12,2.74,17.06,3.66,25.45,1.58,13.24-3.29,19.1-19,8.69-29.13C78.67,1,64,3.22,54.27,7.8a23.91,23.91,0,0,0-11.2,10.06c-4.65,8.83.15,18,9,21.09,6.55,2.31,15.09-3.86,14.41-11-.15-1.56-.34,1.7-.36,1.79-.42,1.56-1.39,3.55,0,.25.23-.56,1.7-3.28.37-1a24.54,24.54,0,0,0-1.47,2.44c.86-.92,1.65-.77-.68.36.48-.23.9-.63,1.37-.89,1-.56,2.07-1.1,3.07-1.68,2-1.16-1.49.42,0,0,.59-.16,1.19-.37,1.76-.57,2.63-.9-1.54-.22,1.11-.22a11.7,11.7,0,0,0,2,0c-.43.08-2.71-.51-1-.09s-.71-.24-1.07-.47a8,8,0,0,1-2.93-3.39c-.66-1.37-.22.92-.23-1.08A10.86,10.86,0,0,1,70.14,17c.38-.5,2.31-2,1.91-1.81-1,.58,2.75-.55.73-.26a27.07,27.07,0,0,0-3.06.7c2.83-.75-.23-.05-1.58,0-4.09.16-8.23.74-12.32.38-5.17-.44-9.8,4.36-10.38,9.16A10.68,10.68,0,0,0,53,36.79Z"/><path d="M43.52,53.63C48,63,55.84,86.21,70.58,79.77c7.06-3.08,11-12.72,12.74-19.71,1.42-5.85,3.64-13.9,1.31-19.76-.27-.69-.84,1.5-.61,2.08,1.6,4,0,9.63-.8,13.73A43.46,43.46,0,0,1,80,66.31C77,72.66,71.67,79.77,63.71,78c-11-2.43-15.36-17.61-19.58-26.45-.33-.7-.88,1.51-.61,2.08Z"/><path d="M64,64.07c.26-1.54,1.89-3.55,2.68-1,.22.73,1.29,1.19,1.74.37.54-1,1.27-2.43,2.59-2.39a4.27,4.27,0,0,1,2.43,1.74c.36,1.1-1.74,2.16-2.7,2.56-2,.83-6.94,1.91-7.93-.84-.55-1.5-2.38-.53-1.88.84,1.85,5.11,10,3.61,13.16.72,2.22-2,1.81-4.07-.27-6-2.78-2.57-5.36-1.23-7,1.78l1.74.37C67,57.42,62.64,59.59,62,63.61c-.25,1.44,1.73,2,2,.46Z"/><path d="M56.39,50.91c1,0,1.85-2.27.75-2.27s-1.85,2.27-.75,2.27Z"/><path d="M74.73,46.76c.72,0,2.22-1.84,1.19-1.84-.71,0-2.22,1.84-1.19,1.84Z"/><path d="M63.38,46.71c-.07,3.61-1,8.87,3.56,10.26a.11.11,0,0,0,.15-.09,17.41,17.41,0,0,0,1.2-3.77l-1.36-1.57c.28.85.66,1.66.95,2.5.13.41.7,1.79,1.29,1.66,6.47-1.38,0-9.63-2.5-12,0-.05-.28-.26-.39-.18a7.63,7.63,0,0,0-2.9,3.57c-.23.57,1.25,2.27,1.39,1.92.37-.9,1.8-3.5,2.82-3.17.69.22,1.73,2,2.07,2.62,1.43,2.35,1.15,4.49-1.77,5.11l1.3,1.66c-.28-.85-.66-1.66-.94-2.5-.08-.23-1.31-2-1.35-1.58a6.11,6.11,0,0,1-.75,2.57c-.88,1.4-1.44.44-1.56-.89a40.47,40.47,0,0,1,.19-4.53c0-.54-1.39-2.29-1.4-1.63Z"/><path d="M30.84,73C28,62.41,29.2,50.46,33.06,40.25c4.53-12,13.16-19.49,25.75-22.23,7.79-1.7,14.48-.48,21.6,2.86,6.81,3.19,13.66,6.21,18.43,12.32,7.31,9.37,9.09,25.76-.6,34.14-1.11,1,.31,3,1.42,2,7.46-6.45,8.75-16.67,6.48-25.87C103.2,31.56,94.57,25.11,84,20c-5.17-2.48-10.14-4.92-16-5.24a42.08,42.08,0,0,0-19.39,4.07C39.29,23.14,33.49,31.41,30.26,41c-3.52,10.42-4.4,22.1-1.58,32.79.4,1.48,2.57.78,2.16-.74Z"/><path d="M42.43,53c5.72-1.88,10.94-6.16,14.93-10.58,4.67-5.18,4.38-12.07,8-17.66.88-1.36-.75-1.66-1.44-.59-2.7,4.16-3,9.32-5.21,13.7C55.87,43.48,48.9,49.12,43,51.05c-.86.28-1.9,2.39-.55,2Z"/><path d="M57.11,76.44c-.54,9.82,2.12,19.44,1.69,29.25,0,.7,1.54,2.08,1.55,1.79.43-9.81-2.22-19.43-1.68-29.24,0-.7-1.54-2.09-1.56-1.8Z"/><path d="M76.42,75.55c-.19,11.56,3,25.66,12.31,33.4,5.83,4.84,13.42,7.08,18.8,12.56,6,6.09,9.23,15.25,10.55,23.54a1.14,1.14,0,1,0,2.24-.42,52.44,52.44,0,0,0-7.69-20.34c-3.61-5.48-8.7-8.84-14.33-12-6.76-3.83-11.89-7.61-15.24-14.83a49.92,49.92,0,0,1-4.33-21.68c0-1.49-2.28-1.79-2.31-.2Z"/><path d="M59,104.64c-2.52,4.88-8.91,7.37-12.83,11a42,42,0,0,0-7.62,9.63,51.49,51.49,0,0,0-7.32,25.84c0,1.34,1.49-.45,1.51-1.21.24-11.14,4-22.36,11.74-30.61,4.8-5.14,12.31-7.7,15.62-14.09.67-1.31-.43-1.82-1.1-.52Z"/><path d="M87.16,152.8c-7.1-1.47-13.72-7.14-18.14-12.68l-1.29,2c4.37-.56,8.19,1.87,12.26,3.06.6.17,2-1.59,1.41-2-2.49-1.91-4.72-3.49-6.28-6.32l-1.48,1.9a31.13,31.13,0,0,1,6.12,4.66c.49.46,1.61-1.47,1.49-1.9-.52-1.83-1.11-3.63-1.74-5.43l-1.36,1.93c4.56-.58,9.78,3.32,13.24,5.8s8.54,6.06,10.16,10.32c.2.55,1.8-1.14,1.55-1.79-1.67-4.41-6.64-7.9-10.3-10.53S84,135.38,79.32,136c-.61.07-1.59,1.31-1.37,1.93.64,1.79,1.22,3.59,1.74,5.42l1.49-1.9a30.76,30.76,0,0,0-6.13-4.65c-.55-.31-1.75,1.42-1.48,1.9,1.57,2.86,3.85,4.56,6.42,6.53l1.41-2c-4.16-1.21-8-3.69-12.5-3.12-.57.07-1.75,1.47-1.29,2,4.5,5.64,11.16,11.25,18.38,12.74.62.13,1.85-1.93,1.17-2.07Z"/><path d="M67.27,155.2c1.65-2.35,2.77-5,4.5-7.32a.77.77,0,0,0-.35-1.21c-.59-.21-1.22.32-1.53.75-1.73,2.29-2.85,5-4.5,7.31-.93,1.3,1.19,1.43,1.88.47Z"/><path d="M79.28,141.37c9.62-14.34,18.55-29.73,22-46.84.12-.6-1.1-2.58-1.26-1.76-3.42,17-12.34,32.29-21.89,46.53-.38.57.82,2.58,1.16,2.07Z"/><path d="M98.19,91.62c-.48,1-3.88,3.74-3-1,.2-1.13,1.43-1.51,2.3-1.73,1.53-.39,3.37.32,4.85.66.17,0,.18-.18.18-.28-.06-1.2-.34-3.43.7-4.24,1.36-1.05,3.82,1.28,4.88,2.28.07.07.48.47.62.31,3.58-4.06,5.92,4.19,2.25,6.37-.45.26.62,1.52.78,1.7,2.47,2.62-2,6-4,6.83-4.36,1.72-9.28-2.79-8.51-7.41.11-.67-1.47-2.17-1.52-1.82-.7,4.16,3.94,11.68,8.46,11.84,3,.1,6.59-2,7.56-4.88.79-2.34-.57-4.33-2.1-6l.79,1.7c3.52-2.08,2.09-7.56-.15-10.13a3.48,3.48,0,0,0-3.36-1.51c-1.9.27-1.09.9-2.93-.21a9.16,9.16,0,0,0-4.55-1.76.15.15,0,0,0-.17.12c0,.9.2,3.27-.3,4-.83,1.22-1.66.43-3,.29-2-.2-3.89.31-4.33,2.54-.6,3.07,2.5,5.86,5.36,5.79a.14.14,0,0,0,.17-.12,7.85,7.85,0,0,1,.66-1.59c.27-.54-1.29-2.3-1.52-1.81Z"/><path d="M102.29,93.26a4.66,4.66,0,0,0,.83,5.47,3.33,3.33,0,0,0,4.89-.61c1.9-2.31.53-6.74-2.27-7.7-1.81-.62-3,1-3.56,2.49a1.75,1.75,0,0,0,.36,1.7.6.6,0,0,0,1.06-.22c.33-.94,1-2,2.18-1.6a2.69,2.69,0,0,1,1.51,2,1.89,1.89,0,0,1-.22,1.07,2.85,2.85,0,0,1-1.78,1.27c-1.15.25-2.44-.75-1.81-2a1.7,1.7,0,0,0-.08-1.7c-.21-.33-.82-.75-1.11-.21Z"/><path d="M58.77,93.43c6.22,4.78,20.68,6.23,24.89-2,.7-1.38-1.32-2.55-2-1.14-3.4,6.66-16.25,5.18-21.23,1.35-1.23-.93-2.8.9-1.62,1.81Z"/><path d="M51.77,137.08v-9.56c0-.6-1.26-2.6-1.26-1.36v9.56c0,.59,1.26,2.6,1.26,1.36Z"/><path d="M47.29,131.9c2.78.9,6.14.3,8,3,.88,1.31,2.8-.19,1.92-1.48-2.25-3.34-5.53-2.67-8.92-3.76-1.48-.48-2.43,1.77-1,2.25Z"/><path d="M51,130a50.11,50.11,0,0,0-5.82,7.57A1,1,0,1,0,47,138.62a46.2,46.2,0,0,1,5.42-7.05c.95-1.1-.31-2.8-1.36-1.59Z"/><path d="M74,120.29c.07-3.92,2.68-7.13,3.33-10.94.2-1.17-1.39-2.6-1.66-1-.69,4-3.34,7.35-3.42,11.55,0,1.35,1.72,2,1.75.41Z"/><path d="M68.06,113.31a89.3,89.3,0,0,0,9,2.82c1.3.31,2.42-1.87,1-2.21a86.75,86.75,0,0,1-9-2.81c-1.27-.46-2.39,1.71-1,2.2Z"/><path d="M71.13,110.38c1.1,4.38,2.6,9.46,5.18,13.22.91,1.32,2.12-.36,1.41-1.4-2.48-3.6-3.88-8.45-4.94-12.65-.4-1.57-2-.49-1.65.83Z"/><path d="M71,28.55c2.39,5.89,6.72,9.88,11.88,13.44,3.51,2.42,6.81,4.69,7.53,9.27.52,3.26-.27,6.69-.9,9.88-.23,1.2,1.71,2.4,2,.89,1.06-5.38,2.07-11.26-1.18-16.11-1.7-2.53-4.15-4.1-6.61-5.8C79.17,37,75,33.51,72.9,28.25c-.52-1.27-2.51-1.19-1.9.3Z"/><path d="M34.12,73.81c6.67,5.66,15.7,12,24.79,8.6,1.41-.52.52-2.8-.92-2.27-8.18,3-16.53-3.23-22.46-8.27-1.2-1-2.55,1-1.41,1.94Z"/><path d="M76.32,81.13c5.8,2.37,15.87-2.84,16.31-9.36.08-1.17-1.93.14-2,1-.33,5-8.81,8.08-12.93,6.39-.84-.34-2.37,1.55-1.39,2Z"/><path d="M12.69,17.05a5.17,5.17,0,0,0,5.92.38,4.26,4.26,0,0,0,1-5.85c-2.63-4.43-8.43.3-8.81,3.94-.16,1.57,2.23,1.64,2.39.15s2.68-4.75,4.21-3a2,2,0,0,1-.18,2.89,2.89,2.89,0,0,1-3.14-.49c-1.18-.91-2.63,1-1.42,2Z"/><path d="M8.48,45.94c-.25,2.32,1.15,4,3.58,3.3a6,6,0,0,0,4-5.64,4,4,0,0,0-4.27-4.23,5.81,5.81,0,0,0-5.1,4.47c-.45,1.53,1.24.26,1.48-.55.9-3,5.69-1.83,6.24.85.7,3.41-4.76,4.36-4.35.72.14-1.31-1.51.36-1.59,1.08Z"/><path d="M10.78,97.51c.8,2.1,2.53,4.28,4.87,4.67,2.52.43,4.08-1.74,4.64-3.91.62-2.4,0-5.08-2.44-6.14s-4.53.49-5.28,2.79c-.42,1.32,1.16,2.47,1.66.94a2,2,0,0,1,3.13-1.29c1.57.85,1.61,2.71.79,4.14-1.78,3.1-5.08-.82-5.79-2.69-.54-1.41-2,.4-1.58,1.49Z"/><path d="M40.54,89.59c0,2.81,1.13,7.84,5.06,6.41,3.14-1.14,3.12-5.31,1.37-7.64-.31-.42-.42.24-.45.48a2.6,2.6,0,0,0,.27,1.66,5.64,5.64,0,0,1,.46.7c.06.11.16.56.16.29s0,.14-.07.21-.18.4-.3.59A3.47,3.47,0,0,1,45,93.68c-2.32.54-3.7-1.37-3.68-3.5,0-.26,0-1.4-.38-1.48s-.36.66-.37.89Z"/><path d="M42.76,11.6c2.22,3.91,8.26.7,6.82-3.4s-7-2-8.71.8c-.73,1.19,1.12,2.59,1.93,1.26.64-1,3.29-2.75,4.49-1.75,1.54,1.29-1.78,3.54-2.71,1.9C43.79,9,42,10.3,42.76,11.6Z"/><path d="M99,13.61a5.74,5.74,0,0,0,3.89,4.27c2.22.55,3.56-1.29,3.73-3.3.42-5.09-6.16-5.63-8.42-1.91-.75,1.24,1,2.62,1.86,1.26s4.47-2.12,4.42.29c0,.95-.41,1.56-1.39,1.18a3.5,3.5,0,0,1-2-2.42c-.38-1.54-2.45-.83-2.09.63Z"/><path d="M20.71,128.94a5.13,5.13,0,0,0,5,2.06c2.11-.47,3.08-2.64,3.15-4.63s-.76-3.94-2.8-4.36-3.57,1.37-4,3.23c-.09.37-.28,1.32.19,1.56s.8-.35.89-.72c.73-2.83,5.11-1.7,4.44,1s-4.69,1.31-5.87-.17c-.71-.89-1.46,1.36-1,2Z"/><path d="M111.94,73.21a2.84,2.84,0,0,0,3.3,2.86c2.11-.27,3.32-2.25,3.64-4.21a3.43,3.43,0,0,0-2.46-4.14c-2-.53-3.54.67-4.22,2.48-.1.25-.5,1.32-.18,1.53s.61-.44.7-.69c.81-2.14,5.41-1,5.2,1.3-.08.92-1.73,1.45-2.6,1.42A2.31,2.31,0,0,1,113,71.71c0-.49-.22-.46-.52-.16a2.7,2.7,0,0,0-.51,1.66Z"/><path d="M128.74,108.69c-1.08,1.74-1.9,4.41-.57,6.25,1.22,1.69,3.06,1,4.14-.44,1.53-2,2.73-5.41,1.43-7.8-1.4-2.59-4.42-2-6.37-.44a2.63,2.63,0,0,0-.81,1.47c0,.22-.11,1,.33.63,1.39-1.08,3.3-1.77,4.86-.59a3.85,3.85,0,0,1,.58,5.09,1.76,1.76,0,0,1-2.72.34,2.89,2.89,0,0,1-.41-3.6c.52-.84.43-2.34-.46-.91Z"/><path d="M124.92,51.37a4.14,4.14,0,0,0,2.14,2.34c1.1.43,2-.44,2.8-1.17a4.35,4.35,0,0,0,1.41-4,5.11,5.11,0,0,0-6.11-3.83A4.85,4.85,0,0,0,122,48.64c-.28,1.21,1.68,2.36,2,.86A3.06,3.06,0,0,1,126.1,47a3,3,0,0,1,2.55.64,2,2,0,0,1,.39.41c0,.05,0,0,.08.14s0,0,.1.2a1.49,1.49,0,0,1,0,1,3.58,3.58,0,0,1-1.14,1.5,5.46,5.46,0,0,1-.48.36c-.17.12-.48.16-.27.23-.38-.13-.58-.75-.71-1.06a1.13,1.13,0,0,0-1.43-.61c-.58.31-.47,1.05-.25,1.54Z"/><path d="M124.78,22.75a4.93,4.93,0,0,0,3.57,1.52,3.8,3.8,0,0,0,2.85-1.91c.77-1.34,1-3.91-.83-4.56-1.45-.52-3.05.46-4.13,1.34-.33.27-.87.86-.55,1.32s1.11.09,1.42-.16l.41-.32c.07-.05.39-.26.11-.09l.33-.18.17-.09c.19-.1-.17.06,0,0l.29-.1c.1,0-.22,0,.06,0,.09,0,.34,0,.06,0l.25,0c.2,0-.1-.06.05,0l.18.09.15.09c.13.09-.1-.09,0,0a.43.43,0,0,1,.09.1,2.62,2.62,0,0,1,.23.32s0,.07.05.1-.05-.14,0,0l.09.26a3.1,3.1,0,0,1,.08.42,2,2,0,0,1,0,.23c0,.14,0,0,0-.05v.16a3.55,3.55,0,0,1-.06.47c0,.05-.07.31,0,.15s0,.12-.06.16a1.45,1.45,0,0,1-.09.22c-.09.24.13-.16,0,0a.86.86,0,0,0-.13.2c-.06.09.2-.21,0,0s.21-.17.06,0,.13-.08,0,0-.12,0,0,0c-.14,0-.27.06,0,0l-.31,0c-.12,0,.23,0,0,0h-.15c-.12,0-.24,0-.35-.06a.63.63,0,0,1-.22-.07,6.38,6.38,0,0,1-1.61-1,1.13,1.13,0,0,0-1.42.16c-.24.18-1,1-.54,1.31Z"/></svg>